<svg width="360" height="563" viewBox="0 0 360 563" fill="none" xmlns="http://www.w3.org/2000/svg">
<mask id="mask0_64_24689" style="mask-type:luminance" maskUnits="userSpaceOnUse" x="-813" y="-292" width="1520" height="855">
<path d="M707 -292H-813V563H707V-292Z" fill="white"/>
</mask>
<g mask="url(#mask0_64_24689)">
<path opacity="0.07" d="M208.799 373.354L212.815 370.266L208.883 373.459L208.799 373.354ZM167.004 366.308L164.064 364.677L163.537 364.366L161.462 363.099L157.594 360.634L160.46 357.177L165.822 350.712L178.605 336.594L187.577 326.883L192.184 331.02L219.708 302.294L215.755 298.647L221.719 293.063L226.252 288.571L230.48 284.397L240.333 274.965L254.04 261.729L261.888 270.215L270.707 279.662L280.318 293.749L290.557 308.036L280.835 315.604L270.892 323.647L261.038 331.532L249.184 340.932L241.658 332.387L230.285 344.41L236.935 350.918L223.666 361.679L223.012 362.217L215.296 368.313L193.203 347.677L178.8 361.299L171.036 368.614L167.004 366.308Z" fill="#9C9C9C"/>
</g>
<mask id="mask1_64_24689" style="mask-type:luminance" maskUnits="userSpaceOnUse" x="-813" y="-292" width="1520" height="855">
<path d="M707 -292H-813V563H707V-292Z" fill="white"/>
</mask>
<g mask="url(#mask1_64_24689)">
<path opacity="0.07" d="M43.9366 450.652L42.5486 449.728L41.0972 448.783L39.7144 447.849L38.2736 446.91L33.4497 443.711L38.7802 433.963L45.5675 438.291L54.5291 443.996L65.0108 451.38L58.3186 459.835L43.9366 450.652Z" fill="#9C9C9C"/>
</g>
<mask id="mask2_64_24689" style="mask-type:luminance" maskUnits="userSpaceOnUse" x="-813" y="-292" width="1520" height="855">
<path d="M707 -292H-813V563H707V-292Z" fill="white"/>
</mask>
<g mask="url(#mask2_64_24689)">
<path opacity="0.07" d="M134.382 461.334L137.243 458.463L144.252 466.358L143.972 466.596L141.65 468.633L141.301 468.934L134.382 461.334Z" fill="#9C9C9C"/>
</g>
<mask id="mask3_64_24689" style="mask-type:luminance" maskUnits="userSpaceOnUse" x="-813" y="-292" width="1520" height="855">
<path d="M707 -292H-813V563H707V-292Z" fill="white"/>
</mask>
<g mask="url(#mask3_64_24689)">
<path opacity="0.07" d="M74.7011 565.206L72.5161 563.016L76.3214 558.055L86.7555 544.496L87.1197 544.042L89.7375 545.905L92.028 547.552L90.4816 549.383L87.9008 552.576L85.3411 555.769L81.7469 560.261L78.158 564.773L76.4216 566.947L74.7011 565.206Z" fill="#9C9C9C"/>
</g>
<mask id="mask4_64_24689" style="mask-type:luminance" maskUnits="userSpaceOnUse" x="-813" y="-292" width="1520" height="855">
<path d="M707 -292H-813V563H707V-292Z" fill="white"/>
</mask>
<g mask="url(#mask4_64_24689)">
<path opacity="0.07" d="M232.612 520.762L231.145 518.899L230.232 517.722L223.044 508.607L222.146 509.13L220.859 507.583L216.478 511.141L212.192 514.598L212.889 515.595L208.25 518.962L202.334 511.309L198.634 506.544L204.529 502.29L206.118 501.16L209.469 505.942L215.544 501.429L218.779 506.042L229.852 497.819L241.764 489.681L243.579 492.769L237.573 497.418L249.57 511.99L235.251 524.124L232.612 520.762Z" fill="#9C9C9C"/>
</g>
<mask id="mask5_64_24689" style="mask-type:luminance" maskUnits="userSpaceOnUse" x="-813" y="-292" width="1520" height="855">
<path d="M707 -292H-813V563H707V-292Z" fill="white"/>
</mask>
<g mask="url(#mask5_64_24689)">
<path opacity="0.07" d="M126.867 169.061L91.1465 155.661L93.722 148.309L93.6534 148.293L95.2262 144.008L95.0943 143.976L96.989 138.619L96.9098 138.593L96.9573 138.456L97.0787 138.503L99.7493 130.903L99.7546 130.908L99.8759 130.549L100.868 127.731L123.927 135.843L126.698 127.325L129.321 120.944L134.931 122.432L132.947 127.879L127.896 142.139L137.195 145.633L143.043 147.776L138.641 159.076L133.918 171.647L126.867 169.061Z" fill="#9C9C9C"/>
</g>
<mask id="mask6_64_24689" style="mask-type:luminance" maskUnits="userSpaceOnUse" x="-813" y="-292" width="1520" height="855">
<path d="M707 -292H-813V563H707V-292Z" fill="white"/>
</mask>
<g mask="url(#mask6_64_24689)">
<path opacity="0.07" d="M2.45361 78.6264L2.49053 78.2939V78.637L2.45361 78.6264Z" fill="#9C9C9C"/>
</g>
<mask id="mask7_64_24689" style="mask-type:luminance" maskUnits="userSpaceOnUse" x="-813" y="-292" width="1520" height="855">
<path d="M707 -292H-813V563H707V-292Z" fill="white"/>
</mask>
<g mask="url(#mask7_64_24689)">
<path opacity="0.07" d="M203.151 62.6399L195.747 59.4943L188.796 56.4702L193.187 46.5532L199.494 49.2185L206.112 52.0051L208.192 52.8813L204.328 63.136L203.151 62.6399Z" fill="#9C9C9C"/>
</g>
<mask id="mask8_64_24689" style="mask-type:luminance" maskUnits="userSpaceOnUse" x="-813" y="-292" width="1520" height="855">
<path d="M707 -292H-813V563H707V-292Z" fill="white"/>
</mask>
<g mask="url(#mask8_64_24689)">
<path opacity="0.07" d="M106.901 5.49237L108.727 1.30713L108.922 1.37574L107.217 4.93296L106.399 6.64295L106.901 5.49237Z" fill="#9C9C9C"/>
</g>
<mask id="mask9_64_24689" style="mask-type:luminance" maskUnits="userSpaceOnUse" x="-813" y="-292" width="1520" height="855">
<path d="M707 -292H-813V563H707V-292Z" fill="white"/>
</mask>
<g mask="url(#mask9_64_24689)">
<path opacity="0.07" d="M263.767 488.034L256.32 478.302L249.216 465.524L250.077 464.949L242.587 449.327L235.447 437.637L218.373 411.343L221.856 408.651L223.524 407.369L225.451 405.875L234.307 398.956L244.15 391.393L254.8 384.062L264.49 377.401L274.924 370.097L275.663 369.585L285.68 363.679L290.098 370.24L298.316 382.289L317.632 410.509L302.754 420.853L287.206 431.398L282.176 434.929L272.528 420.505L264.965 426.532L257.64 431.625L247.807 437.916L241.907 441.764L247.258 448.984L253.375 444.709L255.581 443.184L256.452 444.482L258.669 447.67L254.362 450.668L259.529 458.336L272.713 448.984L279.057 444.529L293.998 463.609L308.903 482.783L305.868 487.733L301.366 494.178L300.384 495.339L297.666 498.5L289.813 505.509L279.279 509.784L263.767 488.034Z" fill="#9C9C9C"/>
</g>
<mask id="mask10_64_24689" style="mask-type:luminance" maskUnits="userSpaceOnUse" x="-813" y="-292" width="1520" height="855">
<path d="M707 -292H-813V563H707V-292Z" fill="white"/>
</mask>
<g mask="url(#mask10_64_24689)">
<path opacity="0.07" d="M181.354 455.623L182.32 454.947L183.497 454.108L195.235 471.657L195.831 472.544L195.235 472.95L194.607 473.383L193.567 474.037L181.354 455.623Z" fill="#9C9C9C"/>
</g>
<mask id="mask11_64_24689" style="mask-type:luminance" maskUnits="userSpaceOnUse" x="-813" y="-292" width="1520" height="855">
<path d="M707 -292H-813V563H707V-292Z" fill="white"/>
</mask>
<g mask="url(#mask11_64_24689)">
<path opacity="0.07" d="M71.4552 521.585L68.2886 518.772L67.1011 517.732L68.7636 515.88L74.3739 509.657L75.9836 511.135L77.6725 512.713L82.8552 517.505L86.1116 520.508L79.0605 528.272L71.4552 521.585Z" fill="#9C9C9C"/>
</g>
<mask id="mask12_64_24689" style="mask-type:luminance" maskUnits="userSpaceOnUse" x="-813" y="-292" width="1520" height="855">
<path d="M707 -292H-813V563H707V-292Z" fill="white"/>
</mask>
<g mask="url(#mask12_64_24689)">
<path opacity="0.07" d="M-10.4082 469.172L-7.41574 465.076L-4.57101 467.235L1.12373 471.584L3.96846 473.758L1.01291 477.79L-10.4082 469.172Z" fill="#9C9C9C"/>
</g>
<mask id="mask13_64_24689" style="mask-type:luminance" maskUnits="userSpaceOnUse" x="-813" y="-292" width="1520" height="855">
<path d="M707 -292H-813V563H707V-292Z" fill="white"/>
</mask>
<g mask="url(#mask13_64_24689)">
<path opacity="0.07" d="M192.892 511.098L193.72 510.497L194.554 509.89L196.507 512.407L194.697 513.748L192.892 511.098Z" fill="#9C9C9C"/>
</g>
<mask id="mask14_64_24689" style="mask-type:luminance" maskUnits="userSpaceOnUse" x="-813" y="-292" width="1520" height="855">
<path d="M707 -292H-813V563H707V-292Z" fill="white"/>
</mask>
<g mask="url(#mask14_64_24689)">
<path opacity="0.07" d="M150.194 23.3947L154.633 8.09976L153.176 7.66694L154.512 2.94336L165.421 6.7856L164.17 11.4828L162.28 18.5392L160.164 26.477L150.194 23.3947Z" fill="#9C9C9C"/>
</g>
<mask id="mask15_64_24689" style="mask-type:luminance" maskUnits="userSpaceOnUse" x="-813" y="-292" width="1520" height="855">
<path d="M707 -292H-813V563H707V-292Z" fill="white"/>
</mask>
<g mask="url(#mask15_64_24689)">
<path opacity="0.07" d="M220.647 16.5284L225.609 0.489258L228.891 1.29149L231.736 2.00398L234.528 2.66898L228.242 18.6976L220.647 16.5284Z" fill="#9C9C9C"/>
</g>
<mask id="mask16_64_24689" style="mask-type:luminance" maskUnits="userSpaceOnUse" x="-813" y="-292" width="1520" height="855">
<path d="M707 -292H-813V563H707V-292Z" fill="white"/>
</mask>
<g mask="url(#mask16_64_24689)">
<path opacity="0.07" d="M117.42 13.1186L114.068 12.0419L110.754 10.9547L105.249 9.18659L102.51 8.32109L89.6268 4.22553L85.5365 2.52604L73.2604 -2.63558L63.259 -6.80504L58.5671 -8.77364L56.2396 -3.27952L54.6668 0.47304L46.7027 -2.79922L41.5621 -4.93146L36.3951 -7.03201L31.2546 -9.14312L28.489 -10.2726L25.7446 -11.3967L35.0441 -27.647L41.8999 -24.4909L63.1113 -14.9223L89.5952 -2.97865L90.561 -5.30616L95.6013 -2.98921L98.4196 -2.07617L101.064 -1.18947L103.914 -0.276427L106.447 0.557438L109.112 1.43357L111.804 2.30441L126.682 7.18107L127.495 7.48716L124.914 15.5516L117.42 13.1186Z" fill="#9C9C9C"/>
</g>
<mask id="mask17_64_24689" style="mask-type:luminance" maskUnits="userSpaceOnUse" x="-813" y="-292" width="1520" height="855">
<path d="M707 -292H-813V563H707V-292Z" fill="white"/>
</mask>
<g mask="url(#mask17_64_24689)">
<path opacity="0.07" d="M282.35 107.306L291.085 88.5065L302.601 63.4688L314.059 68.9629L314.988 67.084L322.873 71.0159L319.268 78.6001L313.568 90.4012L303.572 111.159L298.875 120.923L282.35 107.306Z" fill="#9C9C9C"/>
</g>
<mask id="mask18_64_24689" style="mask-type:luminance" maskUnits="userSpaceOnUse" x="-813" y="-292" width="1520" height="855">
<path d="M707 -292H-813V563H707V-292Z" fill="white"/>
</mask>
<g mask="url(#mask18_64_24689)">
<path opacity="0.07" d="M66.7317 89.715L53.2523 85.4664L48.6553 84.0044L50.9247 76.1036L53.1309 68.2714L57.4586 69.7439L67.0008 72.7734L75.1708 75.1906L78.3692 63.9331L89.7586 66.9836L86.9244 75.9453L84.3067 84.3264L81.1242 94.977L66.7317 89.715Z" fill="#9C9C9C"/>
</g>
<mask id="mask19_64_24689" style="mask-type:luminance" maskUnits="userSpaceOnUse" x="-813" y="-292" width="1520" height="855">
<path d="M707 -292H-813V563H707V-292Z" fill="white"/>
</mask>
<g mask="url(#mask19_64_24689)">
<path opacity="0.07" d="M53.2681 217.305L59.1265 201.662L61.7284 194.811L65.3067 185.586L80.1689 191.349L79.6517 192.758L73.9833 207.478L68.162 222.34L53.2681 217.305Z" fill="#9C9C9C"/>
</g>
<mask id="mask20_64_24689" style="mask-type:luminance" maskUnits="userSpaceOnUse" x="-813" y="-292" width="1520" height="855">
<path d="M707 -292H-813V563H707V-292Z" fill="white"/>
</mask>
<g mask="url(#mask20_64_24689)">
<path opacity="0.07" d="M112.553 298.794L111.64 300.906L103.977 298.224L97.8231 295.997L96.5723 299.924L89.6848 297.771L91.532 292.176L72.1626 286.534L72.0148 286.761L68.9378 285.843L68.7109 286.74L67.2965 286.334L67.5023 285.468L57.4006 282.703L40.8759 277.9L18.5298 271.524L25.7445 247.041L26.4992 244.502L72.8645 258.288L83.7631 261.591L94.7303 264.895L96.9153 257.797L103.502 259.786L104.99 254.91L105.539 256.292L118.871 260.768L129.163 264.193L122.613 281.204L98.3193 273.282L95.1578 285.273L117.794 292.593L119.668 293.205L118.575 296.673L125.69 299.94L124.597 303.096L112.553 298.794Z" fill="#9C9C9C"/>
</g>
<mask id="mask21_64_24689" style="mask-type:luminance" maskUnits="userSpaceOnUse" x="-813" y="-292" width="1520" height="855">
<path d="M707 -292H-813V563H707V-292Z" fill="white"/>
</mask>
<g mask="url(#mask21_64_24689)">
<path opacity="0.07" d="M31.7347 78.6111L32.0778 77.2811L20.7622 74.1567L22.7361 59.2575L23 57.4208L25.433 41.0439L56.7989 45.4772L57.4533 45.7728L58.7147 46.2214L59.9022 46.6753L62.008 47.2242L56.6195 63.8861L52.1439 62.3661L45.8844 60.3869L40.1686 81.2447L31.7347 78.6111Z" fill="#9C9C9C"/>
</g>
<mask id="mask22_64_24689" style="mask-type:luminance" maskUnits="userSpaceOnUse" x="-813" y="-292" width="1520" height="855">
<path d="M707 -292H-813V563H707V-292Z" fill="white"/>
</mask>
<g mask="url(#mask22_64_24689)">
<path opacity="0.07" d="M49.2942 136.387L39.8364 133.136L33.6561 130.993L17.9969 126.211L14.7036 125.166L17.5219 110.536L24.5889 112.916L43.6786 119.308L53.3159 122.601L70.59 128.818L66.4733 142.176L49.2942 136.387Z" fill="#9C9C9C"/>
</g>
<mask id="mask23_64_24689" style="mask-type:luminance" maskUnits="userSpaceOnUse" x="-813" y="-292" width="1520" height="855">
<path d="M707 -292H-813V563H707V-292Z" fill="white"/>
</mask>
<g mask="url(#mask23_64_24689)">
<path opacity="0.07" d="M138.456 54.08L127.199 50.755L115.883 47.1714L104.457 43.4347L104.71 42.5322L105.676 39.0805L106.858 34.9111L117.139 38.0461L129.986 41.978L142.964 45.9206L153.371 49.0977L151.07 56.3019L138.456 54.08Z" fill="#9C9C9C"/>
</g>
<mask id="mask24_64_24689" style="mask-type:luminance" maskUnits="userSpaceOnUse" x="-813" y="-292" width="1520" height="855">
<path d="M707 -292H-813V563H707V-292Z" fill="white"/>
</mask>
<g mask="url(#mask24_64_24689)">
<path opacity="0.07" d="M190.157 115.175L179.338 110.488L178.388 110.071L172.34 107.48L156.644 99.7165L161.272 78.0143L162.861 72.594L179.755 79.1173L182.769 70.9051L185.376 63.9648L191.319 66.7937L201.331 71.6018L194.58 88.744L183.449 84.316L181.597 83.5612L177.021 81.7721L175.638 86.3426L172.588 96.4971L171.184 101.242L175.243 102.714L179.507 104.345L181.111 99.4737L183.159 93.1826L191.387 96.439L188.067 104.883L191.429 106.372L194.981 107.923L198.412 99.5371L203.278 101.595L197.472 116.463L190.157 115.175Z" fill="#9C9C9C"/>
</g>
<mask id="mask25_64_24689" style="mask-type:luminance" maskUnits="userSpaceOnUse" x="-813" y="-292" width="1520" height="855">
<path d="M707 -292H-813V563H707V-292Z" fill="white"/>
</mask>
<g mask="url(#mask25_64_24689)">
<path opacity="0.07" d="M359.453 175.595L357.368 172.698L355.289 169.8L351.484 164.628L348.185 159.947L357.812 149.307L365.153 141.221L381.171 155.904L385.562 153.518L386.486 155.06L393.115 166.19L393.975 167.626L388.175 171.083L380.036 175.944L372.568 180.968L370.974 182.024L367.576 184.314L366.325 185.148L359.453 175.595Z" fill="#9C9C9C"/>
</g>
<mask id="mask26_64_24689" style="mask-type:luminance" maskUnits="userSpaceOnUse" x="-813" y="-292" width="1520" height="855">
<path d="M707 -292H-813V563H707V-292Z" fill="white"/>
</mask>
<g mask="url(#mask26_64_24689)">
<path opacity="0.07" d="M251.026 62.8459L245.11 60.1701L248.166 52.5331L251.095 45.2182L253.364 39.5657L255.549 34.1401L258.088 27.8385L259.349 24.7246L264.917 10.9126L266.97 11.5301L275.061 13.9368L277.785 14.7179L280.434 15.5201L284.213 16.7182L288.002 17.9109L291.786 19.1354L295.581 20.344L298.083 21.1093L304.976 23.2468L295.734 47.9679L273.99 39.4654L274.343 38.299L263.366 34.0293L254.261 56.3595L259.423 58.3334L256.679 65.4162L251.026 62.8459Z" fill="#9C9C9C"/>
</g>
<mask id="mask27_64_24689" style="mask-type:luminance" maskUnits="userSpaceOnUse" x="-813" y="-292" width="1520" height="855">
<path d="M707 -292H-813V563H707V-292Z" fill="white"/>
</mask>
<g mask="url(#mask27_64_24689)">
<path opacity="0.07" d="M315.035 326.212L310.048 319.103L303.044 309.265L296.442 298.836L292.589 292.688L298.827 288.096L306.417 282.581L317.162 275.809L330.979 267.418L342.374 260.483L342.823 260.171L343.356 259.839L356.434 251.922L370.864 243.129L376.115 253.078L377.012 252.598L378.458 255.384L380.158 259.132L381.023 261L379.947 261.644L386.185 275.794L388.27 283.003L390.154 289.611L391.811 295.627L393.284 301.676L394.133 304.89L391.399 305.814L388.333 306.917L382.237 309.065L355.97 318.364L326.916 329.374L319.4 332.097L315.035 326.212Z" fill="#9C9C9C"/>
</g>
<mask id="mask28_64_24689" style="mask-type:luminance" maskUnits="userSpaceOnUse" x="-813" y="-292" width="1520" height="855">
<path d="M707 -292H-813V563H707V-292Z" fill="white"/>
</mask>
<g mask="url(#mask28_64_24689)">
<path opacity="0.07" d="M-8.19156 57.1937L-22.3518 53.9953L-23.2227 53.8053L-21.4862 45.5878L-19.7605 39.0909L-17.9924 32.5148L-16.826 28.1289L-0.718206 31.1848L1.11845 58.2492L-8.19156 57.1937Z" fill="#9C9C9C"/>
</g>
<mask id="mask29_64_24689" style="mask-type:luminance" maskUnits="userSpaceOnUse" x="-813" y="-292" width="1520" height="855">
<path d="M707 -292H-813V563H707V-292Z" fill="white"/>
</mask>
<g mask="url(#mask29_64_24689)">
<path opacity="0.07" d="M126.333 306.13L128.835 298.921L133.796 300.995L130.693 308.062L126.333 306.13Z" fill="#9C9C9C"/>
</g>
<mask id="mask30_64_24689" style="mask-type:luminance" maskUnits="userSpaceOnUse" x="-813" y="-292" width="1520" height="855">
<path d="M707 -292H-813V563H707V-292Z" fill="white"/>
</mask>
<g mask="url(#mask30_64_24689)">
<path opacity="0.07" d="M101.655 245.061L99.818 249.706L92.978 247.014L95.1947 241.156L102.705 223.639L112.189 226.093L114.585 221.201L120.85 209.399L132.984 214.777L142.362 219.079L134.071 231.661L125.832 244.433L119.995 253.142L101.655 245.061Z" fill="#9C9C9C"/>
</g>
<mask id="mask31_64_24689" style="mask-type:luminance" maskUnits="userSpaceOnUse" x="-813" y="-292" width="1520" height="855">
<path d="M707 -292H-813V563H707V-292Z" fill="white"/>
</mask>
<g mask="url(#mask31_64_24689)">
<path opacity="0.07" d="M97.8916 475.7L98.8152 474.819L105.819 482.772L105.043 483.522L97.8916 475.7Z" fill="#9C9C9C"/>
</g>
<mask id="mask32_64_24689" style="mask-type:luminance" maskUnits="userSpaceOnUse" x="-813" y="-292" width="1520" height="855">
<path d="M707 -292H-813V563H707V-292Z" fill="white"/>
</mask>
<g mask="url(#mask32_64_24689)">
<path opacity="0.07" d="M56.271 511.441L59.786 507.742L66.8054 514.112L63.3485 517.954L59.8071 514.708L56.271 511.441Z" fill="#9C9C9C"/>
</g>
<mask id="mask33_64_24689" style="mask-type:luminance" maskUnits="userSpaceOnUse" x="-813" y="-292" width="1520" height="855">
<path d="M707 -292H-813V563H707V-292Z" fill="white"/>
</mask>
<g mask="url(#mask33_64_24689)">
<path opacity="0.07" d="M158.924 514.107L151.667 506.681L164.74 495.867L165.959 497.234L171.812 503.731L172.91 504.955L160.301 515.516L158.924 514.107Z" fill="#9C9C9C"/>
</g>
<mask id="mask34_64_24689" style="mask-type:luminance" maskUnits="userSpaceOnUse" x="-813" y="-292" width="1520" height="855">
<path d="M707 -292H-813V563H707V-292Z" fill="white"/>
</mask>
<g mask="url(#mask34_64_24689)">
<path opacity="0.07" d="M-8.37092 114.975L-9.05178 114.727L-7.88013 109.538L-13.6646 107.929L-11.981 102.387L-10.2868 102.941L-8.43426 96.249L0.411305 98.8034L0.284643 99.4315L-0.116473 101.421L-2.25928 112.051L-3.22509 116.864L-8.37092 114.975Z" fill="#9C9C9C"/>
</g>
<mask id="mask35_64_24689" style="mask-type:luminance" maskUnits="userSpaceOnUse" x="-813" y="-292" width="1520" height="855">
<path d="M707 -292H-813V563H707V-292Z" fill="white"/>
</mask>
<g mask="url(#mask35_64_24689)">
<path opacity="0.07" d="M188.659 500.453L189.155 500.089L190.59 502.063L196.913 496.59L197.24 497.054L190.448 502.596L188.659 500.453Z" fill="#9C9C9C"/>
</g>
<mask id="mask36_64_24689" style="mask-type:luminance" maskUnits="userSpaceOnUse" x="-813" y="-292" width="1520" height="855">
<path d="M707 -292H-813V563H707V-292Z" fill="white"/>
</mask>
<g mask="url(#mask36_64_24689)">
<path opacity="0.07" d="M159.663 471.726L160.993 470.702L162.307 469.699L169.347 479.526L167.928 480.651L166.798 481.511L159.663 471.726Z" fill="#9C9C9C"/>
</g>
<mask id="mask37_64_24689" style="mask-type:luminance" maskUnits="userSpaceOnUse" x="-813" y="-292" width="1520" height="855">
<path d="M707 -292H-813V563H707V-292Z" fill="white"/>
</mask>
<g mask="url(#mask37_64_24689)">
<path opacity="0.07" d="M91.1094 559.759L92.0541 558.693L92.698 557.97L97.5535 563.38L102.414 568.769L101.76 569.418L100.884 570.009L91.1094 559.759Z" fill="#9C9C9C"/>
</g>
<mask id="mask38_64_24689" style="mask-type:luminance" maskUnits="userSpaceOnUse" x="-813" y="-292" width="1520" height="855">
<path d="M707 -292H-813V563H707V-292Z" fill="white"/>
</mask>
<g mask="url(#mask38_64_24689)">
<path opacity="0.07" d="M19.6012 550.296L6.00036 538.812L0.801758 533.946L7.53621 524.567L11.8534 519.237L13.2362 517.648L18.5139 511.6L21.3904 514.55L26.2406 519.569L28.9112 522.324L34.247 527.85L40.517 534.357L40.0315 534.88L35.7881 539.461L23.1848 553.051L19.6012 550.296Z" fill="#9C9C9C"/>
</g>
<mask id="mask39_64_24689" style="mask-type:luminance" maskUnits="userSpaceOnUse" x="-813" y="-292" width="1520" height="855">
<path d="M707 -292H-813V563H707V-292Z" fill="white"/>
</mask>
<g mask="url(#mask39_64_24689)">
<path opacity="0.07" d="M71.7773 450.636L72.7221 449.565L82.3329 458.827L83.8951 460.305L82.9873 461.276L79.6201 458.083L71.7773 450.636Z" fill="#9C9C9C"/>
</g>
<mask id="mask40_64_24689" style="mask-type:luminance" maskUnits="userSpaceOnUse" x="-813" y="-292" width="1520" height="855">
<path d="M707 -292H-813V563H707V-292Z" fill="white"/>
</mask>
<g mask="url(#mask40_64_24689)">
<path opacity="0.07" d="M388.681 555.896L370.742 561.264L368.309 551.399L365.105 541.303L361.263 531.692L355.088 519.031L357.78 516.936L359.954 515.226L366.541 510.101L369.486 507.599L372.383 505.156L381.836 497.466L387.974 492.473L394.476 502.981L387.731 507.795L380.078 513.273L391.362 530.811L401.073 524.931L405.755 522.187L409.011 526.921L398.915 531.935L408.225 553.384L429.33 543.926L428.175 541.345L449.36 533.281L453.862 540.448L433.949 548.069L430.17 551.679L431.774 554.545L408.124 563.918L406.557 559.701L391.431 565.122L388.681 555.896Z" fill="#9C9C9C"/>
</g>
<mask id="mask41_64_24689" style="mask-type:luminance" maskUnits="userSpaceOnUse" x="-813" y="-292" width="1520" height="855">
<path d="M707 -292H-813V563H707V-292Z" fill="white"/>
</mask>
<g mask="url(#mask41_64_24689)">
<path opacity="0.07" d="M290.942 581.329L284.619 582.459L284.149 580.348L283.02 576.411L282.033 572.901L281.574 571.096L292.615 567.074L306.527 561.992L310.169 573.909L313.161 586.686L314.655 593.115L316.159 599.564L317.072 603.459L313.33 604.378L307.023 605.945L300.737 607.528L297.075 608.426L290.942 581.329Z" fill="#9C9C9C"/>
</g>
<mask id="mask42_64_24689" style="mask-type:luminance" maskUnits="userSpaceOnUse" x="-813" y="-292" width="1520" height="855">
<path d="M707 -292H-813V563H707V-292Z" fill="white"/>
</mask>
<g mask="url(#mask42_64_24689)">
<path opacity="0.07" d="M143.776 418.415L152.675 408.382L168.661 390.306L173.052 393.314L156.517 411.095L149.176 418.996L154.089 424.305L151.308 426.342L143.776 418.415Z" fill="#9C9C9C"/>
</g>
<mask id="mask43_64_24689" style="mask-type:luminance" maskUnits="userSpaceOnUse" x="-813" y="-292" width="1520" height="855">
<path d="M707 -292H-813V563H707V-292Z" fill="white"/>
</mask>
<g mask="url(#mask43_64_24689)">
<path opacity="0.07" d="M189.91 477.991L188.986 478.535L185.265 472.972L177.285 461.709L182.869 457.782L183.83 457.112L186.996 454.864L188.954 453.497L190.612 452.32L198.729 465.599L194.908 468.127L195.742 469.383L194.311 470.386L193.161 471.172L189.952 473.193L192.364 477.12L193.256 478.608L193.878 479.632L192.216 480.962L189.91 477.991Z" fill="#9C9C9C"/>
</g>
<mask id="mask44_64_24689" style="mask-type:luminance" maskUnits="userSpaceOnUse" x="-813" y="-292" width="1520" height="855">
<path d="M707 -292H-813V563H707V-292Z" fill="white"/>
</mask>
<g mask="url(#mask44_64_24689)">
<path opacity="0.07" d="M140.647 451.269L132.149 442.872L144.9 430.923L150.632 437.199L154.432 441.373L163.014 450.013L155.704 456.383L150.975 460.489L150.458 460.943L140.647 451.269Z" fill="#9C9C9C"/>
</g>
<mask id="mask45_64_24689" style="mask-type:luminance" maskUnits="userSpaceOnUse" x="-813" y="-292" width="1520" height="855">
<path d="M707 -292H-813V563H707V-292Z" fill="white"/>
</mask>
<g mask="url(#mask45_64_24689)">
<path opacity="0.07" d="M22.488 478.107L19.8702 475.858L14.5872 471.341L11.2886 468.554L19.1102 459.196L22.5249 454.626L26.1824 457.513L30.4733 460.875L36.7644 465.847L40.4536 461.376L42.8286 458.51L43.3669 458.98L48.5813 463.493L49.6686 464.474L48.3755 466.126L41.5566 460.368L35.788 468.01L33.8774 466.153L23.0685 478.619L22.488 478.107Z" fill="#9C9C9C"/>
</g>
<mask id="mask46_64_24689" style="mask-type:luminance" maskUnits="userSpaceOnUse" x="-813" y="-292" width="1520" height="855">
<path d="M707 -292H-813V563H707V-292Z" fill="white"/>
</mask>
<g mask="url(#mask46_64_24689)">
<path opacity="0.07" d="M99.7862 473.864L95.6854 469.874L86.7026 461.192L94.234 453.323L101.085 460.221L103.259 462.416L108.785 468.032L111.783 471.088L112.923 472.254L109.191 475.854L107.597 477.373L105.159 479.738L99.7862 473.864Z" fill="#9C9C9C"/>
</g>
<mask id="mask47_64_24689" style="mask-type:luminance" maskUnits="userSpaceOnUse" x="-813" y="-292" width="1520" height="855">
<path d="M707 -292H-813V563H707V-292Z" fill="white"/>
</mask>
<g mask="url(#mask47_64_24689)">
<path opacity="0.07" d="M154.971 430.206L159.599 426.807L186.595 406.926L190.765 411.38L176.478 422.3L180.668 427.931L179.665 428.707L175.269 423.44L159.182 434.655L154.971 430.206Z" fill="#9C9C9C"/>
</g>
<mask id="mask48_64_24689" style="mask-type:luminance" maskUnits="userSpaceOnUse" x="-813" y="-292" width="1520" height="855">
<path d="M707 -292H-813V563H707V-292Z" fill="white"/>
</mask>
<g mask="url(#mask48_64_24689)">
<path opacity="0.07" d="M266.675 70.0081L261.487 67.6173L265.287 57.8164L271.198 44.0361L293.824 52.887L288.657 65.7014L283.49 77.74L266.675 70.0081Z" fill="#9C9C9C"/>
</g>
<mask id="mask49_64_24689" style="mask-type:luminance" maskUnits="userSpaceOnUse" x="-813" y="-292" width="1520" height="855">
<path d="M707 -292H-813V563H707V-292Z" fill="white"/>
</mask>
<g mask="url(#mask49_64_24689)">
<path opacity="0.07" d="M69.9087 425.572L72.3576 421.012L72.7007 421.175L72.2731 422.109L70.5262 425.952L69.9087 425.572Z" fill="#9C9C9C"/>
</g>
<mask id="mask50_64_24689" style="mask-type:luminance" maskUnits="userSpaceOnUse" x="-813" y="-292" width="1520" height="855">
<path d="M707 -292H-813V563H707V-292Z" fill="white"/>
</mask>
<g mask="url(#mask50_64_24689)">
<path opacity="0.07" d="M92.7563 412.551L95.0575 407.469L98.298 400.354L101.539 393.219L108.4 378.135L112.442 370.889L129.616 374.113L119.251 402.835L117.583 405.046L108.046 417.798L105.697 420.927L92.7563 412.551Z" fill="#9C9C9C"/>
</g>
<mask id="mask51_64_24689" style="mask-type:luminance" maskUnits="userSpaceOnUse" x="-813" y="-292" width="1520" height="855">
<path d="M707 -292H-813V563H707V-292Z" fill="white"/>
</mask>
<g mask="url(#mask51_64_24689)">
<path opacity="0.07" d="M218.383 496.289L217.312 494.304L222.199 491.201L224.743 495.043L219.982 498.574L218.383 496.289Z" fill="#9C9C9C"/>
</g>
<mask id="mask52_64_24689" style="mask-type:luminance" maskUnits="userSpaceOnUse" x="-813" y="-292" width="1520" height="855">
<path d="M707 -292H-813V563H707V-292Z" fill="white"/>
</mask>
<g mask="url(#mask52_64_24689)">
<path opacity="0.07" d="M55.3685 115.766L18.6826 102.999L19.8701 83.7251L61.6807 96.5818L78.6804 102.72L76.7804 108.953L72.7059 121.836L55.3685 115.766Z" fill="#9C9C9C"/>
</g>
<mask id="mask53_64_24689" style="mask-type:luminance" maskUnits="userSpaceOnUse" x="-813" y="-292" width="1520" height="855">
<path d="M707 -292H-813V563H707V-292Z" fill="white"/>
</mask>
<g mask="url(#mask53_64_24689)">
<path opacity="0.07" d="M174.752 65.0941L174.25 66.3977L166.17 63.4844L167.416 60.1541L158.913 57.9374L160.401 53.4883L171.606 57.8055L176.113 59.5524L180.599 61.6688L178.752 66.5983L174.752 65.0941Z" fill="#9C9C9C"/>
</g>
<mask id="mask54_64_24689" style="mask-type:luminance" maskUnits="userSpaceOnUse" x="-813" y="-292" width="1520" height="855">
<path d="M707 -292H-813V563H707V-292Z" fill="white"/>
</mask>
<g mask="url(#mask54_64_24689)">
<path opacity="0.07" d="M320.524 133.394L309.093 122.549L313.267 114.104L318.302 103.897L320.361 99.7591L326.541 87.3194L328.605 83.1499L332.072 85.5143L330.684 88.1691L339.319 93.1408L329.671 112.515L338.569 118.12L324.752 137.395L320.524 133.394Z" fill="#9C9C9C"/>
</g>
<mask id="mask55_64_24689" style="mask-type:luminance" maskUnits="userSpaceOnUse" x="-813" y="-292" width="1520" height="855">
<path d="M707 -292H-813V563H707V-292Z" fill="white"/>
</mask>
<g mask="url(#mask55_64_24689)">
<path opacity="0.07" d="M-26.2737 629.389L-49.3218 607.623L-42.5451 598.646L-38.7187 592.988L-32.8023 582.602L-31.789 579.989L-30.8073 577.371L-28.1315 569.528L-22.9909 572.046L-18.7845 574.11L-12.884 577.039L-4.03842 558.799L-2.06982 554.735L14.7188 564.172L17.6955 566.404L36.0252 580.918L30.8741 586.607L26.8524 591.173L18.0491 601.602L1.29212 591.98L-2.0751 590.196L-20.6476 580.665L-22.6162 585.515L-24.6376 590.175L2.30019 601.897L2.8491 602.15L11.5152 608.193L5.6727 613.63L-19.4389 635.358L-26.2737 629.389Z" fill="#9C9C9C"/>
</g>
<mask id="mask56_64_24689" style="mask-type:luminance" maskUnits="userSpaceOnUse" x="-813" y="-292" width="1520" height="855">
<path d="M707 -292H-813V563H707V-292Z" fill="white"/>
</mask>
<g mask="url(#mask56_64_24689)">
<path opacity="0.07" d="M319.458 101.575L326.541 87.3194L328.604 83.1499L332.072 85.5143L330.684 88.1691L339.318 93.1408L331.924 107.987L319.458 101.575Z" fill="#9C9C9C"/>
</g>
<mask id="mask57_64_24689" style="mask-type:luminance" maskUnits="userSpaceOnUse" x="-813" y="-292" width="1520" height="855">
<path d="M707 -292H-813V563H707V-292Z" fill="white"/>
</mask>
<g mask="url(#mask57_64_24689)">
<path opacity="0.07" d="M-25.0596 85.9626L-24.2099 82.9701L-6.0807 87.5829L-5.07263 82.0676L-4.42876 82.2312L1.89929 83.8304L2.4904 78.2993L2.49568 78.9537V82.1204L2.02595 90.966L1.47183 93.6207L-25.0596 85.9626ZM-4.75069 71.1163L-10.0496 69.8601L-20.716 67.3532L-23.3021 66.741L-21.1329 59.6846L-9.07323 62.4026L1.50346 63.606L2.22123 72.7418L-4.75069 71.1163Z" fill="#9C9C9C"/>
</g>
<mask id="mask58_64_24689" style="mask-type:luminance" maskUnits="userSpaceOnUse" x="-813" y="-292" width="1520" height="855">
<path d="M707 -292H-813V563H707V-292Z" fill="white"/>
</mask>
<g mask="url(#mask58_64_24689)">
<path opacity="0.07" d="M309.52 84.0416L312.407 78.3311L318.112 80.9911L314.893 87.6569L309.52 84.0416Z" fill="#9C9C9C"/>
</g>
<mask id="mask59_64_24689" style="mask-type:luminance" maskUnits="userSpaceOnUse" x="-813" y="-292" width="1520" height="855">
<path d="M707 -292H-813V563H707V-292Z" fill="white"/>
</mask>
<g mask="url(#mask59_64_24689)">
<path opacity="0.07" d="M144.632 353.646L141.196 352.1L130.334 347.07L132.994 342.5L136.002 337.027L144.621 323.848L149.06 317.103L153.097 311.73L156.227 307.503L158.628 304.669L161.278 301.359L161.521 301.037L171.923 289.59L168.287 286.597L161.236 282.718L165.542 272.036L160.048 267.94L164.112 262.789L164.872 263.47L184.479 240.897L188.585 236.316L170.366 224.805L169.4 224.093L166.249 222.15L156.681 237.029L153.63 241.673L150.749 246.149L159.135 251.558L149.983 262.747L147.608 265.507L140.7 261.412L128.461 254.26L131.163 249.975L134.609 244.766L139.217 237.973L144.062 230.584L154.047 215.332L146.315 211.505L139.048 208.185L130.688 204.539L124.961 202.084L128.73 194.996L133.696 185.702L139.956 188.515L156.797 196.094L164.429 199.773L180.014 207.341L184.711 209.769L193.578 214.471L222.025 230.12L222.928 229.085L230.612 237.065L240.006 246.866L247.606 254.767L246.799 255.617L227.815 273.883L219.845 281.251L212.066 274.97L198.507 264.241L206.197 254.92L208.472 252.524L216.985 244.006L209.717 237.445L199.547 248.777L189.509 260.451L170.197 282.95L196.882 304.616L180.447 322.692L171.971 331.965L166.656 337.924L156.026 349.836L154.068 352.11L150.495 356.322L144.632 353.646Z" fill="#9C9C9C"/>
</g>
<mask id="mask60_64_24689" style="mask-type:luminance" maskUnits="userSpaceOnUse" x="-813" y="-292" width="1520" height="855">
<path d="M707 -292H-813V563H707V-292Z" fill="white"/>
</mask>
<g mask="url(#mask60_64_24689)">
<path opacity="0.07" d="M341.973 431.24L338.943 426.875L336.975 424.089L319.104 398.217L307.609 381.55L294.42 362.465L318.18 342.747L350.998 330.012L360.651 357.066L342.886 364.545L350.438 375.86L341.297 381.244L342.986 383.671L338.933 387.113L344.247 395.145L348.559 391.715L355.637 402.233L338.838 418.473L343.181 422.827L348.929 428.48L359.759 414.383L362.102 411.844L365.76 417.085L348.111 439.494L341.973 431.24Z" fill="#9C9C9C"/>
</g>
<mask id="mask61_64_24689" style="mask-type:luminance" maskUnits="userSpaceOnUse" x="-813" y="-292" width="1520" height="855">
<path d="M707 -292H-813V563H707V-292Z" fill="white"/>
</mask>
<g mask="url(#mask61_64_24689)">
<path opacity="0.07" d="M201.273 564.974L190.247 548.93L187.229 545.61L184.347 542.422L181.449 539.224L178.578 536.01L175.665 532.806L172.783 529.618L171.738 528.462L176.077 524.868L182.547 519.532L186.273 516.429L186.833 515.975L191.815 522.847L193.493 525.132L198.549 532.099L207.659 545.736L217.053 559.844L213.369 562.103L203.484 568.215L201.273 564.974Z" fill="#9C9C9C"/>
</g>
<mask id="mask62_64_24689" style="mask-type:luminance" maskUnits="userSpaceOnUse" x="-813" y="-292" width="1520" height="855">
<path d="M707 -292H-813V563H707V-292Z" fill="white"/>
</mask>
<g mask="url(#mask62_64_24689)">
<path opacity="0.07" d="M5.5359 463.73L1.76756 460.621L-5.71629 454.378L-13.2213 448.155L-16.5305 445.374L-19.8396 442.555L-21.291 441.336L-16.6096 434.95L13.252 457.972L7.25118 465.16L5.5359 463.73Z" fill="#9C9C9C"/>
</g>
<mask id="mask63_64_24689" style="mask-type:luminance" maskUnits="userSpaceOnUse" x="-813" y="-292" width="1520" height="855">
<path d="M707 -292H-813V563H707V-292Z" fill="white"/>
</mask>
<g mask="url(#mask63_64_24689)">
<path opacity="0.07" d="M60.9364 486.372L58.9151 488.436L46.2959 477.226L50.8295 471.557L53.6056 468.005L56.5401 470.623L60.9787 464.981L69.1856 454.61L74.912 459.498L73.6137 461.123L70.7215 464.77L66.1298 470.523L63.1109 474.302L70.732 481.738L72.8009 483.728L65.9081 490.863L60.9364 486.372Z" fill="#9C9C9C"/>
</g>
<mask id="mask64_64_24689" style="mask-type:luminance" maskUnits="userSpaceOnUse" x="-813" y="-292" width="1520" height="855">
<path d="M707 -292H-813V563H707V-292Z" fill="white"/>
</mask>
<g mask="url(#mask64_64_24689)">
<path opacity="0.07" d="M95.4636 600.968L92.3866 593.912L89.2675 587.03L86.1958 580.179L82.9658 573.028L85.5941 570.025L93.0939 561.501L94.0334 560.435L94.6667 559.728L99.8706 553.78L101.834 552.033L103.919 550.143L108.056 546.438L110.284 544.501L112.669 547.51L116.791 552.677L117.113 553.083L112.337 556.445L115.034 560.234L109.181 564.457L106.711 560.847L102.525 564.979L100.572 566.879L100.082 567.37L99.4114 567.819L96.1286 570.051L99.9603 574.859L102.05 577.424L104.072 579.979L106.167 582.549L108.209 585.109L116.232 595.194L106.721 600.33L97.3795 605.381L95.4636 600.968Z" fill="#9C9C9C"/>
</g>
<mask id="mask65_64_24689" style="mask-type:luminance" maskUnits="userSpaceOnUse" x="-813" y="-292" width="1520" height="855">
<path d="M707 -292H-813V563H707V-292Z" fill="white"/>
</mask>
<g mask="url(#mask65_64_24689)">
<path opacity="0.07" d="M368.235 74.383L348.86 60.1172L341.831 56.3541L344.031 51.7572L347.298 44.8961L350.449 38.0139L350.956 36.9214L359.31 40.41L370.294 46.9544L367.116 52.2639L380.353 61.843L370.162 75.8291L368.235 74.383Z" fill="#9C9C9C"/>
</g>
<mask id="mask66_64_24689" style="mask-type:luminance" maskUnits="userSpaceOnUse" x="-813" y="-292" width="1520" height="855">
<path d="M707 -292H-813V563H707V-292Z" fill="white"/>
</mask>
<g mask="url(#mask66_64_24689)">
<path opacity="0.07" d="M-15.6914 490.757L-20.5522 487.543L-18.3145 484.482L-8.28141 470.728L-6.87222 468.802L-6.16502 469.335L0.310823 474.285L-1.11415 476.228L-10.7092 489.364L-13.005 492.525L-15.6914 490.757Z" fill="#9C9C9C"/>
</g>
<mask id="mask67_64_24689" style="mask-type:luminance" maskUnits="userSpaceOnUse" x="-813" y="-292" width="1520" height="855">
<path d="M707 -292H-813V563H707V-292Z" fill="white"/>
</mask>
<g mask="url(#mask67_64_24689)">
<path opacity="0.07" d="M-5.62135 497.603L-8.25496 495.782L-8.64551 495.502L-6.44465 492.478L3.14503 479.347L4.41171 477.616L7.44643 480.218L10.7345 483.057L-2.4494 499.83L-5.62135 497.603Z" fill="#9C9C9C"/>
</g>
<mask id="mask68_64_24689" style="mask-type:luminance" maskUnits="userSpaceOnUse" x="-813" y="-292" width="1520" height="855">
<path d="M707 -292H-813V563H707V-292Z" fill="white"/>
</mask>
<g mask="url(#mask68_64_24689)">
<path opacity="0.07" d="M71.5977 381.977L70.3732 384.553L63.8393 381.618L62.5199 384.521L57.3213 382.563L60.794 374.071L68.0194 375.327L91.8749 379.439L88.4866 387.197L71.5977 381.977Z" fill="#9C9C9C"/>
</g>
<mask id="mask69_64_24689" style="mask-type:luminance" maskUnits="userSpaceOnUse" x="-813" y="-292" width="1520" height="855">
<path d="M707 -292H-813V563H707V-292Z" fill="white"/>
</mask>
<g mask="url(#mask69_64_24689)">
<path opacity="0.07" d="M117.404 428.606L112.917 426.02L114.971 421.798L122.703 411.311L123.61 410.076L125.79 411.992L128.091 414.024L121.784 420.822L125.695 424.986L120.343 430.1L117.404 428.606Z" fill="#9C9C9C"/>
</g>
<mask id="mask70_64_24689" style="mask-type:luminance" maskUnits="userSpaceOnUse" x="-813" y="-292" width="1520" height="855">
<path d="M707 -292H-813V563H707V-292Z" fill="white"/>
</mask>
<g mask="url(#mask70_64_24689)">
<path opacity="0.07" d="M41.9575 536.685L44.1531 534.331L46.9397 537.244L52.55 543.018L50.7239 545.124L41.9575 536.685Z" fill="#9C9C9C"/>
</g>
<mask id="mask71_64_24689" style="mask-type:luminance" maskUnits="userSpaceOnUse" x="-813" y="-292" width="1520" height="855">
<path d="M707 -292H-813V563H707V-292Z" fill="white"/>
</mask>
<g mask="url(#mask71_64_24689)">
<path opacity="0.07" d="M42.6175 522.741L40.48 520.604L46.5864 513.98L47.7106 514.977L50.7822 517.669L52.8247 519.479L46.5019 526.636L42.6175 522.741Z" fill="#9C9C9C"/>
</g>
<mask id="mask72_64_24689" style="mask-type:luminance" maskUnits="userSpaceOnUse" x="-813" y="-292" width="1520" height="855">
<path d="M707 -292H-813V563H707V-292Z" fill="white"/>
</mask>
<g mask="url(#mask72_64_24689)">
<path opacity="0.07" d="M106.89 485.596L108.194 484.541L110.421 482.72L113.223 480.44L114.902 482.472L108.753 487.845L107.856 486.763L106.89 485.596Z" fill="#9C9C9C"/>
</g>
<mask id="mask73_64_24689" style="mask-type:luminance" maskUnits="userSpaceOnUse" x="-813" y="-292" width="1520" height="855">
<path d="M707 -292H-813V563H707V-292Z" fill="white"/>
</mask>
<g mask="url(#mask73_64_24689)">
<path opacity="0.07" d="M322.646 591.453L321.221 585.167L319.78 578.902L319.12 576.084L318.476 573.271L316.386 564.267L314.93 558.071L313.832 554.128L312.349 548.84L322.836 545.768L329.375 544.026L329.976 546.164L320.962 548.544L325.406 564.731L341.725 560.139L340.806 557.189L348.111 555.463L350.734 566.668L357.152 593.859L348.517 595.923L333.254 599.475L327.77 600.757L324.931 601.406L322.646 591.453Z" fill="#9C9C9C"/>
</g>
<mask id="mask74_64_24689" style="mask-type:luminance" maskUnits="userSpaceOnUse" x="-813" y="-292" width="1520" height="855">
<path d="M707 -292H-813V563H707V-292Z" fill="white"/>
</mask>
<g mask="url(#mask74_64_24689)">
<path opacity="0.07" d="M306.105 531.423L304.897 527.454L304.48 526.045L302.96 521.016L311.837 517.142L324.34 517.574L328.483 519.707L336.986 532.716L335.666 533.049L329.539 534.606L324.013 535.983L318.371 537.413L313.996 538.944L309.753 540.422L308.264 540.934L306.105 531.423Z" fill="#9C9C9C"/>
</g>
<mask id="mask75_64_24689" style="mask-type:luminance" maskUnits="userSpaceOnUse" x="-813" y="-292" width="1520" height="855">
<path d="M707 -292H-813V563H707V-292Z" fill="white"/>
</mask>
<g mask="url(#mask75_64_24689)">
<path opacity="0.07" d="M202.909 495.935L195.356 485.206L196.808 484.044L199.821 488.235L205.004 495.476L203.453 496.579L202.909 495.935Z" fill="#9C9C9C"/>
</g>
<mask id="mask76_64_24689" style="mask-type:luminance" maskUnits="userSpaceOnUse" x="-813" y="-292" width="1520" height="855">
<path d="M707 -292H-813V563H707V-292Z" fill="white"/>
</mask>
<g mask="url(#mask76_64_24689)">
<path opacity="0.07" d="M238.043 537.936L238.988 537.366L240.033 538.595L239.062 539.382L238.043 537.936Z" fill="#9C9C9C"/>
</g>
<mask id="mask77_64_24689" style="mask-type:luminance" maskUnits="userSpaceOnUse" x="-813" y="-292" width="1520" height="855">
<path d="M707 -292H-813V563H707V-292Z" fill="white"/>
</mask>
<g mask="url(#mask77_64_24689)">
<path opacity="0.07" d="M200.819 497.551L203.606 495.418L206.582 493.149L207.669 494.664L208.202 495.418L208.746 496.194L206.756 497.471L202.983 500.147L201.901 498.838L200.819 497.551Z" fill="#9C9C9C"/>
</g>
<mask id="mask78_64_24689" style="mask-type:luminance" maskUnits="userSpaceOnUse" x="-813" y="-292" width="1520" height="855">
<path d="M707 -292H-813V563H707V-292Z" fill="white"/>
</mask>
<g mask="url(#mask78_64_24689)">
<path opacity="0.07" d="M165.394 520.693L164.012 519.294L176.414 508.908L179.354 512.233L176.05 514.961L170.62 519.484L167.083 522.403L165.394 520.693Z" fill="#9C9C9C"/>
</g>
<mask id="mask79_64_24689" style="mask-type:luminance" maskUnits="userSpaceOnUse" x="-813" y="-292" width="1520" height="855">
<path d="M707 -292H-813V563H707V-292Z" fill="white"/>
</mask>
<g mask="url(#mask79_64_24689)">
<path opacity="0.07" d="M167.036 559.596L178.087 549.99L178.33 550.307L167.226 559.965L167.036 559.596Z" fill="#9C9C9C"/>
</g>
<mask id="mask80_64_24689" style="mask-type:luminance" maskUnits="userSpaceOnUse" x="-813" y="-292" width="1520" height="855">
<path d="M707 -292H-813V563H707V-292Z" fill="white"/>
</mask>
<g mask="url(#mask80_64_24689)">
<path opacity="0.07" d="M54.4923 534.927L51.4945 531.803L50.1909 530.431L56.7512 523.005L62.6834 528.441L55.5426 536.036L54.4923 534.927Z" fill="#9C9C9C"/>
</g>
<mask id="mask81_64_24689" style="mask-type:luminance" maskUnits="userSpaceOnUse" x="-813" y="-292" width="1520" height="855">
<path d="M707 -292H-813V563H707V-292Z" fill="white"/>
</mask>
<g mask="url(#mask81_64_24689)">
<path opacity="0.07" d="M201.695 200.38L200.08 199.398L198.138 198.021L188.606 192.933L186.495 191.729L186.221 191.503L179.006 187.333L191.219 167.04L196.702 157.962L202.186 148.188L208.224 137.696L211.031 132.713L224.268 135.806L231.551 137.601L225.962 147.576L221.154 156.426L220.758 156.205L216.578 163.942L214.726 166.987L212.831 169.906L207.384 178.255L196.671 196.094L200.492 198.591L204.35 201.235L216.494 182.288L220.621 175.711L224.653 169.325L229.192 161.245L232.897 154.294L236.819 147.185L237.146 147.391L241.859 139.274L242.012 138.962L254.246 144.108L249.897 150.325L241.938 161.783L238.497 166.744L233.04 174.598L228.728 180.72L224.601 186.731L220.394 192.79V193.102L211.707 206.016L201.695 200.38Z" fill="#9C9C9C"/>
</g>
<mask id="mask82_64_24689" style="mask-type:luminance" maskUnits="userSpaceOnUse" x="-813" y="-292" width="1520" height="855">
<path d="M707 -292H-813V563H707V-292Z" fill="white"/>
</mask>
<g mask="url(#mask82_64_24689)">
<path opacity="0.07" d="M94.878 39.6978L91.553 39.0961L70.2202 34.6522L72.5372 23.9014L100.05 29.1422L96.873 40.1147L94.878 39.6978Z" fill="#9C9C9C"/>
</g>
<mask id="mask83_64_24689" style="mask-type:luminance" maskUnits="userSpaceOnUse" x="-813" y="-292" width="1520" height="855">
<path d="M707 -292H-813V563H707V-292Z" fill="white"/>
</mask>
<g mask="url(#mask83_64_24689)">
<path opacity="0.07" d="M-2.44434 387.714L-0.238261 384.706L1.99429 381.671L3.3348 382.848L4.24263 383.618L3.42983 384.706L2.07341 386.521L-0.206564 389.593L-1.23042 388.754L-2.44434 387.714Z" fill="#9C9C9C"/>
</g>
<mask id="mask84_64_24689" style="mask-type:luminance" maskUnits="userSpaceOnUse" x="-813" y="-292" width="1520" height="855">
<path d="M707 -292H-813V563H707V-292Z" fill="white"/>
</mask>
<g mask="url(#mask84_64_24689)">
<path opacity="0.07" d="M112.944 480.138L118.755 475.325L120.744 477.848L114.902 482.471L113.224 480.439L112.944 480.138Z" fill="#9C9C9C"/>
</g>
<mask id="mask85_64_24689" style="mask-type:luminance" maskUnits="userSpaceOnUse" x="-813" y="-292" width="1520" height="855">
<path d="M707 -292H-813V563H707V-292Z" fill="white"/>
</mask>
<g mask="url(#mask85_64_24689)">
<path opacity="0.07" d="M36.6538 415.159L40.1161 409.723L42.5069 410.921L39.1186 416.784L36.6538 415.159Z" fill="#9C9C9C"/>
</g>
<mask id="mask86_64_24689" style="mask-type:luminance" maskUnits="userSpaceOnUse" x="-813" y="-292" width="1520" height="855">
<path d="M707 -292H-813V563H707V-292Z" fill="white"/>
</mask>
<g mask="url(#mask86_64_24689)">
<path opacity="0.07" d="M184.389 495.345L185.223 494.669L186.057 495.82L185.271 496.395L184.389 495.345Z" fill="#9C9C9C"/>
</g>
<mask id="mask87_64_24689" style="mask-type:luminance" maskUnits="userSpaceOnUse" x="-813" y="-292" width="1520" height="855">
<path d="M707 -292H-813V563H707V-292Z" fill="white"/>
</mask>
<g mask="url(#mask87_64_24689)">
<path opacity="0.07" d="M189.498 501.456L184.389 495.344L191.826 489.359L197.241 497.054L190.448 502.595L189.498 501.456Z" fill="#9C9C9C"/>
</g>
<mask id="mask88_64_24689" style="mask-type:luminance" maskUnits="userSpaceOnUse" x="-813" y="-292" width="1520" height="855">
<path d="M707 -292H-813V563H707V-292Z" fill="white"/>
</mask>
<g mask="url(#mask88_64_24689)">
<path opacity="0.07" d="M242.381 129.193L239.563 128.533L226.896 124.934L232.042 114.917L243.669 118.31L257.476 121.852L261.619 113.94L238.761 102.788L243.785 91.7524L265.071 102.329L271.372 105.438L266.67 119.086L265.973 121.419L264.39 123.224L256.536 132.391L242.381 129.193Z" fill="#9C9C9C"/>
</g>
<mask id="mask89_64_24689" style="mask-type:luminance" maskUnits="userSpaceOnUse" x="-813" y="-292" width="1520" height="855">
<path d="M707 -292H-813V563H707V-292Z" fill="white"/>
</mask>
<g mask="url(#mask89_64_24689)">
<path opacity="0.07" d="M177.132 485.68L169.854 475.758L166.313 478.566L165.204 479.405L160.539 483.026L155.958 477.88L161.267 473.821L162.602 472.797L173.031 464.833L179.57 474.064L177.813 475.579L185.45 486.979L188.622 484.931L188.727 485.073L181.143 491.18L177.132 485.68Z" fill="#9C9C9C"/>
</g>
<mask id="mask90_64_24689" style="mask-type:luminance" maskUnits="userSpaceOnUse" x="-813" y="-292" width="1520" height="855">
<path d="M707 -292H-813V563H707V-292Z" fill="white"/>
</mask>
<g mask="url(#mask90_64_24689)">
<path opacity="0.07" d="M-47.4534 530.536L-48.0498 530.209L-56.0298 525.216L-72.6548 514.671L-70.3431 511.272L-64.622 502.801L-60.6161 496.896L-51.2006 483.005L-48.472 478.988L-46.8464 480.096L-44.1811 476.339L-41.7375 472.95L-43.2945 471.583L-34.5123 459.497L-32.4065 456.616L-29.0287 451.971L-27.7039 452.979L-24.2365 455.613L-20.7636 458.241L-19.5392 459.181L-16.5414 461.445L-13.5964 463.683L-11.0789 465.609L-22.5792 481.374L-24.9437 484.609L-25.7406 484.076L-28.6381 482.16L-35.5573 477.114L-38.1434 480.54L-40.4339 484.108L-33.4092 488.863L-35.6629 492.172L-37.6315 495.096L-38.5709 496.479L-39.5895 495.798L-43.8223 502.078L-50.2611 511.473L-38.9667 519.078L-29.1026 524.952L-22.3945 516.028L-15.1323 506.185L-12.7573 503.028L-6.64031 507.836L1.6405 514.307L-2.51311 519.78L1.86219 523.422L-4.83006 532.737L-8.20257 537.35L-9.70144 537.772L-18.4045 540.194L-47.4534 530.536Z" fill="#9C9C9C"/>
</g>
<mask id="mask91_64_24689" style="mask-type:luminance" maskUnits="userSpaceOnUse" x="-813" y="-292" width="1520" height="855">
<path d="M707 -292H-813V563H707V-292Z" fill="white"/>
</mask>
<g mask="url(#mask91_64_24689)">
<path opacity="0.07" d="M1.98911 378.162L-0.750086 375.808L1.38216 373.222L-25.45 353.187L-42.2228 340.679L-47.7012 336.594L-44.3023 332.108L-41.7003 333.227L-37.3673 335.069L-34.4698 336.921L-33.1609 337.771L-19.9876 346.194L-3.03006 357.241L6.0055 363.405L10.518 366.482L12.6924 367.912L3.82577 379.766L1.98911 378.162Z" fill="#9C9C9C"/>
</g>
<mask id="mask92_64_24689" style="mask-type:luminance" maskUnits="userSpaceOnUse" x="-813" y="-292" width="1520" height="855">
<path d="M707 -292H-813V563H707V-292Z" fill="white"/>
</mask>
<g mask="url(#mask92_64_24689)">
<path opacity="0.07" d="M53.0622 357.341L40.29 353.81L30.5841 350.643L20.2186 346.875L8.45444 340.842L-7.21531 331.649L-14.5936 319.436L-16.8631 314.601L-17.0584 312.163L-18.6364 293.944L-20.5786 269.819L13.8852 278.602L31.1964 283.943L26.7789 300.488L9.92162 295.723L2.89693 293.754L4.50668 287.194L-10.7303 283.325L-12.4086 298.963L-4.14361 300.805L-5.56336 309.112L3.00774 310.923L11.1514 312.501L13.4683 305.006L21.7069 307.086L27.713 308.479L23.8075 322.587L27.275 323.674L35.5083 325.901L44.3275 328.313L47.2777 317.858L51.0988 318.919L51.8325 316.522L62.0555 319.378L60.4828 324.508L51.9381 322.106L49.8111 329.812L56.4875 331.617L54.4608 338.467L51.463 350.997L61.9183 352.665L62.8103 344.526L63.1111 343.122L63.5914 341.085L65.8661 332.361L66.8741 329.157L71.0436 316.522L76.8386 318.169L73.6139 332.984L86.6499 335.433L86.2066 337.607L95.2686 339.671L96.7306 330.461L98.5092 317.351L104.526 303.993L112.179 306.611L125.352 312.131L133.395 316.105L125.816 330.836L120.913 340.22L118.021 349.197L117.177 351.82L115.657 355.984L115.488 356.111L85.0877 356.275L58.472 357.488L53.0622 357.341Z" fill="#9C9C9C"/>
</g>
<mask id="mask93_64_24689" style="mask-type:luminance" maskUnits="userSpaceOnUse" x="-813" y="-292" width="1520" height="855">
<path d="M707 -292H-813V563H707V-292Z" fill="white"/>
</mask>
<g mask="url(#mask93_64_24689)">
<path opacity="0.07" d="M119.525 30.2452L109.17 27.0258L111.208 20.4761L113.82 21.2836L118.924 22.8933L124.07 24.4767L129.173 26.0864L131.807 26.8992L129.843 33.4595L119.525 30.2452Z" fill="#9C9C9C"/>
</g>
<mask id="mask94_64_24689" style="mask-type:luminance" maskUnits="userSpaceOnUse" x="-813" y="-292" width="1520" height="855">
<path d="M707 -292H-813V563H707V-292Z" fill="white"/>
</mask>
<g mask="url(#mask94_64_24689)">
<path opacity="0.07" d="M144.331 21.5684L140.932 20.5392L137.575 19.4889L130.793 17.3884L129.949 17.1351L134.039 4.34174L130.962 3.1648L133.812 -4.33496L149.524 1.19092L146.679 11.245L148.099 11.6673L145.154 21.827L144.331 21.5684Z" fill="#9C9C9C"/>
</g>
<mask id="mask95_64_24689" style="mask-type:luminance" maskUnits="userSpaceOnUse" x="-813" y="-292" width="1520" height="855">
<path d="M707 -292H-813V563H707V-292Z" fill="white"/>
</mask>
<g mask="url(#mask95_64_24689)">
<path opacity="0.07" d="M153.615 -2.96752L135.765 -9.23752L139.438 -18.062L147.392 -15.0484L158.238 -10.9212L163.621 -8.88395L164.972 -13.0745L170.277 -11.2906L169.786 -9.48562L167.917 -2.54005L166.788 1.67161L153.615 -2.96752Z" fill="#9C9C9C"/>
</g>
<mask id="mask96_64_24689" style="mask-type:luminance" maskUnits="userSpaceOnUse" x="-813" y="-292" width="1520" height="855">
<path d="M707 -292H-813V563H707V-292Z" fill="white"/>
</mask>
<g mask="url(#mask96_64_24689)">
<path opacity="0.07" d="M62.9419 33.1324L53.9169 31.2641L49.2408 30.3352L27.6494 26.4297L15.3047 24.0705L20.8252 -0.745605L29.9347 1.98303L41.7358 5.50326L53.9222 9.22412L65.4647 12.7761L66.5572 8.45881L69.708 9.64631L75.6613 11.8577L84.4489 15.1616L85.3144 11.0766L85.8844 11.2296L89.1777 12.1005L92.3497 12.9766L102.8 16.3966L103.565 16.6446L101.491 24.0494L68.4624 17.753L65.053 33.5705L62.9419 33.1324Z" fill="#9C9C9C"/>
</g>
<mask id="mask97_64_24689" style="mask-type:luminance" maskUnits="userSpaceOnUse" x="-813" y="-292" width="1520" height="855">
<path d="M707 -292H-813V563H707V-292Z" fill="white"/>
</mask>
<g mask="url(#mask97_64_24689)">
<path opacity="0.07" d="M217.286 68.6199L213.792 67.1579L210.351 65.6748L209.195 65.184L213.058 54.9346L225.735 60.2757L225.968 60.7982L226.147 61.1993L221.856 70.5726L217.286 68.6199Z" fill="#9C9C9C"/>
</g>
<mask id="mask98_64_24689" style="mask-type:luminance" maskUnits="userSpaceOnUse" x="-813" y="-292" width="1520" height="855">
<path d="M707 -292H-813V563H707V-292Z" fill="white"/>
</mask>
<g mask="url(#mask98_64_24689)">
<path opacity="0.07" d="M218.742 122.638L220.521 116.484L223.661 117.74L226.648 108.504L227.393 106.219L207.717 97.7374L200.386 94.6446L204.271 84.7805L208.055 75.1538L221.181 81.2285L226.253 83.5666L231.314 85.8835L236.344 88.2268L239.025 89.4671L232.908 102.904L232.227 102.514L228.327 110.599L221.714 123.472L218.742 122.638Z" fill="#9C9C9C"/>
</g>
<mask id="mask99_64_24689" style="mask-type:luminance" maskUnits="userSpaceOnUse" x="-813" y="-292" width="1520" height="855">
<path d="M707 -292H-813V563H707V-292Z" fill="white"/>
</mask>
<g mask="url(#mask99_64_24689)">
<path opacity="0.07" d="M241.885 80.1258L239.315 78.8381L236.713 77.5608L234.095 76.2308L226.669 72.7369L230.359 64.6777L237.526 67.8867L245.453 71.4175L250.974 73.8928L247.116 82.7383L241.885 80.1258Z" fill="#9C9C9C"/>
</g>
<mask id="mask100_64_24689" style="mask-type:luminance" maskUnits="userSpaceOnUse" x="-813" y="-292" width="1520" height="855">
<path d="M707 -292H-813V563H707V-292Z" fill="white"/>
</mask>
<g mask="url(#mask100_64_24689)">
<path opacity="0.07" d="M61.6333 65.5325L67.1274 48.5381L79.3191 51.6256L92.2391 56.212L93.0149 56.4812L92.2655 58.9036L91.3366 61.9384L74.7116 57.4892L73.4819 61.817L67.8188 60.392L65.9927 66.9153L61.6333 65.5325Z" fill="#9C9C9C"/>
</g>
<mask id="mask101_64_24689" style="mask-type:luminance" maskUnits="userSpaceOnUse" x="-813" y="-292" width="1520" height="855">
<path d="M707 -292H-813V563H707V-292Z" fill="white"/>
</mask>
<g mask="url(#mask101_64_24689)">
<path opacity="0.07" d="M128.392 280.882L133.96 266.42L151.941 277.071L150.389 281.135L150.922 286.37L148.368 290.598L128.392 280.882Z" fill="#9C9C9C"/>
</g>
<mask id="mask102_64_24689" style="mask-type:luminance" maskUnits="userSpaceOnUse" x="-813" y="-292" width="1520" height="855">
<path d="M707 -292H-813V563H707V-292Z" fill="white"/>
</mask>
<g mask="url(#mask102_64_24689)">
<path opacity="0.07" d="M62.9846 247.468L43.5571 241.657L48.8824 227.28L68.331 233.724L87.6952 239.91L82.676 253.31L62.9846 247.468Z" fill="#9C9C9C"/>
</g>
<mask id="mask103_64_24689" style="mask-type:luminance" maskUnits="userSpaceOnUse" x="-813" y="-292" width="1520" height="855">
<path d="M707 -292H-813V563H707V-292Z" fill="white"/>
</mask>
<g mask="url(#mask103_64_24689)">
<path opacity="0.07" d="M49.8741 305.84L46.4277 307.123L36.2627 304.12L41.9627 283.71L53.4419 287.046L51.2674 294.657L72.5527 300.9L74.9963 292.857L84.8024 295.712L83.8313 298.662L80.5907 308.236L80.158 309.487L66.156 305.434L64.7258 310.342L49.8741 305.84Z" fill="#9C9C9C"/>
</g>
<mask id="mask104_64_24689" style="mask-type:luminance" maskUnits="userSpaceOnUse" x="-813" y="-292" width="1520" height="855">
<path d="M707 -292H-813V563H707V-292Z" fill="white"/>
</mask>
<g mask="url(#mask104_64_24689)">
<path opacity="0.07" d="M210.799 44.9017L202.471 41.2864L194.148 37.6395L191.234 36.3886L188.326 35.1219L176.515 30.0342L169.833 27.1367L170.303 25.7064L172.789 18.2595L174.409 13.3828L189.836 19.03L195.831 21.1939L207.807 25.5797L213.813 27.7595L223.218 31.19L216.647 47.4614L210.799 44.9017Z" fill="#9C9C9C"/>
</g>
<mask id="mask105_64_24689" style="mask-type:luminance" maskUnits="userSpaceOnUse" x="-813" y="-292" width="1520" height="855">
<path d="M707 -292H-813V563H707V-292Z" fill="white"/>
</mask>
<g mask="url(#mask105_64_24689)">
<path opacity="0.07" d="M150.722 39.7402L138.467 36.0774L134.894 35.0008L136.852 28.4458L143.55 30.4777L148.162 31.8816L152.759 33.2908L157.953 34.8266L155.926 41.3711L150.722 39.7402Z" fill="#9C9C9C"/>
</g>
<mask id="mask106_64_24689" style="mask-type:luminance" maskUnits="userSpaceOnUse" x="-813" y="-292" width="1520" height="855">
<path d="M707 -292H-813V563H707V-292Z" fill="white"/>
</mask>
<g mask="url(#mask106_64_24689)">
<path opacity="0.07" d="M159.504 180.34L150.416 177.221L140.615 173.975L140.705 173.785L139.016 173.094L143.571 160.96L149.91 144.678L141.47 141.58L145.682 129.457L138.831 127.145L141.866 118.812L126.334 114.695L126.012 115.392L116.543 112.162L112.115 124.364L120.966 127.942L120.597 129.114L102.515 122.723L105.296 114.959L93.5956 110.705L93.4478 111.286L87.2939 109.438L90.7245 98.1388L93.68 88.549L98.182 74.1249L110.801 77.7138L115.039 62.0493L131.416 66.0129L148.199 71.9029L144.484 87.0449L139.76 99.0096L138.979 101.226L137.66 106.113L143.128 108.114L157.905 116.606L166.994 120.765L166.703 121.419L161.436 133.484L155.092 148.051L148.69 162.86L144.774 171.479L154.316 175.321L158.718 165.694L165.02 151.386L171.295 137.495L174.34 130.481L176.193 126.438L179.27 127.958L187.371 132.07L189.815 126.818L199.837 129.547L199.447 130.307L191.863 144.921L186.094 154.532L180.642 163.562L172.166 177.538L168.493 183.665L159.504 180.34Z" fill="#9C9C9C"/>
</g>
<mask id="mask107_64_24689" style="mask-type:luminance" maskUnits="userSpaceOnUse" x="-813" y="-292" width="1520" height="855">
<path d="M707 -292H-813V563H707V-292Z" fill="white"/>
</mask>
<g mask="url(#mask107_64_24689)">
<path opacity="0.07" d="M77.0709 225.866L82.9555 211.104L88.7611 196.495L89.1095 196.506L89.69 195.018L92.1442 195.978L92.3606 196.179L109.118 202.628L111.814 196.221L110.954 195.709L111.456 194.606L112.026 191.112L96.3242 185.792L68.373 175.5L72.912 162.923L84.0956 167.404L100.567 174.17L114.986 179.722L126.967 184.151L117.113 201.203L108.194 217.121L103.755 215.279L106.146 209.542L98.2611 206.328L94.4558 215.585L91.2364 223.201L94.1761 224.256L91.4158 230.69L77.0709 225.866Z" fill="#9C9C9C"/>
</g>
<mask id="mask108_64_24689" style="mask-type:luminance" maskUnits="userSpaceOnUse" x="-813" y="-292" width="1520" height="855">
<path d="M707 -292H-813V563H707V-292Z" fill="white"/>
</mask>
<g mask="url(#mask108_64_24689)">
<path opacity="0.07" d="M2.73851 247.072L-9.99677 243.789L-12.6462 243.087L-18.0981 241.62L-15.5754 228.299L-13.2373 216.989L-9.08894 202.179L-8.102 199.493L-6.25478 194.875L-2.73983 185.797L0.574634 176.16L5.86826 161.187L6.5649 159.155L10.7238 141.97L12.6186 134.935L15.3894 135.88L23.2955 138.519L42.496 144.984L42.3852 145.38L67.2488 153.719L66.0296 157.318L60.6041 173.289L49.241 169.193L46.7393 175.864L58.266 180.034L55.0677 188.594L53.5952 192.669L50.9985 199.071L47.378 208.323L43.0133 219.179L28.4202 213.558L30.8585 207.399L17.0255 202.179L13.6002 210.798L11.7793 216.197L21.2688 219.728L16.5505 233.535L21.7544 235.123L19.3372 242.359L13.2993 240.596L10.9613 248.946L2.73851 247.072Z" fill="#9C9C9C"/>
</g>
<mask id="mask109_64_24689" style="mask-type:luminance" maskUnits="userSpaceOnUse" x="-813" y="-292" width="1520" height="855">
<path d="M707 -292H-813V563H707V-292Z" fill="white"/>
</mask>
<g mask="url(#mask109_64_24689)">
<path opacity="0.07" d="M173.412 442.387L176.293 440.064L177.692 438.935L178.594 440.064L180.542 442.487L176.272 445.907L173.412 442.387Z" fill="#9C9C9C"/>
</g>
<mask id="mask110_64_24689" style="mask-type:luminance" maskUnits="userSpaceOnUse" x="-813" y="-292" width="1520" height="855">
<path d="M707 -292H-813V563H707V-292Z" fill="white"/>
</mask>
<g mask="url(#mask110_64_24689)">
<path opacity="0.07" d="M234.86 527.918L250.593 514.581L253.259 512.322L255.65 515.188L250.593 519.505L237.214 530.937L236.032 529.417L234.86 527.918Z" fill="#9C9C9C"/>
</g>
<mask id="mask111_64_24689" style="mask-type:luminance" maskUnits="userSpaceOnUse" x="-813" y="-292" width="1520" height="855">
<path d="M707 -292H-813V563H707V-292Z" fill="white"/>
</mask>
<g mask="url(#mask111_64_24689)">
<path opacity="0.07" d="M192.047 480.741L193.81 479.516L193.878 479.632L192.216 480.962L192.047 480.741Z" fill="#9C9C9C"/>
</g>
<mask id="mask112_64_24689" style="mask-type:luminance" maskUnits="userSpaceOnUse" x="-813" y="-292" width="1520" height="855">
<path d="M707 -292H-813V563H707V-292Z" fill="white"/>
</mask>
<g mask="url(#mask112_64_24689)">
<path opacity="0.07" d="M189.34 491.359L191.826 489.359L193.863 492.251L191.483 494.315L189.34 491.359Z" fill="#9C9C9C"/>
</g>
<mask id="mask113_64_24689" style="mask-type:luminance" maskUnits="userSpaceOnUse" x="-813" y="-292" width="1520" height="855">
<path d="M707 -292H-813V563H707V-292Z" fill="white"/>
</mask>
<g mask="url(#mask113_64_24689)">
<path opacity="0.07" d="M294.864 566.256L306.528 561.992L309.367 571.286L296.89 574.162L294.864 566.256Z" fill="#9C9C9C"/>
</g>
<mask id="mask114_64_24689" style="mask-type:luminance" maskUnits="userSpaceOnUse" x="-813" y="-292" width="1520" height="855">
<path d="M707 -292H-813V563H707V-292Z" fill="white"/>
</mask>
<g mask="url(#mask114_64_24689)">
<path opacity="0.07" d="M209.406 534.717L217.275 528.689L219.777 531.745L222.542 529.439L225.804 534.052L214.298 542.011L209.406 534.717Z" fill="#9C9C9C"/>
</g>
<mask id="mask115_64_24689" style="mask-type:luminance" maskUnits="userSpaceOnUse" x="-813" y="-292" width="1520" height="855">
<path d="M707 -292H-813V563H707V-292Z" fill="white"/>
</mask>
<g mask="url(#mask115_64_24689)">
<path opacity="0.07" d="M219.46 550.856L226.569 545.831L233.013 541.255L235.7 539.345L238.988 537.366L241.785 540.654L245.712 545.319L241.368 548.692L237.267 551.89L232.713 554.629L227.751 557.58L227.192 557.025L224.722 558.588L219.46 550.856Z" fill="#9C9C9C"/>
</g>
<mask id="mask116_64_24689" style="mask-type:luminance" maskUnits="userSpaceOnUse" x="-813" y="-292" width="1520" height="855">
<path d="M707 -292H-813V563H707V-292Z" fill="white"/>
</mask>
<g mask="url(#mask116_64_24689)">
<path opacity="0.07" d="M199.716 520.783L196.222 515.98L192.892 511.098L193.72 510.497L194.554 509.89L198.164 514.539L207.205 526.235L213.771 521.474L215.275 523.575L206.413 530.357L199.716 520.783Z" fill="#9C9C9C"/>
</g>
<mask id="mask117_64_24689" style="mask-type:luminance" maskUnits="userSpaceOnUse" x="-813" y="-292" width="1520" height="855">
<path d="M707 -292H-813V563H707V-292Z" fill="white"/>
</mask>
<g mask="url(#mask117_64_24689)">
<path opacity="0.07" d="M254.636 561.079L259.914 558.229L265.192 555.342L267.034 558.292L255.496 563.982L255.095 562.646L254.636 561.079Z" fill="#9C9C9C"/>
</g>
<mask id="mask118_64_24689" style="mask-type:luminance" maskUnits="userSpaceOnUse" x="-813" y="-292" width="1520" height="855">
<path d="M707 -292H-813V563H707V-292Z" fill="white"/>
</mask>
<g mask="url(#mask118_64_24689)">
<path opacity="0.07" d="M218.383 496.289L217.227 494.151L216.114 492.13L214.356 488.926L212.013 484.614L230.828 472.111L239.024 485.163L226.79 493.523L219.982 498.574L218.383 496.289Z" fill="#9C9C9C"/>
</g>
<mask id="mask119_64_24689" style="mask-type:luminance" maskUnits="userSpaceOnUse" x="-813" y="-292" width="1520" height="855">
<path d="M707 -292H-813V563H707V-292Z" fill="white"/>
</mask>
<g mask="url(#mask119_64_24689)">
<path opacity="0.07" d="M313.832 554.128L312.349 548.84L322.836 545.768L329.375 544.026L329.976 546.164L320.962 548.544L322.345 553.569L314.228 555.553L313.832 554.128Z" fill="#9C9C9C"/>
</g>
<mask id="mask120_64_24689" style="mask-type:luminance" maskUnits="userSpaceOnUse" x="-813" y="-292" width="1520" height="855">
<path d="M707 -292H-813V563H707V-292Z" fill="white"/>
</mask>
<g mask="url(#mask120_64_24689)">
<path opacity="0.07" d="M259.075 566.763L258.03 563.232L257.624 561.881L257.17 560.34L255.117 553.627L253.734 550.698L252.394 547.937L251.866 546.829L252.932 545.694L245.812 537.245L241.6 532.289L240.065 530.32L239.315 529.338L238.502 528.288L252.937 516.054L253.623 516.878L265.335 530.99L273.784 541.034L295.392 525.691L296.379 528.906L297.698 533.255L301.714 546.285L303.034 550.629L304.385 554.978L304.981 556.936L290.805 562.119L280.281 565.956L275.811 547.932L265.609 555.675L267.694 560.509L265.504 561.422L269.372 569.977L260.495 571.576L259.075 566.763Z" fill="#9C9C9C"/>
</g>
<mask id="mask121_64_24689" style="mask-type:luminance" maskUnits="userSpaceOnUse" x="-813" y="-292" width="1520" height="855">
<path d="M707 -292H-813V563H707V-292Z" fill="white"/>
</mask>
<g mask="url(#mask121_64_24689)">
<path opacity="0.07" d="M127.262 402.698L128.935 398.217L135.432 401.263L132.888 407.992L127.262 402.698Z" fill="#9C9C9C"/>
</g>
<mask id="mask122_64_24689" style="mask-type:luminance" maskUnits="userSpaceOnUse" x="-813" y="-292" width="1520" height="855">
<path d="M707 -292H-813V563H707V-292Z" fill="white"/>
</mask>
<g mask="url(#mask122_64_24689)">
<path opacity="0.07" d="M96.2607 443.606L97.3849 442.107L96.3663 443.712L96.2607 443.606Z" fill="#9C9C9C"/>
</g>
<mask id="mask123_64_24689" style="mask-type:luminance" maskUnits="userSpaceOnUse" x="-813" y="-292" width="1520" height="855">
<path d="M707 -292H-813V563H707V-292Z" fill="white"/>
</mask>
<g mask="url(#mask123_64_24689)">
<path opacity="0.07" d="M-4.43408 376.124L-3.42601 374.9L-2.41272 373.681L2.3215 377.343L6.48567 380.616L4.24262 383.619L3.33479 382.848L1.99428 381.671L0.252587 380.151L-4.43408 376.124Z" fill="#9C9C9C"/>
</g>
<mask id="mask124_64_24689" style="mask-type:luminance" maskUnits="userSpaceOnUse" x="-813" y="-292" width="1520" height="855">
<path d="M707 -292H-813V563H707V-292Z" fill="white"/>
</mask>
<g mask="url(#mask124_64_24689)">
<path opacity="0.07" d="M55.5796 406.894L56.4874 405.12L57.4479 403.289L62.2401 405.617L60.4405 409.285L55.5796 406.894Z" fill="#9C9C9C"/>
</g>
<mask id="mask125_64_24689" style="mask-type:luminance" maskUnits="userSpaceOnUse" x="-813" y="-292" width="1520" height="855">
<path d="M707 -292H-813V563H707V-292Z" fill="white"/>
</mask>
<g mask="url(#mask125_64_24689)">
<path opacity="0.07" d="M32.8111 512.676L31.5127 511.325L36.6744 505.298L37.9833 506.454L41.3452 509.367L42.6277 510.491L36.7905 516.819L32.8111 512.676Z" fill="#9C9C9C"/>
</g>
<mask id="mask126_64_24689" style="mask-type:luminance" maskUnits="userSpaceOnUse" x="-813" y="-292" width="1520" height="855">
<path d="M707 -292H-813V563H707V-292Z" fill="white"/>
</mask>
<g mask="url(#mask126_64_24689)">
<path opacity="0.07" d="M50.2808 517.949L52.5238 515.685L55.2049 518.065L56.556 519.242L54.4554 521.617L50.2808 517.949Z" fill="#9C9C9C"/>
</g>
<mask id="mask127_64_24689" style="mask-type:luminance" maskUnits="userSpaceOnUse" x="-813" y="-292" width="1520" height="855">
<path d="M707 -292H-813V563H707V-292Z" fill="white"/>
</mask>
<g mask="url(#mask127_64_24689)">
<path opacity="0.07" d="M4.74414 518.951L5.76278 517.611L6.1322 517.917L5.07136 519.226L4.74414 518.951Z" fill="#9C9C9C"/>
</g>
<mask id="mask128_64_24689" style="mask-type:luminance" maskUnits="userSpaceOnUse" x="-813" y="-292" width="1520" height="855">
<path d="M707 -292H-813V563H707V-292Z" fill="white"/>
</mask>
<g mask="url(#mask128_64_24689)">
<path opacity="0.07" d="M27.3594 556.313L39.6619 543.05L43.8947 538.474L44.1796 538.173L45.0346 539.065L48.9719 543.119L41.5355 551.711L33.3972 561.089L27.3594 556.313Z" fill="#9C9C9C"/>
</g>
<mask id="mask129_64_24689" style="mask-type:luminance" maskUnits="userSpaceOnUse" x="-813" y="-292" width="1520" height="855">
<path d="M707 -292H-813V563H707V-292Z" fill="white"/>
</mask>
<g mask="url(#mask129_64_24689)">
<path opacity="0.07" d="M139.28 574.278L137.259 571.497L135.227 568.726L134.789 568.124L144.658 561.237L140.262 555.838L144.948 551.927L150.374 557.373L154.992 553.515L159.789 558.619L144.172 570.262L146.796 574.241L141.813 577.73L139.28 574.278Z" fill="#9C9C9C"/>
</g>
<mask id="mask130_64_24689" style="mask-type:luminance" maskUnits="userSpaceOnUse" x="-813" y="-292" width="1520" height="855">
<path d="M707 -292H-813V563H707V-292Z" fill="white"/>
</mask>
<g mask="url(#mask130_64_24689)">
<path opacity="0.07" d="M123.04 533.397L123.626 532.932L128.223 529.401L129.363 530.71L133.786 535.729L133.337 537.519L132.999 538.331L131.785 539.266L130.967 538.289L128.207 540.242L123.04 533.397Z" fill="#9C9C9C"/>
</g>
<mask id="mask131_64_24689" style="mask-type:luminance" maskUnits="userSpaceOnUse" x="-813" y="-292" width="1520" height="855">
<path d="M707 -292H-813V563H707V-292Z" fill="white"/>
</mask>
<g mask="url(#mask131_64_24689)">
<path opacity="0.07" d="M130.651 562.467L128.133 559.004L125.574 555.532L123.009 552.027L120.713 549.13L116.802 544.227L114.248 541.002L118.976 536.774L125.537 545.462L131.891 553.695L134.525 557.152L136.974 560.166L131.675 563.86L130.651 562.467Z" fill="#9C9C9C"/>
</g>
<mask id="mask132_64_24689" style="mask-type:luminance" maskUnits="userSpaceOnUse" x="-813" y="-292" width="1520" height="855">
<path d="M707 -292H-813V563H707V-292Z" fill="white"/>
</mask>
<g mask="url(#mask132_64_24689)">
<path opacity="0.07" d="M108.495 563.454L106.626 560.746L112.279 556.54L113.904 558.646L115.034 560.234L109.181 564.457L108.495 563.454Z" fill="#9C9C9C"/>
</g>
<mask id="mask133_64_24689" style="mask-type:luminance" maskUnits="userSpaceOnUse" x="-813" y="-292" width="1520" height="855">
<path d="M707 -292H-813V563H707V-292Z" fill="white"/>
</mask>
<g mask="url(#mask133_64_24689)">
<path opacity="0.07" d="M119.356 532.901L120.734 531.845L122.006 530.853L130.503 541.852L129.089 542.855L127.643 543.873L119.356 532.901Z" fill="#9C9C9C"/>
</g>
<mask id="mask134_64_24689" style="mask-type:luminance" maskUnits="userSpaceOnUse" x="-813" y="-292" width="1520" height="855">
<path d="M707 -292H-813V563H707V-292Z" fill="white"/>
</mask>
<g mask="url(#mask134_64_24689)">
<path opacity="0.07" d="M123.594 434.296L133.121 425.192L129.004 420.801L131.986 417.586L133.163 418.695L136.198 421.576L141.317 427.05L128.413 439.146L123.594 434.296Z" fill="#9C9C9C"/>
</g>
<mask id="mask135_64_24689" style="mask-type:luminance" maskUnits="userSpaceOnUse" x="-813" y="-292" width="1520" height="855">
<path d="M707 -292H-813V563H707V-292Z" fill="white"/>
</mask>
<g mask="url(#mask135_64_24689)">
<path opacity="0.07" d="M144.357 496.632L141.571 492.436L140.125 490.288L151.773 481.121L158.238 488.378L161.262 491.898L148.337 502.58L144.357 496.632Z" fill="#9C9C9C"/>
</g>
<mask id="mask136_64_24689" style="mask-type:luminance" maskUnits="userSpaceOnUse" x="-813" y="-292" width="1520" height="855">
<path d="M707 -292H-813V563H707V-292Z" fill="white"/>
</mask>
<g mask="url(#mask136_64_24689)">
<path opacity="0.07" d="M81.4354 456.167L75.4346 450.467L78.0524 447.475L81.4091 443.648L82.9291 441.917L86.6235 445.516L90.5396 449.549L82.8868 457.545L81.4354 456.167Z" fill="#9C9C9C"/>
</g>
<mask id="mask137_64_24689" style="mask-type:luminance" maskUnits="userSpaceOnUse" x="-813" y="-292" width="1520" height="855">
<path d="M707 -292H-813V563H707V-292Z" fill="white"/>
</mask>
<g mask="url(#mask137_64_24689)">
<path opacity="0.07" d="M22.277 502.163L21.4854 501.376L25.8132 496.02L27.4651 497.418L31.0381 500.458L32.6796 501.846L27.7818 507.567L22.277 502.163Z" fill="#9C9C9C"/>
</g>
<mask id="mask138_64_24689" style="mask-type:luminance" maskUnits="userSpaceOnUse" x="-813" y="-292" width="1520" height="855">
<path d="M707 -292H-813V563H707V-292Z" fill="white"/>
</mask>
<g mask="url(#mask138_64_24689)">
<path opacity="0.07" d="M47.209 553.22L52.7296 546.845L63.512 557.163L57.8807 562.968L47.209 553.22Z" fill="#9C9C9C"/>
</g>
<mask id="mask139_64_24689" style="mask-type:luminance" maskUnits="userSpaceOnUse" x="-813" y="-292" width="1520" height="855">
<path d="M707 -292H-813V563H707V-292Z" fill="white"/>
</mask>
<g mask="url(#mask139_64_24689)">
<path opacity="0.07" d="M37.5508 564.357L43.7522 557.21L54.1811 566.737L51.3574 569.582L48.2593 572.732L37.5508 564.357Z" fill="#9C9C9C"/>
</g>
<mask id="mask140_64_24689" style="mask-type:luminance" maskUnits="userSpaceOnUse" x="-813" y="-292" width="1520" height="855">
<path d="M707 -292H-813V563H707V-292Z" fill="white"/>
</mask>
<g mask="url(#mask140_64_24689)">
<path opacity="0.07" d="M62.1662 542.617L57.4267 538.031L54.4923 534.927L51.4945 531.803L50.1909 530.431L56.7512 523.005L62.6729 528.43L64.6679 530.246L68.8848 534.136L76.6959 541.319L73.0859 545.72L69.6818 549.874L62.1662 542.617Z" fill="#9C9C9C"/>
</g>
<mask id="mask141_64_24689" style="mask-type:luminance" maskUnits="userSpaceOnUse" x="-813" y="-292" width="1520" height="855">
<path d="M707 -292H-813V563H707V-292Z" fill="white"/>
</mask>
<g mask="url(#mask141_64_24689)">
<path opacity="0.07" d="M3.59867 504.058L1.88867 502.849L14.7612 486.478L18.2076 489.359L21.8176 492.563L15.8326 499.973L14.6662 501.498L9.54673 508.19L3.59867 504.058Z" fill="#9C9C9C"/>
</g>
<mask id="mask142_64_24689" style="mask-type:luminance" maskUnits="userSpaceOnUse" x="-813" y="-292" width="1520" height="855">
<path d="M707 -292H-813V563H707V-292Z" fill="white"/>
</mask>
<g mask="url(#mask142_64_24689)">
<path opacity="0.07" d="M43.71 426.775L53.0041 411.512L66.283 418.046L70.0831 419.893L72.7008 421.175L72.2733 422.109L70.7903 425.371L69.2914 428.654L67.518 432.438L63.5016 441.051L43.71 426.775Z" fill="#9C9C9C"/>
</g>
<mask id="mask143_64_24689" style="mask-type:luminance" maskUnits="userSpaceOnUse" x="-813" y="-292" width="1520" height="855">
<path d="M707 -292H-813V563H707V-292Z" fill="white"/>
</mask>
<g mask="url(#mask143_64_24689)">
<path opacity="0.07" d="M114.875 551.262L113.245 549.162L109.904 544.834L110.284 544.501L112.669 547.51L116.791 552.677L117.113 553.083L116.575 553.463L114.875 551.262Z" fill="#9C9C9C"/>
</g>
<mask id="mask144_64_24689" style="mask-type:luminance" maskUnits="userSpaceOnUse" x="-813" y="-292" width="1520" height="855">
<path d="M707 -292H-813V563H707V-292Z" fill="white"/>
</mask>
<g mask="url(#mask144_64_24689)">
<path opacity="0.07" d="M121.715 486.91L123.462 485.57L124.523 486.916L122.686 488.209L121.715 486.91Z" fill="#9C9C9C"/>
</g>
<mask id="mask145_64_24689" style="mask-type:luminance" maskUnits="userSpaceOnUse" x="-813" y="-292" width="1520" height="855">
<path d="M707 -292H-813V563H707V-292Z" fill="white"/>
</mask>
<g mask="url(#mask145_64_24689)">
<path opacity="0.07" d="M34.4895 413.728L30.4784 411.068L21.9126 405.368L14.9935 415.866L4.68066 408.155L6.88674 405.389L10.217 401.241L13.6107 396.908L17.0043 392.628L23.4115 384.732L35.3762 369.775L58.7146 373.712L68.0193 375.327L91.8748 379.438L87.5576 389.324L85.267 394.206L82.9712 399.14L80.6648 404.043L78.3796 408.989L76.0785 413.887L74.9173 416.383L72.3998 415.153L70.9801 414.462L72.5846 411.163L66.7895 408.324L69.3123 403.194L59.8915 398.602L60.1448 398.117L62.8682 392.965L58.7726 390.749L54.5398 388.532L51.7531 394.1L50.1645 397.256L48.6234 400.375L46.639 403.774L39.1182 416.784L34.4895 413.728Z" fill="#9C9C9C"/>
</g>
<mask id="mask146_64_24689" style="mask-type:luminance" maskUnits="userSpaceOnUse" x="-813" y="-292" width="1520" height="855">
<path d="M707 -292H-813V563H707V-292Z" fill="white"/>
</mask>
<g mask="url(#mask146_64_24689)">
<path opacity="0.07" d="M-8.07028 379.628L-13.5855 375.016L-16.652 378.958L-16.9053 378.763L-12.8889 373.142L-10.535 374.894L-6.08055 378.188L-1.46777 382.151L0.258069 383.655L0.659185 384.009L-0.0375178 384.943L-0.654976 385.772L-8.07028 379.628Z" fill="#9C9C9C"/>
</g>
<mask id="mask147_64_24689" style="mask-type:luminance" maskUnits="userSpaceOnUse" x="-813" y="-292" width="1520" height="855">
<path d="M707 -292H-813V563H707V-292Z" fill="white"/>
</mask>
<g mask="url(#mask147_64_24689)">
<path opacity="0.07" d="M8.63929 420.695L8.3332 421.101L-0.412109 414.531L1.38763 412.282L14.144 421.819L20.5723 426.005L18.8465 428.337L8.63929 420.695Z" fill="#9C9C9C"/>
</g>
<mask id="mask148_64_24689" style="mask-type:luminance" maskUnits="userSpaceOnUse" x="-813" y="-292" width="1520" height="855">
<path d="M707 -292H-813V563H707V-292Z" fill="white"/>
</mask>
<g mask="url(#mask148_64_24689)">
<path opacity="0.07" d="M61.5964 512.761L58.0603 509.504L50.2439 502.311L48.497 500.712L46.4334 498.843L42.6334 495.555L37.3292 490.99L34.0095 488.034L30.9009 485.374L28.0615 482.915L27.064 482.065L34.2047 473.832L36.4003 475.959L42.4117 467.995L45.1034 470.269L39.0445 477.843L59.1739 495.724L61.1637 493.687L66.1617 498.199L76.58 487.412L78.0103 488.821L80.4276 491.222L80.2956 492.642L79.62 499.762L78.992 500.443L77.7517 501.815L75.8517 503.91L73.9676 502.232L64.8423 512.344L63.1692 514.207L61.5964 512.761Z" fill="#9C9C9C"/>
</g>
<mask id="mask149_64_24689" style="mask-type:luminance" maskUnits="userSpaceOnUse" x="-813" y="-292" width="1520" height="855">
<path d="M707 -292H-813V563H707V-292Z" fill="white"/>
</mask>
<g mask="url(#mask149_64_24689)">
<path opacity="0.07" d="M106.684 529.813L106.151 529.137L105.613 528.441L102.631 524.546L102.546 524.609L101.554 523.332L101.591 523.3L99.5962 520.682L98.034 518.698L96.076 516.006L95.9651 516.096L95.7804 515.859L94.2076 513.837L94.2815 513.779L91.1835 509.805L90.6293 509.082L90.0382 508.333L89.104 507.134L90.2757 506.19L94.746 502.606L95.4215 502.031L96.1076 501.471L97.7437 500.168L98.8996 499.213L102.351 496.421L103.08 495.84L108.004 491.866L108.711 491.28L109.439 490.699L112.469 488.187L110.622 485.965L117.076 480.703L116.781 480.387L118.353 479.083L124.967 487.485L126.228 489.1L130.044 493.961L130.566 494.642L140.13 506.48L139.961 506.612L139.317 507.092L138.277 507.889L135.469 510.043L133.849 511.32L132.25 512.571L128.846 515.199L128.233 515.658L122.296 520.244L120.955 521.305L119.092 522.73L118.074 523.538L117.002 524.335L115.065 525.871L114.342 526.409L109.249 530.362L108.5 530.916L107.903 531.396L106.684 529.813Z" fill="#9C9C9C"/>
</g>
<mask id="mask150_64_24689" style="mask-type:luminance" maskUnits="userSpaceOnUse" x="-813" y="-292" width="1520" height="855">
<path d="M707 -292H-813V563H707V-292Z" fill="white"/>
</mask>
<g mask="url(#mask150_64_24689)">
<path opacity="0.07" d="M96.6727 444.018L94.6301 441.991L91.7168 439.051L85.8162 433.14L84.1484 431.478L85.5312 428.332L87.616 423.777L90.5451 417.402L102.737 425.292L98.2454 432.581L102.357 435.13L105.249 436.998L96.9576 444.292L96.6727 444.018ZM110.479 430.707L111.64 431.377L108.653 434.006L110.479 430.707Z" fill="#9C9C9C"/>
</g>
<mask id="mask151_64_24689" style="mask-type:luminance" maskUnits="userSpaceOnUse" x="-813" y="-292" width="1520" height="855">
<path d="M707 -292H-813V563H707V-292Z" fill="white"/>
</mask>
<g mask="url(#mask151_64_24689)">
<path opacity="0.07" d="M127.262 402.698L129.933 395.536L135.379 381.249L137.337 376.098L141.607 377.977L163.858 387.773L150.136 403.289L137.385 396.101L132.888 407.992L127.262 402.698Z" fill="#9C9C9C"/>
</g>
<mask id="mask152_64_24689" style="mask-type:luminance" maskUnits="userSpaceOnUse" x="-813" y="-292" width="1520" height="855">
<path d="M707 -292H-813V563H707V-292Z" fill="white"/>
</mask>
<g mask="url(#mask152_64_24689)">
<path opacity="0.07" d="M-13.4536 430.723L-12.8678 429.921L-3.72142 418.642L1.77804 422.775L0.870282 423.946L8.44388 429.657L9.6683 428.052L11.6897 429.572L10.5391 431.077L18.7989 437.273L24.995 428.897L32.7586 433.979L29.1064 440.651L27.3436 439.368L24.8578 442.704L24.0925 443.717L22.8522 445.401L19.923 449.295L16.5294 453.834L-13.4536 430.723Z" fill="#9C9C9C"/>
</g>
<mask id="mask153_64_24689" style="mask-type:luminance" maskUnits="userSpaceOnUse" x="-813" y="-292" width="1520" height="855">
<path d="M707 -292H-813V563H707V-292Z" fill="white"/>
</mask>
<g mask="url(#mask153_64_24689)">
<path opacity="0.07" d="M336.542 492.684L331.206 485.533L359.469 454.774L371.043 469.509L348.76 492.974L359.046 506.306L353.357 510.565L351.14 512.217L336.542 492.684Z" fill="#9C9C9C"/>
</g>
<mask id="mask154_64_24689" style="mask-type:luminance" maskUnits="userSpaceOnUse" x="-813" y="-292" width="1520" height="855">
<path d="M707 -292H-813V563H707V-292Z" fill="white"/>
</mask>
<g mask="url(#mask154_64_24689)">
<path opacity="0.07" d="M155.425 546.275L150.701 550.223L147.017 546.528L138.757 537.604L139.57 534.315L134.979 529.101L136.741 527.359L140.256 523.855L143.782 520.366L147.292 516.867L148.806 515.368L151.514 518.53L153.799 521.2L156.095 523.855L165.204 534.479L169.77 539.783L172.05 542.443L174.34 545.108L174.905 545.768L163.922 555.31L155.425 546.275Z" fill="#9C9C9C"/>
</g>
<mask id="mask155_64_24689" style="mask-type:luminance" maskUnits="userSpaceOnUse" x="-813" y="-292" width="1520" height="855">
<path d="M707 -292H-813V563H707V-292Z" fill="white"/>
</mask>
<g mask="url(#mask155_64_24689)">
<path opacity="0.07" d="M168.661 562.747L167.036 559.596L178.087 549.99L179.803 552.196L181.439 554.682L183.096 557.242L185.075 560.282L174.361 567.66L172.561 568.71L168.661 562.747Z" fill="#9C9C9C"/>
</g>
<mask id="mask156_64_24689" style="mask-type:luminance" maskUnits="userSpaceOnUse" x="-813" y="-292" width="1520" height="855">
<path d="M707 -292H-813V563H707V-292Z" fill="white"/>
</mask>
<g mask="url(#mask156_64_24689)">
<path opacity="0.07" d="M128.973 476.555L125.611 473.151L123.895 471.446L122.201 469.747L119.267 466.781L116.327 463.841L113.398 460.88L110.469 457.914L107.519 454.948L104.568 451.982L100.668 448.055L116.543 434.09L116.871 434.259L116.549 434.697L126.476 444.683L138.029 456.099L146.479 464.438L143.972 466.596L141.65 468.633L139.359 470.607L134.071 475.225L130.635 478.213L128.973 476.555Z" fill="#9C9C9C"/>
</g>
<mask id="mask157_64_24689" style="mask-type:luminance" maskUnits="userSpaceOnUse" x="-813" y="-292" width="1520" height="855">
<path d="M707 -292H-813V563H707V-292Z" fill="white"/>
</mask>
<g mask="url(#mask157_64_24689)">
<path opacity="0.07" d="M160.745 436.313L154.971 430.206L159.599 426.807L167.827 420.743L161.906 413.053L177.074 396.74L184.991 405.216L193.308 414.093L197.383 418.447L193.483 421.345L167.02 440.989L165.922 441.796L160.745 436.313Z" fill="#9C9C9C"/>
</g>
<mask id="mask158_64_24689" style="mask-type:luminance" maskUnits="userSpaceOnUse" x="-813" y="-292" width="1520" height="855">
<path d="M707 -292H-813V563H707V-292Z" fill="white"/>
</mask>
<g mask="url(#mask158_64_24689)">
<path opacity="0.07" d="M206.165 475.463L203.104 470.887L202.238 469.605L205.891 467.193L194.95 449.29L199.351 446.245L205.806 441.801L209.997 438.904L228.02 467.641L209.258 480.102L206.165 475.463Z" fill="#9C9C9C"/>
</g>
<mask id="mask159_64_24689" style="mask-type:luminance" maskUnits="userSpaceOnUse" x="-813" y="-292" width="1520" height="855">
<path d="M707 -292H-813V563H707V-292Z" fill="white"/>
</mask>
<g mask="url(#mask159_64_24689)">
<path opacity="0.07" d="M128.973 476.555L125.611 473.151L124.064 471.62L130.646 465.071L137.317 472.391L134.071 475.225L130.635 478.212L128.973 476.555Z" fill="#9C9C9C"/>
</g>
<mask id="mask160_64_24689" style="mask-type:luminance" maskUnits="userSpaceOnUse" x="-813" y="-292" width="1520" height="855">
<path d="M707 -292H-813V563H707V-292Z" fill="white"/>
</mask>
<g mask="url(#mask160_64_24689)">
<path opacity="0.07" d="M137.354 454.61L138.794 453.148L139.882 454.22L150.358 464.554L147.999 466.607L139.882 457.46L137.354 454.61Z" fill="#9C9C9C"/>
</g>
<mask id="mask161_64_24689" style="mask-type:luminance" maskUnits="userSpaceOnUse" x="-813" y="-292" width="1520" height="855">
<path d="M707 -292H-813V563H707V-292Z" fill="white"/>
</mask>
<g mask="url(#mask161_64_24689)">
<path opacity="0.07" d="M97.6064 471.742L105.117 464.3L106.916 466.137L105.518 467.488L104.346 466.021L97.9179 472.048L97.6064 471.742Z" fill="#9C9C9C"/>
</g>
<mask id="mask162_64_24689" style="mask-type:luminance" maskUnits="userSpaceOnUse" x="-813" y="-292" width="1520" height="855">
<path d="M707 -292H-813V563H707V-292Z" fill="white"/>
</mask>
<g mask="url(#mask162_64_24689)">
<path opacity="0.07" d="M82.9873 461.276L83.8951 460.305L84.5284 460.917L86.6131 462.944L89.3523 465.561L92.0703 468.195L94.7937 470.818L98.8154 474.819L97.8917 475.7L93.8437 471.763L84.5284 462.759L82.9873 461.276Z" fill="#9C9C9C"/>
</g>
<mask id="mask163_64_24689" style="mask-type:luminance" maskUnits="userSpaceOnUse" x="-813" y="-292" width="1520" height="855">
<path d="M707 -292H-813V563H707V-292Z" fill="white"/>
</mask>
<g mask="url(#mask163_64_24689)">
<path opacity="0.07" d="M335.877 23.5529L342.754 8.16287L330.346 2.19896L323.337 18.6867L320.107 17.2196L324.878 2.27814L345.087 -57.1074L372.943 -44.2824L362.778 -23.4827L352.238 -27.8632L346.422 -13.6132L356.603 -9.35932L350.692 4.3734L347.045 12.7282L341.044 25.2576L335.877 23.5529Z" fill="#9C9C9C"/>
</g>
<mask id="mask164_64_24689" style="mask-type:luminance" maskUnits="userSpaceOnUse" x="-813" y="-292" width="1520" height="855">
<path d="M707 -292H-813V563H707V-292Z" fill="white"/>
</mask>
<g mask="url(#mask164_64_24689)">
<path opacity="0.07" d="M305.055 11.4986L308.47 0.615834L309.298 -2.05469L313.657 -0.782725L309.198 13.0133L305.055 11.4986Z" fill="#9C9C9C"/>
</g>
<mask id="mask165_64_24689" style="mask-type:luminance" maskUnits="userSpaceOnUse" x="-813" y="-292" width="1520" height="855">
<path d="M707 -292H-813V563H707V-292Z" fill="white"/>
</mask>
<g mask="url(#mask165_64_24689)">
<path opacity="0.07" d="M286.53 5.44488L281.901 4.01991L274.913 1.86125L270.464 0.499606L272.433 -5.70707L273.024 -7.55957L289.19 -2.4665L291.027 -1.92816L288.599 6.08875L286.53 5.44488Z" fill="#9C9C9C"/>
</g>
<mask id="mask166_64_24689" style="mask-type:luminance" maskUnits="userSpaceOnUse" x="-813" y="-292" width="1520" height="855">
<path d="M707 -292H-813V563H707V-292Z" fill="white"/>
</mask>
<g mask="url(#mask166_64_24689)">
<path opacity="0.07" d="M299.767 9.68821L293.628 7.68792L296.046 -0.297363L302.548 1.86123L300.062 9.78318L299.767 9.68821Z" fill="#9C9C9C"/>
</g>
<mask id="mask167_64_24689" style="mask-type:luminance" maskUnits="userSpaceOnUse" x="-813" y="-292" width="1520" height="855">
<path d="M707 -292H-813V563H707V-292Z" fill="white"/>
</mask>
<g mask="url(#mask167_64_24689)">
<path opacity="0.07" d="M338.136 83.044L345.535 71.3696L336.858 66.7621L339.55 61.1201L346.037 64.5877L362.957 77.0485L351.974 91.9423L338.136 83.044Z" fill="#9C9C9C"/>
</g>
<mask id="mask168_64_24689" style="mask-type:luminance" maskUnits="userSpaceOnUse" x="-813" y="-292" width="1520" height="855">
<path d="M707 -292H-813V563H707V-292Z" fill="white"/>
</mask>
<g mask="url(#mask168_64_24689)">
<path opacity="0.07" d="M268.881 93.5044L251.85 85.0863L255.792 76.0508L262.928 79.2491L272.517 83.5241L279.653 86.7436L275.193 96.613L268.881 93.5044Z" fill="#9C9C9C"/>
</g>
<mask id="mask169_64_24689" style="mask-type:luminance" maskUnits="userSpaceOnUse" x="-813" y="-292" width="1520" height="855">
<path d="M707 -292H-813V563H707V-292Z" fill="white"/>
</mask>
<g mask="url(#mask169_64_24689)">
<path opacity="0.07" d="M196.908 291.295L198.17 289.69L186.78 280.623L193.757 271.946L212.087 286.392L203.316 296.557L196.908 291.295Z" fill="#9C9C9C"/>
</g>
<mask id="mask170_64_24689" style="mask-type:luminance" maskUnits="userSpaceOnUse" x="-813" y="-292" width="1520" height="855">
<path d="M707 -292H-813V563H707V-292Z" fill="white"/>
</mask>
<g mask="url(#mask170_64_24689)">
<path opacity="0.07" d="M331.296 143.49L328.636 141.036L346.09 116.69L344.718 115.793L358.904 96.3862L356.424 94.7976L367.19 80.1992L369.127 81.6559L382.433 91.6256L378.216 97.3414L362.768 118.189L356.097 127.325L355.236 128.18L345.108 137.3L344.543 137.59L334.104 145.997L331.296 143.49Z" fill="#9C9C9C"/>
</g>
<mask id="mask171_64_24689" style="mask-type:luminance" maskUnits="userSpaceOnUse" x="-813" y="-292" width="1520" height="855">
<path d="M707 -292H-813V563H707V-292Z" fill="white"/>
</mask>
<g mask="url(#mask171_64_24689)">
<path opacity="0.07" d="M182.869 39.2917L183.613 37.8034L184.373 36.2939L187.276 37.5448L190.189 38.8114L193.092 40.057L192.459 41.5875L191.826 43.1128L187.361 41.2128L182.869 39.2917Z" fill="#9C9C9C"/>
</g>
<mask id="mask172_64_24689" style="mask-type:luminance" maskUnits="userSpaceOnUse" x="-813" y="-292" width="1520" height="855">
<path d="M707 -292H-813V563H707V-292Z" fill="white"/>
</mask>
<g mask="url(#mask172_64_24689)">
<path opacity="0.07" d="M213.269 14.3643L208.471 12.9182L203.642 11.4826L198.85 10.0523L194.047 8.6062L184.405 5.74041L179.607 4.2943L177.338 3.61873L177.744 2.294L179.048 -2.0074L181.708 -10.7104L185.55 -9.72879L204.355 -4.93131L210.635 -3.32684L216.89 -1.72766L220.484 -0.798768L215.575 15.0556L213.269 14.3643Z" fill="#9C9C9C"/>
</g>
<mask id="mask173_64_24689" style="mask-type:luminance" maskUnits="userSpaceOnUse" x="-813" y="-292" width="1520" height="855">
<path d="M707 -292H-813V563H707V-292Z" fill="white"/>
</mask>
<g mask="url(#mask173_64_24689)">
<path opacity="0.07" d="M413.513 11.4406L421.002 -3.16826L425.43 -1.01495L428.755 -8.4988L419.593 -12.6472L419.298 -11.9716L418.305 -12.4519L416.875 -13.1697L411.101 -15.9721L411.449 -16.5844L402.329 -20.965L401.728 -21.9413L397.701 -23.7569L391.531 -26.7916L384.596 -11.2749L397.87 -6.19241L398.366 -6.97358L398.308 -6.84163L399.39 -6.25053L398.202 -4.00747L394.107 3.76147L390.893 9.84148L374.774 3.23369L371.766 9.22395L367.311 7.3873L366.572 8.6592L356.561 4.08869L362.503 -9.718L366.456 -18.9963L377.819 -42.2344L398.968 -34.2755L409.518 -30.2591L409.571 -30.3647L422.406 -23.8941L431.22 -19.8724L449.856 -11.0586L442.789 0.890323L431.056 20.4761L413.513 11.4406Z" fill="#9C9C9C"/>
</g>
<mask id="mask174_64_24689" style="mask-type:luminance" maskUnits="userSpaceOnUse" x="-813" y="-292" width="1520" height="855">
<path d="M707 -292H-813V563H707V-292Z" fill="white"/>
</mask>
<g mask="url(#mask174_64_24689)">
<path opacity="0.07" d="M376.796 381.946L366.921 353.013L381.192 347.719L375.909 332.482L375.46 331.078L376.057 330.862L374.262 324.391L374.014 324.476L373.898 324.069L366.087 326.777L371.307 341.703L363.907 344.363L357.943 327.579L372.827 321.99L383.361 318.401L394.223 314.469L397.326 327.611L399.775 337.359L407.839 371.638L408.605 374.293L410.557 383.281L398.234 392.47L386.449 401.489L384.132 401.711L376.796 381.946Z" fill="#9C9C9C"/>
</g>
<mask id="mask175_64_24689" style="mask-type:luminance" maskUnits="userSpaceOnUse" x="-813" y="-292" width="1520" height="855">
<path d="M707 -292H-813V563H707V-292Z" fill="white"/>
</mask>
<g mask="url(#mask175_64_24689)">
<path opacity="0.07" d="M216.167 397.22L207.252 384.801L212.483 380.748L240.751 358.164L248.905 351.678L258.521 343.951L265.799 338.045L275.352 330.392L284.107 323.331L294.795 314.95L299.065 321.41L305.424 330.82L309.525 336.958L297.46 344.621L288.029 350.443L278.112 356.876L270.179 362.154L259.714 368.904L251.364 374.472L223.149 395.552L217.639 399.162L216.167 397.22Z" fill="#9C9C9C"/>
</g>
<mask id="mask176_64_24689" style="mask-type:luminance" maskUnits="userSpaceOnUse" x="-813" y="-292" width="1520" height="855">
<path d="M707 -292H-813V563H707V-292Z" fill="white"/>
</mask>
<g mask="url(#mask176_64_24689)">
<path opacity="0.07" d="M180.009 52.713L176.837 51.383L173.68 50.0424L167.331 47.3719L163.341 45.6829L164.724 41.9674L165.859 38.959L167.168 35.4546L173.227 38.046L181.835 41.7193L186.321 43.6351L188.332 44.4901L183.946 54.386L180.009 52.713Z" fill="#9C9C9C"/>
</g>
<mask id="mask177_64_24689" style="mask-type:luminance" maskUnits="userSpaceOnUse" x="-813" y="-292" width="1520" height="855">
<path d="M707 -292H-813V563H707V-292Z" fill="white"/>
</mask>
<g mask="url(#mask177_64_24689)">
<path opacity="0.07" d="M312.608 60.0013L311.642 61.9489L304.195 58.3811L306.385 53.5044L309.668 47.4719L312.17 42.0833L314.45 35.9927L317.479 27.7383L319.295 28.3822L340.173 35.8872L339.392 37.5444L333.37 50.3747L331.048 54.8819L325.206 66.2819L312.608 60.0013Z" fill="#9C9C9C"/>
</g>
<mask id="mask178_64_24689" style="mask-type:luminance" maskUnits="userSpaceOnUse" x="-813" y="-292" width="1520" height="855">
<path d="M707 -292H-813V563H707V-292Z" fill="white"/>
</mask>
<g mask="url(#mask178_64_24689)">
<path opacity="0.07" d="M221.486 49.5672L229.134 30.6358L232.274 22.8775L239.668 4.02002L242.444 4.79584L247.537 6.23666L252.335 7.58252L248.044 18.1803L246.202 22.6822L245.289 24.9516L243.146 30.3297L240.982 35.7236L238.84 41.0911L236.702 46.4744L234.544 51.8261L233.398 54.713L221.486 49.5672Z" fill="#9C9C9C"/>
</g>
<mask id="mask179_64_24689" style="mask-type:luminance" maskUnits="userSpaceOnUse" x="-813" y="-292" width="1520" height="855">
<path d="M707 -292H-813V563H707V-292Z" fill="white"/>
</mask>
<g mask="url(#mask179_64_24689)">
<path opacity="0.07" d="M310.454 469.309L294.019 449.57L287.749 441.358L306.374 428.369L314.745 422.463L322.556 417.09L328.446 425.566L342.828 446.023L330.393 460.574L324.166 467.968L316.55 476.666L310.454 469.309Z" fill="#9C9C9C"/>
</g>
<mask id="mask180_64_24689" style="mask-type:luminance" maskUnits="userSpaceOnUse" x="-813" y="-292" width="1520" height="855">
<path d="M707 -292H-813V563H707V-292Z" fill="white"/>
</mask>
<g mask="url(#mask180_64_24689)">
<path opacity="0.07" d="M278.576 272.089L259.449 251.257L243.421 234.733L247.485 230.606L252.599 225.344L313.388 163.097L315.119 161.292L327.501 176.355L342.316 195.329L349.958 205.246L330.214 217.585L331.539 219.633L310.143 233.836L326.166 260.757L287.211 284.518L278.576 272.089ZM324.356 244.159L319.046 235.831L321.722 234.163L323.838 237.667L326.577 235.857L331.085 242.533L345.831 232.199L341.002 224.663L339.534 225.607L337.244 222.187L351.673 213.031L364.979 234.601L366.098 236.4L342.163 250.825L332.462 256.836L324.356 244.159Z" fill="#9C9C9C"/>
</g>
<mask id="mask181_64_24689" style="mask-type:luminance" maskUnits="userSpaceOnUse" x="-813" y="-292" width="1520" height="855">
<path d="M707 -292H-813V563H707V-292Z" fill="white"/>
</mask>
<g mask="url(#mask181_64_24689)">
<path opacity="0.07" d="M227.519 219.269L219.117 210.64L225.962 200.744L229.867 195.34L231.704 192.437L237.314 185.08L243.104 177.458L247.849 171.078L253.496 163.446L266.97 145.269L272.654 138.065L270.016 135.59L279.553 125.15L297.893 140.836L309.604 154.722L307.208 157.239L289.586 175.147L289.026 174.561L280.133 183.918L274.291 190.035L272.538 191.83L266.986 197.609L259.154 205.916L253.322 211.854L246.218 219.39L237.304 228.6L227.519 219.269Z" fill="#9C9C9C"/>
</g>
</svg>
