<svg width="50" height="55" viewBox="0 0 50 55" fill="none" xmlns="http://www.w3.org/2000/svg">
<path fill-rule="evenodd" clip-rule="evenodd" d="M41.9948 7.18931C37.3814 2.58608 31.1243 0 24.6 0C18.0757 0 11.8186 2.58608 7.20517 7.18931C2.59178 11.7925 0 18.0359 0 24.5459C0 32.9296 4.58107 39.7861 9.40813 44.7144C11.9913 47.316 14.8228 49.6599 17.8623 51.7127L18.983 52.4572L19.5078 52.7981L20.9291 53.6709L22.0662 54.3309C22.8384 54.7694 23.7115 55 24.6 55C25.4885 55 26.3617 54.7694 27.1338 54.3309L28.2709 53.6709L29.1893 53.1118L30.2197 52.4572L30.7664 52.0945L31.9308 51.3036C34.7483 49.3526 37.3797 47.1468 39.7919 44.7144C44.6189 39.7916 49.2 32.9296 49.2 24.5459C49.2 18.0359 46.6082 11.7925 41.9948 7.18931ZM34.0001 34.2V12.8H29.5994V21.5992H20.2008V12.8H15.8001V34.2H20.2008V25.0943H29.5994V34.2H34.0001Z" fill="#E94B3E"/>
</svg>
