<svg width="50" height="55" viewBox="0 0 50 55" fill="none" xmlns="http://www.w3.org/2000/svg">
<path fill-rule="evenodd" clip-rule="evenodd" d="M41.9948 7.18919C37.3814 2.58596 31.1243 -0.00012207 24.6 -0.00012207C18.0757 -0.00012207 11.8186 2.58596 7.20517 7.18919C2.59178 11.7924 0 18.0358 0 24.5457C0 32.9295 4.58107 39.786 9.40813 44.7143C11.9913 47.3159 14.8228 49.6598 17.8623 51.7125L18.983 52.4571L19.5078 52.798L20.9291 53.6708L22.0662 54.3308C22.8384 54.7693 23.7115 54.9999 24.6 54.9999C25.4885 54.9999 26.3617 54.7693 27.1338 54.3308L28.2709 53.6708L29.1893 53.1117L30.2197 52.4571L30.7664 52.0944L31.9308 51.3035C34.7483 49.3524 37.3797 47.1467 39.7919 44.7143C44.6189 39.7915 49.2 32.9295 49.2 24.5457C49.2 18.0358 46.6082 11.7924 41.9948 7.18919ZM34.0001 34.1999V12.7999H29.5994V21.599H20.2008V12.7999H15.8001V34.1999H20.2008V25.0942H29.5994V34.1999H34.0001Z" fill="#E94B3E"/>
</svg>
