<svg width="50" height="55" viewBox="0 0 50 55" fill="none" xmlns="http://www.w3.org/2000/svg">
<path fill-rule="evenodd" clip-rule="evenodd" d="M41.9948 7.18931C37.3814 2.58608 31.1243 0 24.6 0C18.0757 0 11.8186 2.58608 7.20517 7.18931C2.59178 11.7925 0 18.0359 0 24.5459C0 32.9296 4.58107 39.7861 9.40813 44.7144C11.9913 47.316 14.8228 49.6599 17.8623 51.7127L18.983 52.4572L19.5078 52.7981L20.9291 53.6709L22.0662 54.3309C22.8384 54.7694 23.7115 55 24.6 55C25.4885 55 26.3617 54.7694 27.1338 54.3309L28.2709 53.6709L29.1893 53.1118L30.2197 52.4572L30.7664 52.0945L31.9308 51.3036C34.7483 49.3526 37.3797 47.1468 39.7919 44.7144C44.6189 39.7916 49.2 32.9296 49.2 24.5459C49.2 18.0359 46.6082 11.7925 41.9948 7.18931ZM11.4 14.6V32.6H13.7819V29H35.2182V32.6H37.6V21.8C37.6 20.48 37.1336 19.35 36.2007 18.41C35.2678 17.47 34.1464 17 32.8364 17H23.3091V26.6H13.7819V14.6H11.4ZM16.0148 24.35C16.7095 25.05 17.5531 25.4 18.5455 25.4C19.5379 25.4 20.3815 25.05 21.0762 24.35C21.7709 23.65 22.1182 22.8 22.1182 21.8C22.1182 20.8 21.7709 19.95 21.0762 19.25C20.3815 18.55 19.5379 18.2 18.5455 18.2C17.5531 18.2 16.7095 18.55 16.0148 19.25C15.3201 19.95 14.9728 20.8 14.9728 21.8C14.9728 22.8 15.3201 23.65 16.0148 24.35ZM34.518 20.1044C34.0511 19.634 33.4906 19.3992 32.8364 19.4C33.4908 19.4 34.0514 19.6348 34.518 20.1044ZM18.5455 23C18.2087 23 17.926 22.8852 17.6976 22.6556C17.9262 22.886 18.2089 23.0008 18.5455 23ZM18.5455 20.6C18.8823 20.6 19.165 20.7148 19.3934 20.9444C19.1648 20.714 18.8821 20.5992 18.5455 20.6Z" fill="#5491F5"/>
</svg>
