<svg width="50" height="55" viewBox="0 0 50 55" fill="none" xmlns="http://www.w3.org/2000/svg">
<path fill-rule="evenodd" clip-rule="evenodd" d="M41.9948 7.18919C37.3814 2.58596 31.1243 -0.00012207 24.6 -0.00012207C18.0757 -0.00012207 11.8186 2.58596 7.20517 7.18919C2.59178 11.7924 0 18.0358 0 24.5457C0 32.9295 4.58107 39.786 9.40813 44.7143C11.9913 47.3159 14.8228 49.6598 17.8623 51.7125L18.983 52.4571L19.5078 52.798L20.9291 53.6708L22.0662 54.3308C22.8384 54.7693 23.7115 54.9999 24.6 54.9999C25.4885 54.9999 26.3617 54.7693 27.1338 54.3308L28.2709 53.6708L29.1893 53.1117L30.2197 52.4571L30.7664 52.0944L31.9308 51.3035C34.7483 49.3524 37.3797 47.1467 39.7919 44.7143C44.6189 39.7915 49.2 32.9295 49.2 24.5457C49.2 18.0358 46.6082 11.7924 41.9948 7.18919ZM17.0127 20.3999L18.6113 11.5999H19.4107L19.011 17.9999L20.21 18.7999L20.6097 11.5999H21.409L21.8087 18.7999L23.0077 17.9999L22.608 11.5999H23.4073L25.006 20.3999C24.9926 21.0499 24.2936 21.52 23.5978 21.9881C22.889 22.4648 22.1833 22.9395 22.2083 23.5999L22.608 33.9999C22.6688 35.5999 21.0093 35.5999 21.0093 35.5999C21.0093 35.5999 19.3499 35.5999 19.4107 33.9999L19.8103 23.5999C19.8355 22.9559 19.1039 22.4831 18.381 22.0159C17.6328 21.5324 16.894 21.0549 17.0127 20.3999ZM28.2753 14.2191C29.0602 12.6479 31.0234 11.5999 32.2 11.5999V33.9999C32.2 35.5999 30.6014 35.5999 30.6014 35.5999C30.6014 35.5999 28.8588 35.5935 29.0027 33.9999L29.802 25.1999C29.1466 25.1999 27.404 24.9087 27.404 23.5999V19.5999C27.404 18.0287 27.6198 15.3967 28.2753 14.2191Z" fill="#F29900"/>
</svg>
