<svg width="50" height="55" viewBox="0 0 50 55" fill="none" xmlns="http://www.w3.org/2000/svg">
<path fill-rule="evenodd" clip-rule="evenodd" d="M41.9948 7.18931C37.3814 2.58608 31.1243 0 24.6 0C18.0757 0 11.8186 2.58608 7.20517 7.18931C2.59178 11.7925 0 18.0359 0 24.5459C0 32.9296 4.58107 39.7861 9.40813 44.7144C11.9913 47.316 14.8228 49.6599 17.8623 51.7127L18.983 52.4572L19.5078 52.7981L20.9291 53.6709L22.0662 54.3309C22.8384 54.7694 23.7115 55 24.6 55C25.4885 55 26.3617 54.7694 27.1338 54.3309L28.2709 53.6709L29.1893 53.1118L30.2197 52.4572L30.7664 52.0945L31.9308 51.3036C34.7483 49.3526 37.3797 47.1468 39.7919 44.7144C44.6189 39.7916 49.2 32.9296 49.2 24.5459C49.2 18.0359 46.6082 11.7925 41.9948 7.18931ZM17.0127 20.4L18.6113 11.6H19.4107L19.011 18L20.21 18.8L20.6097 11.6H21.409L21.8087 18.8L23.0077 18L22.608 11.6H23.4073L25.006 20.4C24.9926 21.05 24.2936 21.5201 23.5978 21.9882C22.889 22.465 22.1833 22.9396 22.2083 23.6L22.608 34C22.6688 35.6 21.0093 35.6 21.0093 35.6C21.0093 35.6 19.3499 35.6 19.4107 34L19.8103 23.6C19.8355 22.956 19.1039 22.4833 18.381 22.0161C17.6328 21.5326 16.894 21.0551 17.0127 20.4ZM28.2753 14.2192C29.0602 12.648 31.0234 11.6 32.2 11.6V34C32.2 35.6 30.6014 35.6 30.6014 35.6C30.6014 35.6 28.8588 35.5936 29.0027 34L29.802 25.2C29.1466 25.2 27.404 24.9088 27.404 23.6V19.6C27.404 18.0288 27.6198 15.3968 28.2753 14.2192Z" fill="#F29900"/>
</svg>
