<svg width="16" height="19" viewBox="0 0 16 19" fill="none" xmlns="http://www.w3.org/2000/svg">
<path d="M9.445 17.576C11.6238 15.6585 15.5 11.741 15.5 8.146C15.5 6.15687 14.7098 4.24922 13.3033 2.84269C11.8968 1.43617 9.98912 0.645996 8 0.645996C6.01088 0.645996 4.10322 1.43617 2.6967 2.84269C1.29018 4.24922 0.5 6.15687 0.5 8.146C0.5 11.741 4.375 15.6585 6.555 17.576C6.95264 17.9309 7.467 18.1271 8 18.1271C8.533 18.1271 9.04736 17.9309 9.445 17.576ZM5.5 8.146C5.5 7.48295 5.76339 6.84707 6.23223 6.37823C6.70107 5.90939 7.33696 5.646 8 5.646C8.66304 5.646 9.29893 5.90939 9.76777 6.37823C10.2366 6.84707 10.5 7.48295 10.5 8.146C10.5 8.80904 10.2366 9.44492 9.76777 9.91376C9.29893 10.3826 8.66304 10.646 8 10.646C7.33696 10.646 6.70107 10.3826 6.23223 9.91376C5.76339 9.44492 5.5 8.80904 5.5 8.146Z" fill="#5100FF"/>
</svg>
