<svg width="130" height="202" viewBox="0 0 130 202" fill="none" xmlns="http://www.w3.org/2000/svg">
<path fill-rule="evenodd" clip-rule="evenodd" d="M1.21902 1.3238C1.87525 0.10901 3.39202 -0.343795 4.60681 0.312437L31.9095 15.0613L71.3121 36.2436C71.5475 36.3701 71.761 36.5336 71.9447 36.7278L103.292 69.8729C103.305 69.8863 103.317 69.8999 103.33 69.9136L124.223 93.0104C124.307 93.1032 124.384 93.2021 124.453 93.3064L129.533 146.922C129.905 147.484 129.675 151.763 129.533 152.422C129.391 153.08 128.103 155.564 127.533 155.922L103.033 196.422L95.7824 200.97C94.6915 201.774 96.6145 202.039 95.7824 200.97L73.3852 176.329C72.5516 175.258 72.3345 176.559 73.3852 175.699L56.2287 156.56C55.3071 155.532 55.3934 153.951 56.4215 153.03C57.4497 152.108 59.0302 152.194 59.9518 153.223L78.8546 174.31C79.3103 174.818 78.9073 174.558 78.8546 175.238C78.4017 172.989 82.0612 176.99 81.5327 177.422L95.7824 193.558L99.5805 191.972C99.5281 192.005 99.6304 191.935 99.5805 191.972L123.533 149.422L120.389 96.2253L99.64 73.2883L68.5892 40.4565L29.542 19.4653L2.23039 4.7116C1.01559 4.05537 0.56279 2.5386 1.21902 1.3238Z" fill="#00BE9C"/>
</svg>
