<svg width="36" height="43" viewBox="0 0 36 43" fill="none" xmlns="http://www.w3.org/2000/svg">
<path d="M21.468 41.6444C26.697 36.9278 36 27.2915 36 18.4485C36 13.5557 34.1036 8.86321 30.7279 5.40344C27.3523 1.94368 22.7739 0 18 0C13.2261 0 8.64773 1.94368 5.27208 5.40344C1.89642 8.86321 7.11366e-08 13.5557 0 18.4485C0 27.2915 9.3 36.9278 14.532 41.6444C15.4863 42.5175 16.7208 43 18 43C19.2792 43 20.5137 42.5175 21.468 41.6444ZM12 18.4485C12 16.8176 12.6321 15.2534 13.7574 14.1002C14.8826 12.9469 16.4087 12.299 18 12.299C19.5913 12.299 21.1174 12.9469 22.2426 14.1002C23.3679 15.2534 24 16.8176 24 18.4485C24 20.0795 23.3679 21.6436 22.2426 22.7969C21.1174 23.9501 19.5913 24.598 18 24.598C16.4087 24.598 14.8826 23.9501 13.7574 22.7969C12.6321 21.6436 12 20.0795 12 18.4485Z" fill="#5491F5"/>
</svg>
