<svg width="2880" height="1620" viewBox="0 0 2880 1620" fill="none" xmlns="http://www.w3.org/2000/svg">
<mask id="mask0_12_7187" style="mask-type:luminance" maskUnits="userSpaceOnUse" x="0" y="-1" width="2880" height="1621">
<path d="M2880 -0.00012207H0V1620H2880V-0.00012207Z" fill="white"/>
</mask>
<g mask="url(#mask0_12_7187)">
<path d="M2815.36 569.75L2901.95 589.98L2902.7 590.16L2903.55 587.87L2904.03 586.37L2908.38 587.44L2924.06 591.05L2924.8 568.54L2910.14 565.88L2892.07 562.88L2872.42 558.41L2821.72 549.42L2813.11 547.13L2748.17 533.31L2719.6 530.29L2687.71 524.96L2607.59 511.98L2536.3 500.3L2502.97 488.99L2436.87 472.41L2438.37 468.26L2421.04 462.3L2363.75 444.38L2373.88 393.02L2379.93 376.25L2386.3 353.71L2396.46 337.19L2446.91 233.53L2457.28 212.04L2465.53 215.15L2505.96 130.69L2506.32 129.94L2498.28 125.51L2511.4 99.2798L2511.56 98.9598L2505.83 80.6699L2519.41 49.9498L2553.31 -18.7001L2607.09 -132.67L2662.07 -248.83L2729.33 -391.96L2764.31 -458.92L2812.91 -548.16L2813.32 -548.9L2807.86 -552.11L2841.21 -614.97L2778.67 -617.04L2778.1 -617.06L2775.69 -612L2772.47 -604.6L2739.65 -545.15L2714.26 -498.59L2701.73 -474.38L2700.9 -473.37L2669.66 -413.92L2666.64 -409.4L2643.48 -356.26L2628.23 -320.52L2627.39 -318.7L2614.22 -285.61L2598.82 -249.54L2596.77 -246L2588.63 -228.88L2581.06 -210.14L2575.42 -195.41L2569.29 -179.82L2563.34 -164.24L2545.19 -124.29L2531.92 -93.3101L2517.59 -58.4902L2506.82 -31.5101L2494.54 -1.57013L2492.75 1.80988L2480.1 33.5098L2452.86 93.7299L2445.98 107.15L2434.31 135.41L2415.66 180.88L2404.86 208L2401.9 212.93L2394.13 233.38L2392.91 236.09L2372.03 292.46L2369.4 302.58L2360.89 331.93L2357.1 339.12L2352.55 367.71L2349.92 383.59L2335.44 451.96L2298.17 438.68L2295.24 438.02L2256.42 425.46L2222.63 412.79L2196.53 403.32L2190.87 401.36L2132.65 384.43L2132.44 384.35L2135.25 346.79L2139.43 295.85L2140 290.68L2140.83 268.99L2140.46 239.24L2141.69 176.6L2145.87 109.74L2146.88 103.82L2167.72 29.1599L2176.79 5.40985L2190.84 -30.3502L2198.24 -43.1901L2258.41 -155.71L2265.76 -171.08L2267.98 -174.39L2278.79 -193.86L2298.36 -224.5L2304.18 -233.02L2305.43 -232.56L2318.49 -251.9L2338.86 -287.52L2366.36 -339.56L2370.62 -348L2385.52 -376.58L2385.86 -377.24L2384.62 -378.17L2393.53 -396.35L2407.31 -419.14L2407.62 -421.28L2425.52 -459.26L2436.63 -482.14L2438.59 -488.81L2439.06 -489.49L2452.19 -517.86L2509.05 -625.94L2499.69 -626.25L2487.72 -626.64L2469.2 -594.37L2440.67 -536.74L2414.03 -483.51L2413.66 -475.36L2383.85 -417.27L2369.86 -391.82L2369.29 -392.29L2348.1 -345.61L2334.91 -317.07L2329.27 -306.06L2316.64 -285.9L2299.34 -256.78L2292.78 -246.41L2275.73 -218.23L2275.54 -217.92L2275.8 -216.88L2255.12 -186.37L2246.5 -173.83L2238.72 -163.69L2235.71 -157.11L2232.35 -150.04L2223.05 -129.95L2208.89 -102.19L2178.74 -44.5001L2170.61 -29.8602L2165.84 -17.6401L2163.49 -13.4501L2138.43 41.4698L2105.58 32.6398L2096.99 24.1799L2090.68 12.0499L2080.54 -11.4102L2082.37 -12.6002L2079.88 -20.2202L2077.88 -25.8301L2075.34 -34.5302L2071.77 -52.9001L2069.16 -70.2202L2077.86 -135.32L2077.89 -135.56L2059.79 -176.71L2044.89 -211.49L2043.17 -214.76L2023.88 -253.54L2030.98 -257.76L2027.59 -265.27L2017.9 -284.38L2015.53 -288.93L1999.73 -320.56L1989.73 -339.23L1978.09 -360.81L1976.17 -363.9L1943.19 -424.72L1941.89 -423.81L1926.47 -443.91L1926.99 -444.43L1901.83 -473.58L1878.86 -500.91L1890.98 -534.17L1891.05 -534.36L1890.61 -535.1L1901.41 -568.39L1909.9 -595.38L1915.15 -631.9L1916.01 -631.77L1918.93 -645.46L1888.27 -646.48L1884.05 -628.98L1884.98 -628.78L1884.29 -625.29L1883.06 -625.43L1881.91 -621.41L1880 -612.82L1877.9 -602.98L1877.63 -601.25L1877.74 -599.56L1877.91 -598.74L1877.75 -598.16L1877.44 -597.36L1876.9 -596.41L1876.49 -595.41L1875.93 -593.31L1872.95 -584.9L1874.69 -584.16L1871.3 -574.64L1868.42 -567.73L1865.69 -560.86L1840.72 -507.17L1812.21 -451.83L1802.67 -432.05L1797.09 -421.54L1784.76 -399.34L1773.53 -378.16L1740.34 -329.18L1728 -308.89L1723.16 -302.57L1713.12 -289.82L1705.66 -280.03L1703.05 -276.83L1693.52 -270.27L1665.55 -255.59L1659.35 -269.44L1646.74 -264.51L1598.86 -246.22L1566.65 -234.67L1524.02 -219.68L1495.92 -212.16L1460.76 -203.18L1459.22 -209.8L1412.99 -192.65L1370.49 -179.62L1329.29 -167.59L1291.97 -164.12L1263.28 -166.61L1263.79 -177.12L1242.33 -180.73L1241.6 -180.86L1237.86 -169.92L1197.59 -175.24L1199.83 -181.25L1140.66 -199L1127.39 -205.07L1099.13 -203.03L1078.6 -197.67L1078.3 -197.59L1053.33 -164.01L1049.15 -167.14L1046.85 -164.25L1015.84 -139.78L1005.68 -129.46L982.01 -111.92L948.22 -146.95L942.25 -139.48L900.09 -174.54L876.18 -193.76L819.57 -235.59L802.11 -248.16L771.3 -269.92L762.31 -276.12L759.03 -279.29L714.74 -310.06L676.59 -339.49L666.78 -326.28L636.95 -339.61L633.35 -337.19L591.34 -369.18L597.14 -379.13L560.38 -405.57L535.2 -426.2L531.52 -427.01L527.81 -430.14L462.84 -475.34L405.91 -518.03L384.93 -536.62L312.46 -605.48L357.37 -660.53L373.6 -683.71L382.72 -696.35L371.37 -696.73L359.68 -697.12L340.29 -671.02L307.33 -627.66L264.14 -661.36L244.9 -676.29L213.88 -701.87L213.65 -702.06L37.1299 -707.91L14.7799 -708.65L9.77988 -558.05L9.76988 -557.61L56.5299 -520.14L59.9299 -517.07L62.9799 -514L129.37 -451.45L172.93 -414.7L178.21 -410.08L183.72 -406.52L300.5 -304.71L347.06 -258.67L350.95 -263.11L375.24 -243.51L403.49 -218.74L468.8 -154.56L500.91 -127.76L501.61 -127.18L548.67 -189L614.82 -131.65L715.25 -48.3701L736.46 -24.8502L737.18 -25.8301L821.46 56.9498L857.48 97.9399L951.97 212.43L995.38 267.8L1031.5 332.05L1056.04 394.36L1066.69 465.49L1056.84 483.93L1052.49 481.57L1043.36 498.37L1046.54 501.03L1030.34 534.01L1030.22 534.26L1032.13 546.84L980.13 608.52L947.81 609.62L948.05 614.06L939.45 614.31L909.54 647.69L872.16 686.53L812.63 737.63L737.09 799.08L609.4 877.26L541.9 910.82L473.99 942.18L469.52 933.55L438.4 948.83L441.42 955.01L436.15 957.91L432.93 951.53L403.09 966.22L405.42 971.77L392.85 979.19L364.31 995.22L314.05 1016.87L280.31 1030.47L215.11 1059.75L149.29 1082.24L110.91 1098.78L49.5699 1124.69L33.2099 1123.6H33.1299L-46.3201 1149.4L-46.9001 1149.59L-54.8301 1388.52L-54.8701 1389.74L18.3599 1367.66L67.9399 1348.31L137.59 1316.09L194.62 1390.13L194.8 1390.37L199.62 1391.58L247.48 1443L289.15 1478.46L289.73 1478.96L290.74 1478.05L329.06 1511.84L345.48 1529.51L342.67 1532.18L351.86 1542.94L363.87 1559.61L366.94 1564.55L372.21 1560.86L373.02 1561.96L370.89 1563.38L381.86 1578.47L382.31 1579.09L384.23 1578.06L385.54 1580.01L386.37 1584.27L396.34 1605.75L418.22 1672.12L412.91 1687.25L419.98 1703.56L428.54 1724.66L428.44 1728.22L432.37 1737.41L447.42 1774.46L456.78 1796.66L461.97 1806.83L481.15 1841.99L507.06 1883.51L475.26 1907.26L432.91 1940.2L355.58 1993.93L339.83 2004.7L324.4 2014.22L314.73 2020.61L261.82 2056.9L242.94 2077.75L204.09 2121.02L201.91 2124.45L177.2 2167.74L167.79 2211.9L167.19 2214.27L166.88 2216.36L161.27 2240.81L161.04 2241.84L175.08 2242.31L183.37 2202.67L199.78 2169.99L202.06 2167.06L222.7 2128.9L259.39 2087.67L275.6 2069.85L319.92 2037.63L336.21 2027.92L340.32 2024.06L370.37 2002.97L446.54 1958.84L447.32 1958.04L454.8 1943.06L464.44 1933.25L478.57 1924.57L485.71 1919.2L523.34 1891.46L549.59 1922.77L557.18 1932.53L563.57 1940.96L583.58 1968.26L590.66 1977.65L615.4 2011.74L668.79 2101.82L671.21 2109.51L682.88 2147.9L693.18 2183.08L696.13 2193.6L696.62 2195.71L699.72 2217.58L700.01 2234.43L704.08 2259.11L704.2 2259.81L738.8 2260.96L730.38 2219.05L727.05 2202.05L713.81 2158.9L712.26 2152.39L696.68 2101.09L692.88 2092.26L670.38 2047.88L656.51 2022.21L626.66 1965.48L723.19 1931.98L754.54 1928.99L778.27 1931.61L844.88 1933.79L860.49 1934.48L904.04 1926.25L961.07 1905.85L979.71 1895.93L1005.06 1877.86L1028.43 1860.14L1034.42 1868.6L1070.83 1915.11L1067.55 1917.54L1080.29 1933.62L1082.89 1931.75L1107.51 1963.93L1117.31 1976.39L1181.12 2053.95L1181.53 2054.45L1189.57 2060.03L1187.47 2062.91L1200.76 2069.93L1202.42 2066.59L1218.71 2076.77L1223.73 2082.06L1267.33 2160.39L1267.79 2161.22L1275.42 2156.12L1273.59 2153.29L1311.94 2127.67L1314.1 2130.43L1322.26 2125.64L1328 2124.74L1333.49 2124.76L1333.58 2124.9L1333.85 2124.76H1334.51L1334.35 2124.49L1339.43 2121.82L1340.89 2124.85L1372.51 2103.55L1380.32 2098.48L1386.88 2094.03L1394.92 2089.1L1398.1 2087.07L1400.7 2085.54L1411.22 2079.03L1442.77 2061.12L1464.99 2049.83L1480.22 2042.55L1514.55 2026.43L1521.71 2022.71L1528.74 2018.62L1543.91 2007.06L1583.35 1980.22L1609.98 1961.59L1658.77 1928.26L1659.38 1927.84L1658.86 1927.58L1643.36 1887.7L1639.97 1880.41L1632.83 1861.14L1634.08 1850.47L1634.56 1844.81V1844.75L1630.9 1830.1L1634.73 1829.18L1635.73 1805.29L1642.07 1790.2L1646.26 1780.41L1653.94 1761.07L1663.49 1742.59L1679.49 1712.65L1694.35 1703.72L1691.98 1702.7L1692.37 1702.13L1676.58 1686.25L1662 1671.92L1643.41 1653.52L1637.96 1648.51L1640.41 1645.69L1635.55 1641.12L1632.18 1644.52L1604.55 1622.92L1585.11 1607.53L1574.65 1599.48L1548.7 1577.59L1537.71 1567.29L1536.28 1575.47L1528.86 1578.85L1523.49 1576.59L1523.35 1576.53L1505.37 1581.54L1448.71 1562.71L1447.04 1561.8L1431.78 1552.26L1396.27 1529.73L1447.56 1454.06L1452.77 1446.63L1495.93 1387.29L1512.34 1365.05L1532.79 1339.83L1556.15 1310.62L1562.54 1302.47L1568.99 1294.34L1605.42 1249.01L1605.49 1248.92L1652.35 1256.82L1721.67 1268.77L1741.05 1267.9L1741.54 1267.88L1751.02 1250.88L1788.84 1257.98L1792.57 1258.8L1797.7 1259.6L1858.79 1286.47L1875.48 1297.85L1921.4 1346.91L1926.89 1356.01L1939.36 1378.01L1999.67 1474.12L2007.87 1488.06L1997.03 1496.45L2024.43 1529.67L2046.63 1556.41L2059.4 1571.59L2059.92 1572.21L2103.03 1541.57L2108.45 1538.03L2130.36 1528.49L2155.56 1529.36L2156.11 1529.38L2165.94 1534.44L2186.65 1566.11L2191.1 1570.83L2195.02 1577.78L2199.08 1586.93L2203.26 1599.74L2222.66 1682.09L2223.37 1702.31L2230.44 1741.7L2233.76 1755.94L2235.81 1764.47L2234.21 1765.73L2232.77 1767.56L2239.95 1800.36L2240.11 1801.08L2242.91 1800.95L2244.52 1812.16L2252.71 1855.87L2255.94 1871.46L2259.2 1889.17L2271.35 1948.81L2297.65 2079.86L2324.24 2207.5L2327.44 2221.68L2335.64 2266.36L2340.17 2283.31L2337.02 2283.53L2342.73 2314.15L2387.66 2315.64L2388.81 2315.68L2383.39 2293.45L2360.71 2214.31L2357.5 2200.09L2345.39 2153.1L2348.87 2152.27L2347.71 2147.04L2344.24 2147.73L2327.56 2052.54L2310.21 1957.75L2307.5 1938.95L2314.37 1937.64L2312.14 1923.68L2305.82 1924.78L2297.92 1886.33L2290.79 1854.03L2283.22 1832.56L2277.81 1806.54L2262.86 1732.14L2254.96 1691.97L2239.67 1622.91L2233.83 1599.24L2227.85 1580.4L2220.69 1562.51L2204.99 1530.46L2174.58 1489.78L2162.01 1472.94L2239.24 1388.86L2264.47 1359.21L2274.01 1350.19L2298.02 1328.56L2312.38 1315.79L2315.11 1319.37L2322.25 1312.87L2331.73 1325.94L2373.48 1388.66L2406.17 1440.19L2433.37 1483.48L2449.5 1503.34L2449.76 1503.66L2458.44 1503.68L2492.02 1486.5L2516.29 1475.54L2536.86 1469.85L2548.12 1469.46L2558.87 1472.46L2568.13 1476.82L2603.64 1497.78L2623.15 1510.52L2625.27 1511.73L2627.4 1512.85L2672.31 1529.51L2678.47 1532.18L2700.3 1540.85L2718.6 1548.24L2751.59 1564.52L2756.69 1567.95L2807.93 1599.79L2836.06 1618.8L2846.14 1629.39L2870.18 1652.51L2851.8 1673.67L2839.89 1687.34L2825.65 1701.43L2809.3 1717.97L2799.97 1719.75L2767.82 1760.65L2759.92 1769.14L2747.35 1774.05L2738.57 1772.86L2730.76 1771.46L2719.9 1769.14L2707.76 1763.14L2703.34 1773.29L2701.24 1807.71L2703 1811.39L2702.45 1821.26L2701.95 1857.27L2703.18 1878.32L2707.02 1984.73L2705.14 2033.98L2706.61 2033.99L2707.13 2073.82L2709.74 2145.33L2710.4 2165.61L2713.22 2214.79L2713.8 2222.81L2719.12 2320.46L2719.86 2326.63L2747.17 2327.54L2745.84 2317.7L2738.13 2273.26L2736.54 2222.56L2735.09 2183.73L2730.27 2127.62L2728.7 2101.52L2728.17 2074.67L2727.99 2037.92L2727.62 2014.92L2725.95 1970.25L2724.06 1927.7L2723.37 1910.84L2721.62 1910.78L2720.91 1850.34L2725.26 1789.86L2761.87 1785.64L2771.52 1782.31L2771.75 1782.23L2777.07 1775.92L2820.01 1730.48L2868.4 1687.95L2887.36 1682L2887.95 1681.82L2888.99 1650.36L2889 1650.07L2885.33 1644.96L2881.81 1640.89L2862.22 1618.93L2843.84 1603.92L2812.41 1582.84L2787.92 1570.45L2767.23 1557.81L2765.14 1553.87L2726.25 1535.61L2700.52 1523.93L2669.6 1511.17L2644.67 1501.96L2636.73 1498.36L2616.31 1487.68L2576.82 1461.13L2571.47 1457.92L2572.93 1456.18L2566.78 1453.12L2561.91 1451.13L2556.76 1449.96L2550.56 1449.27L2544.64 1449.46L2538.47 1450.89L2512.86 1458.92L2453.18 1482.77L2425.7 1442.56L2418.72 1431.88L2416.96 1429.53L2401.85 1406.97L2393.29 1393.43L2369.35 1356.61L2342.97 1314.78L2338.45 1305.53L2336.91 1299.54L2352.01 1289.55L2352.13 1289.47L2365.68 1288.79L2393.54 1277.49L2396.62 1275.95L2448.43 1252.71L2490.64 1220.17L2503.3 1206.52L2517.61 1187.05L2536.43 1167.45L2543.13 1158.92L2593.72 1103.29L2595.43 1101.33L2598.43 1093.52L2621.51 1064.23L2661.45 1036.99L2666.84 1034.99L2699.05 1018.43L2793.71 975.7L2830.44 1066.53L2840.32 1091.99L2860.15 1137.86L2867.24 1151.25L2899.59 1204.14L2903.52 1210.03L2906.06 1133.3L2906.07 1133.07L2902.19 1125.64L2892.07 1105.48L2843.58 997.13L2848.93 920.74L2852.26 878.82L2854.88 852.45L2858.11 835.97L2863.79 802.01L2865.16 769.34L2866.84 759.92L2884.61 691.48L2920.04 711.13L2921.18 676.72L2921.2 676.18L2880.55 653.99L2879.85 653.61L2877.6 656.96L2866.03 649.51L2837.01 629.44L2838.81 626.33L2802.87 602.53L2784.19 588.66L2792.41 565.38L2815.36 569.75ZM1616.83 1810.7L1615.94 1816.53L1614.38 1824.4L1614.36 1824.52L1616.42 1849.19L1617.91 1874.75L1627.44 1895.11L1639.46 1919.69L1595.24 1952.1L1524.04 1994.16L1516.38 1998.93L1503.47 2006.03L1459.25 2029.83L1452.8 2031.98L1435.52 2042.41L1388.83 2069.92L1366.43 2084.16L1357.9 2088.97L1355.41 2090.29L1325.18 2109L1290.58 2063.33L1286.88 2059.92L1275.18 2050.22L1263.75 2043.17L1256.1 2039.95L1256 2039.91L1241.91 2040.74L1222.8 2043.44L1221.67 2043.41L1217.22 2042.87L1215.38 2042.53L1214.11 2042.03L1211.73 2041.22L1209.76 2040.41L1207.79 2039.73L1206.31 2039.06L1204.21 2037.78L1202.26 2036.48L1200.99 2035.84L1198.81 2034.32L1196.44 2032.55L1191 2036.38L1134.04 1963.43L1130.39 1958.51L1126.63 1952.74L1077.22 1887.64L1079.55 1886.12L1048.89 1846.98L1037.59 1831.69L1063.71 1803.31L1081.07 1784.84L1101.16 1770.39L1101.34 1770.26L1101.45 1759.27L1102.4 1750.14L1098.08 1740.76L1094.93 1733.38L1092.4 1727.31L1111.42 1665.93L1150.14 1647.42L1168.49 1638.59L1192.65 1634.54L1241.43 1605.21L1246.71 1601.51L1295.66 1574.04L1319.5 1561.54L1340.72 1549.07L1367.94 1532.82L1424.54 1568.56L1449.58 1581.79L1474.88 1595.62L1484.19 1596.3L1496.31 1594.79L1502.2 1592.37L1504.05 1589.28L1507.9 1591.4L1532.17 1596.32L1534.18 1597.74L1570.76 1618.28L1576.75 1622.77L1615.74 1653.64L1632.78 1666.83L1649.65 1679.14L1663.07 1690.59L1646.71 1732.13L1620.86 1793.55L1616.83 1810.7ZM999.32 1822.06L988.95 1829.66L970.11 1874.14L968.43 1875.87L966.83 1876.74L965.29 1877.1L962.92 1876.81L959.29 1880.94L957.91 1881.93L955.98 1879.22L945.93 1886.78L948.34 1889.97L946.13 1891.47L940.72 1893.87L909.76 1904.03L899.38 1905.38L897.16 1905.84L861.37 1911L835.43 1907.9L829.62 1905.92L755.66 1905.31L715.07 1913.83L688.31 1924.1L670.22 1930.63L598.57 1955.45L564.19 1912.16L505 1826.93L504.87 1826.74L501.27 1825.03L490.14 1807.16L480.41 1783.71L481.85 1782.98L463.53 1738.24L470.31 1735.12L465.7 1721.11L462.2 1708.83L457.35 1695.58L461.44 1694.05L454.68 1676.17L450.25 1677.78L443.4 1658.72L435.16 1645.8L422.62 1614.85L414.59 1596.67L394.05 1547.69L390.12 1540.99L377.43 1523.64L369.05 1514.76L371.72 1512.5L364.78 1505.42L362.04 1506.98L339.49 1481.03L325.51 1470.26L292.64 1444.53L196.84 1349.96L196.17 1349.3L194.73 1350.97L165.74 1310.33L188.04 1299.51L250.25 1270.33L258.38 1266.8L263.76 1264.69L314.85 1240.14L393.46 1203.75L397.16 1210.49L560.34 1133.95L665.45 1067.43L742.39 1019.77L817.55 969.89L824.59 981.04L832.93 975.47L899.33 1072.64L987.32 1200.99L992.93 1213.09L1002.48 1228.64L1006.87 1225.65L1007.34 1226.22L1006.86 1226.45L1018.87 1243.19L1033.03 1263.35L1041.73 1275.36L1059.39 1298.43L1063.9 1301.55L1078.29 1317.92L1083 1324.14L1092.31 1336.02L1104.83 1349.77L1113.83 1359.92L1128.24 1375.66L1145.34 1395.82L1206.56 1468.82L1211.94 1473.82L1218.29 1474.07L1269.47 1505.77L1280.82 1513.39L1312.48 1531.42L1278.95 1565.3L1267.25 1572.82L1238.85 1589.5L1225.09 1597.07L1182.42 1616.01L1174.16 1618.8L1117.47 1641.9L1114.89 1638.38L1107.12 1642L1110.15 1645.57L1061.01 1676.28L1060.51 1676.6L1063.13 1690.4L1074.95 1742.98L1074.38 1746.78L1069.93 1753.19L1070.05 1759.28L1066.27 1766.14L1032.87 1795.24L1009.01 1811.25L1011.22 1814.76L1000.15 1821.43L1000.13 1821.42L999.19 1822.01L999.32 1822.06ZM1437.2 1421.2L1433.61 1426.85L1430.54 1430.8L1423.83 1438.78L1397.31 1471.83L1393.26 1475.62L1380.01 1489.23L1356.14 1510.67L1336.57 1525.55L1310.49 1511.18L1298.21 1503.27L1290.24 1497.98L1270.17 1483.25L1264.58 1479.26L1243.74 1464.08L1220.16 1442.74L1216.25 1440.04L1211.27 1435.58L1198.19 1423.42L1098.19 1318.79L1089.79 1308.05L1002.28 1197.48L996.45 1189.91L969.54 1151.42L945.36 1113.32L938.77 1090.5L893.01 1025.29L877.3 1007.53L879.13 1005.99L849.17 963.78L843.46 955.7L862.99 938.98L863.65 938.42L859.68 933.66L880.94 915.54L884.75 920.36L907.04 901.3L912.85 893.81L923.97 878.36L975.71 808.23L1002.48 770.98L1065.3 709.34L1065.59 709.06L1063.96 686.79L1121.61 620.92L1145.83 617.79L1200.03 442.34L1337.55 473.74L1361.01 479.55L1375.34 481.72L1393.88 486.94L1412.9 492L1427.9 496.12L1445.57 505.17L1490.6 528.9L1525.72 549.35L1527.29 550.03L1535.56 555.61L1540.05 561.96L1542.18 569.41L1541.9 571.73L1542.18 579.26L1542.53 591.52L1542.89 598L1543.36 608.21L1547.51 669.33L1549.66 696.52L1549.73 702.8V708.95L1548.84 726.12L1546.59 736.87L1537.67 781.32L1534.97 794.64L1530.8 816.32L1525.07 833.56L1516.89 859.08L1500.36 907.08L1482.56 959.74L1477.44 969.5L1475.78 975.72L1468.78 999.28L1467.76 1001.83L1458.38 1082.91L1447.66 1159.74L1447.56 1160.45L1462.67 1165.8L1460.91 1173.01L1475.39 1176.78L1477.04 1170.71L1480.37 1172.09L1482.09 1175L1481.81 1177.43L1480.84 1180.21L1483.07 1181.54L1479.79 1189.24L1505.03 1205.39L1537.23 1226.37L1562.96 1243.92L1571.05 1249.25L1539.71 1291.21L1519.72 1318.14L1516.41 1323.38L1487.14 1361.85L1479.79 1376.29L1458.66 1401.17L1456.08 1399.11L1443.22 1414.55L1437.2 1421.2ZM1203.87 -144.48L1202.78 -138.94L1212.5 -137.9L1270.26 -131.16L1280.03 -130.52L1332.2 -136.08L1350.63 -140.77L1385.68 -149.88L1388.84 -151.16L1408.73 -157.36L1512.74 -191.48L1564.88 -207.13L1583.42 -213.11L1626.68 -222.3L1632.01 -223.86L1664.54 -231.85L1680.16 -235.58L1688.4 -236.42L1691.47 -228.41L1704.1 -234.28L1700.47 -241.4L1723.23 -257.07L1726.65 -253.26L1733.28 -258.31L1727.76 -265.06L1745.77 -289.23L1778.89 -328.64L1814.06 -379.56L1815.14 -383.03L1824.28 -396.94L1838.78 -422.66L1858.22 -455.92L1873.52 -472.05L1918.09 -420.83L1930.75 -399.54L1963.06 -341.92L1965.38 -338.87L1989.73 -282.31L1993.37 -272.77L1995.59 -267.3L2010.76 -232.6L2022.02 -198.03L2029.04 -178.94L2049.05 -106.65L2048.28 -97.8201L2046.94 -67.7101L2046.95 -55.8701L2046.03 -55.3201L2007.99 -22.8201L2001.04 -16.4202L1970.47 20.2999L1950.17 46.8898L1934.96 67.1398L1927.87 78.4598L1903.9 118.23L1887.14 149.31L1885.82 154.48L1870.96 185.24L1865.07 196.91L1855.47 217.91L1843.07 236.75L1809.46 274.62L1800.17 285.75L1787.89 300.8L1725.08 248.55L1723.2 246.91L1699.97 229.58L1699.38 230.54L1651.1 199.32L1645.82 194.17L1609.52 169.97L1605.45 166.86L1569.06 142.2L1557.12 135.38L1540.99 127.56L1521.42 117.53L1499.94 105.83L1479.67 94.5999L1464.78 88.1799L1448.2 81.9698L1433.16 76.5198L1425.28 73.4799L1417.8 69.9698L1410.63 66.4899L1403.79 61.8898L1400.43 59.0399L1396.17 55.0898L1393.81 52.5098L1392.28 50.6498L1391.46 49.8599L1389.86 47.6099L1381.13 33.6899L1392.54 28.2399L1387.46 23.3398L1372.46 16.9799L1373.08 14.7999L1368.06 13.7198L1341.44 20.0098L1330.92 20.4899L1294.18 19.6398L1290.51 17.5499L1252.13 16.9799L1217.18 21.7499L1195.85 24.9999L1116.83 44.1398L1099.78 51.9999L1074.21 5.18988L1061.65 11.1398L1014.31 -64.1002L993.58 -99.7101L1057.32 -144.52L1060.62 -147.12L1090.35 -163.35L1102.32 -169.78L1121.78 -172.91L1141.81 -169.99L1156.58 -166.15L1179.43 -159.09L1204.89 -148.98L1203.87 -144.48ZM1181.51 358.55L1182.31 358.5L1180.65 340.6L1193.86 339.44L1191.31 313.67L1168.98 316.25L1163.38 268.84L1157.78 249.33L1164.85 247.35L1161.45 236.33L1155.36 238.77L1150.2 221.8L1136.15 148.86L1140.99 147.32L1136.74 128.36L1132.06 106.76L1141.03 105.03L1138.44 94.6699L1130.05 96.4698L1128.45 88.0198L1121.3 58.0098L1185.71 42.7598L1208.14 38.4399L1246.16 38.4799L1307.2 37.3799L1338.83 38.9299L1355.58 42.7299L1357.04 38.0098L1363.91 42.7299L1362.45 47.6998L1368.75 53.1599L1383.26 71.2198L1427.02 92.3198L1486.85 120.93L1514.1 136.93L1517.47 139.05L1527.06 144.51L1549.08 157.22L1571.46 171.09L1602.89 191.46L1635.84 213.08L1729.84 276.34L1733.67 279.97L1768.13 315.77L1713.12 373.14L1707.68 379.19L1704.19 376.45L1699.01 383.18L1691.8 382.45L1667.14 409.8L1654.67 410.96L1637.6 436.57L1626.13 429.19L1595.25 472.08L1573.82 501.75L1561.28 519.32L1522.39 511.99L1499.05 502.54L1504.95 488.15L1476.49 482.42L1445.76 472.1L1425.64 465.09L1395.7 458.1L1345.88 448.01L1333.77 445.72L1321.73 443.24L1262.61 427.57L1217.76 421.04L1173.82 414.8L1181.51 358.55ZM2383.31 557.26L2358.67 598.41L2329.53 645.06L2299.36 685.78L2296.67 690.9L2271.66 725.58L2231.45 779.92L2218.67 797.41L2216.67 799.42L2196.88 817.22L2195.64 817.87L2172.85 836.25L2166.15 841.9L2162.79 840.89L2160.14 839.5L2155.06 837.49L2146.47 829.1L2108.67 789.9L2069.77 757.86L2087.81 719.04L2111.56 667.41L2111.94 666.6L2110.81 666.1L2116.84 652.66L2123.12 641.12L2127.73 631.2L2131.97 619.86L2139.45 599.46L2141.25 588.8L2151.65 556.21L2191.6 438.8L2253.69 467.38L2313.38 489.91L2314.13 490.2L2314.42 489.59L2342.79 503.88L2359.37 511.46L2399.27 530.32L2383.31 557.26ZM2159.38 484.46L2151.32 508.3L2146.86 524.37L2140.65 548.25L2129.15 583.87L2124.39 593.97L2103.27 650.48L2091.58 679.48L2079.74 707.07L2076.53 714.91L2063.88 742.88L2060.36 750.34L2050.05 780.3L2048.42 785.63L2044.82 789.74L2028.19 809.15L1993.24 801.21L1963.23 792.68L1948.84 788.66L1933.06 783.9L1917.79 779.1L1899.57 775.92L1865.11 761.05L1832.05 744.7L1841.58 699.98L1846.16 684.37L1849.25 676.66L1851.61 670.36L1835.15 666.08L1801.81 660.18L1780.13 653.79L1758.65 646.98L1735.53 639.42L1734.11 642.6L1717.2 638.76L1711.59 637.33L1658.93 625.03L1659.15 620.56L1641.69 616.95L1632.86 615.19L1592.05 607.81L1563.99 602.45L1576.63 545.65L1582.42 534.39L1605.19 494.63L1610.78 489.8L1625.24 472.73L1637.72 480.63L1648.94 464.85L1658.04 453.13L1659.21 451.24L1670.94 449.81L1674.64 449.52L1687.39 430.58L1693.55 421.96L1701.06 410.92L1718.35 392.35L1720.04 390.63L1721.17 389.29L1748.87 368.34L1769.06 352.88L1780.11 341.37L1781.23 340.12L1800.82 322.4L1808.28 316.05L1815.42 312.32L1818.23 312.3L1859.21 331.52L1914.37 362.29L1915.29 362.8L1922.35 341.63L1935.43 345.78L1933.63 353.78L1954.84 360.03L1955.26 360.15L1957.82 351.18L1962.18 352.84L2000.58 365.27L2004.65 368.05L2050.83 383.56L2067.04 389.92L2093.42 402.57L2098.8 406.73L2102.44 408.49L2104.85 409.45L2169.43 441.31L2159.38 484.46ZM2318.2 1062.99L2307.7 1021.59L2303.49 1024.61L2284.79 998.99L2274.49 981.1L2248.09 945.42L2225.35 914.34L2200.9 880.73L2195.51 872.7L2188.91 863.33L2194.03 856.27L2232.32 814L2239.82 804.25L2278.51 755.36L2289.54 742.24L2298.43 732.11L2323.26 704.93L2330.43 692.45L2364.81 644.47L2364.95 644.28L2365.77 636.62L2368.95 625.88L2418.46 560.23L2451.44 538.5L2462.9 564.53L2483.02 557.4L2479.92 547.88L2471.86 521.61L2557.92 533.75L2575.64 537.64L2582.76 538.91L2644.45 553.59L2687.27 563.67L2687.25 562.94L2733.55 573.02L2742.53 573.9L2742.15 577.3L2743.3 577.85L2741.75 586.41L2750.09 590.18L2764.75 596.37L2778.79 606.96L2790.59 616.9L2789.92 622.99L2789.76 626.39L2815.78 641.1L2814.57 643.51L2843.57 663.34L2853.46 671.46L2861.84 676.27L2866.02 678.6L2866.12 678.63L2843.8 743.47L2840.2 752.88L2836.8 820.51L2835.94 847.37L2831.03 896.65L2830.31 902.08L2829.78 901.9L2827.46 920.04L2825.13 936.61L2792.09 946.98L2747.86 967.18L2705.35 987.08L2689.98 995.9L2678 1002.62L2656.35 1017.03L2635.67 1031.86L2591.51 1070.02L2584.95 1076.72L2576.91 1085.58L2559.34 1107.82L2532.13 1139.28L2507.84 1165.52L2497.79 1176.93L2500.88 1180.77L2476.18 1206.21L2440.34 1234.21L2390.43 1251.8L2384.63 1253.76L2350.11 1266.05L2347.79 1253.73L2346.27 1249L2345.45 1244.82L2334.86 1211.07L2327.8 1175.96L2327.19 1159.41L2323.77 1117.46L2313.23 1064.01L2318.2 1062.99ZM2116.96 134.17L2116.44 137.76L2110.42 165.17L2110.35 165.47L2115.45 175.7L2115.51 225.02L2113.48 224.59L2113.49 236.97L2115.97 237.64L2115.45 280.83L2117.3 308.13L2119.06 326.69L2116.62 373.45L2115.48 377.74L2108.36 374.71L2046.17 355.07L2009.68 339.96L1996.29 334.76L1976.88 327.73L1960.77 322.16L1907.49 307.44L1832.26 285.08L1843.74 265.75L1865.68 226.31L1876.96 206.59L1905.68 149.34L1913.95 153.8L1917.94 146.97L1929.89 125.8L1930.33 125.02L1924.59 121.95L1924.27 122.45L1923.06 121.62L1923.26 121.3L1924.05 121.65L1929.06 113.83L1928.47 113.33L1929.01 112.58L1929.66 112.88L1933.2 106.82L1932.66 106.45L1933.11 105.69L1933.92 106.14L1938.18 99.1099L1937.44 98.5698L1937.91 97.7798L1938.88 98.3699L1942.98 91.3699L1942.21 90.9299L1942.66 90.2399L1943.48 90.8599L1947.6 84.0499L1946.72 83.7299L1947.29 82.7899L1948.36 83.2598L1952.55 75.8298L1951.94 75.3799L1952.43 74.4899L1953.4 74.9999L1957 69.2698L1956.05 68.7899L1956.64 67.8898L1957.52 68.3099L1961.79 61.6199L1960.84 61.0098L1961.36 60.2698L1962.33 60.5698L1965.95 54.6599L1965.1 54.0599L1965.59 53.3898L1966.35 53.8799L1970.26 47.8099L1969.38 47.2598L1969.91 46.3998L1970.82 46.7198L1975.15 39.4399L1974.45 38.9799L1974.65 38.6899L1975.74 39.6099L1976.28 38.5898L1976.76 37.1299L1977.49 35.6699L1978.13 35.0098L1978.8 34.5999L1980.31 34.0698L1981.26 34.0399L1982.05 34.1799L1983.6 34.8699L1988.76 28.9299L1987.81 28.2899L1988.52 27.5198L1989.52 28.0399L1994.44 22.3998L1994.7 22.1099L1994.08 21.4099L1994.76 20.4299L2003.94 13.9399L2009.45 9.41986L2017.86 1.69983L2024.23 -4.79016L2047.31 -21.9302L2058.79 -3.68018L2068.97 11.8799L2071.21 14.8699L2072.06 17.1199L2077.6 30.6199L2078.53 33.9899L2077.42 39.6599L2096.61 54.6699L2126.37 80.0198L2126.68 80.2899L2116.96 134.17ZM2117.91 1499.76L2110.48 1508.44L2102.22 1514.66L2092.28 1514.94L2067.95 1524.76L2036.49 1480.66L2022.29 1462.12L2006.58 1433.86L2008.41 1432.63L1995.99 1406.74L1982.68 1384.94L1947.79 1331.19L1912.51 1286.63L1902.39 1280.01L1865.4 1257.47L1833.45 1238.44L1831.8 1237.39L1827.04 1234.07L1805.77 1235.91L1766.89 1220.92L1763.38 1230.55L1760.79 1232.54L1700.54 1232.92L1651.29 1235.17L1640.42 1234.9L1615.46 1228L1596.89 1221.95L1576.96 1214.71L1554.26 1203.08L1523.37 1184.89L1508.76 1160.72L1503.97 1150.44L1500.56 1110.6L1496.32 1058.03L1499.03 1027.07L1500.76 1014.79L1506.4 984.98L1510.87 963.34L1518.82 934.96L1520.79 929.61L1524.32 920.77L1530.93 903.7L1537.17 885.55L1548.46 853.47L1556.29 821.13L1561.29 802.53L1562.14 798.48L1562.93 793.9L1571.01 751.84L1574.07 702.03L1579.46 661.39L1584.75 625.82L1649.35 635L1651.01 635.75L1655.35 637.34L1664.16 639.64L1691.95 646.67L1722.74 657.56L1732.48 660.13L1754.7 665.23L1790.63 673.93L1826.61 686.55L1818.53 719.51L1809.47 742.47L1808.06 746.45L1806.71 751.46L1813.41 753.9L1841.72 770.15L1863.01 779.87L1867.94 783.6L1871.69 786.49L1882.06 791.61L1893.26 797.29L1897.52 788.13L1926.16 795.93L1937.65 799.42L1966.34 806.13L1986.58 811.1L1986.64 811.12L1996.46 810.57L2029.33 824.4L2029.84 824.61L2045.31 810.7L2069.66 784.06L2107.97 816.81L2138.69 853.19L2164.46 884.54L2192.58 920.54L2210.42 943.7L2223.9 962.71L2247.1 1005.46L2244.41 1006.7L2254.71 1026.22L2254.91 1026.61L2256.64 1025.69L2261.55 1035.14L2268.18 1049.6L2266.08 1050.87L2276.38 1074.19L2284.01 1100.76L2287.18 1112.25L2289.99 1123.82L2292.73 1134.22L2290.52 1142.33L2290.46 1142.55L2297.66 1172.99L2302.27 1191.37L2317.58 1256.39L2319 1261.32L2323.37 1281.39L2297.66 1300.58L2274.34 1318.43L2264.67 1319.36L2239.24 1343.52L2199.53 1393.95L2197.71 1396.06L2195.96 1398.38L2158.09 1442.9L2139.91 1463.66L2139.54 1464.08L2142.26 1470.2L2134.62 1475.86L2126.55 1489.96L2117.91 1499.76Z" fill="#8EC1F9"/>
</g>
<mask id="mask1_12_7187" style="mask-type:luminance" maskUnits="userSpaceOnUse" x="0" y="-1" width="2880" height="1621">
<path d="M2880 -0.00012207H0V1620H2880V-0.00012207Z" fill="white"/>
</mask>
<g mask="url(#mask1_12_7187)">
<path d="M2724.38 2321.77L2724.17 2320.03L2718.86 2222.54L2718.27 2214.43L2715.45 2165.38L2714.79 2145.16L2712.18 2073.7L2711.59 2029.03L2710.38 2029.02L2712.07 1984.73L2708.21 1878.02L2706.99 1857.15L2707.49 1821.43L2708.11 1810.38L2706.35 1806.71L2708.31 1774.47L2710.28 1769.94L2718.28 1773.89L2729.83 1776.36L2737.83 1777.79L2748 1779.17L2762.84 1773.37L2771.66 1763.89L2802.79 1724.3L2811.81 1722.58L2829.25 1704.93L2843.59 1690.75L2855.62 1676.94L2877.12 1652.19L2849.74 1625.85L2839.36 1614.95L2810.71 1595.59L2759.46 1563.74L2754.16 1560.18L2720.7 1543.67L2702.22 1536.21L2680.43 1527.56L2674.22 1524.87L2629.49 1508.27L2627.72 1507.34L2625.81 1506.25L2606.33 1493.53L2570.52 1472.4L2560.67 1467.76L2548.76 1464.44L2536.13 1464.88L2514.62 1470.83L2489.88 1482L2457.27 1498.68L2452.17 1498.67L2437.47 1480.57L2410.43 1437.54L2377.66 1385.9L2335.86 1323.1L2323.04 1305.43L2315.81 1312.02L2313.12 1308.49L2294.73 1324.84L2270.61 1346.57L2260.87 1355.78L2235.53 1385.57L2155.56 1472.64L2170.61 1492.8L2200.75 1533.11L2216.16 1564.57L2223.18 1582.12L2229.05 1600.63L2234.84 1624.09L2250.1 1693.02L2257.99 1733.14L2272.95 1807.56L2278.44 1833.94L2286.02 1855.44L2293.08 1887.44L2301.94 1930.57L2308.04 1929.51L2308.7 1933.67L2301.91 1934.96L2305.33 1958.67L2322.68 2053.46L2339.48 2149.39L2339.31 2149.43L2339.86 2151.58L2340.22 2153.66L2340.38 2153.63L2352.66 2201.29L2355.88 2215.57L2378.57 2294.75L2382.4 2310.48L2346.92 2309.31L2342.98 2288.16L2346.59 2287.91L2340.55 2265.29L2332.37 2220.71L2329.15 2206.44L2302.57 2078.88L2276.28 1947.86L2264.12 1888.21L2260.86 1870.49L2257.63 1854.9L2249.47 1811.39L2247.23 1795.79L2244.11 1795.94L2238.21 1769.01L2241.43 1766.48L2238.64 1754.83L2235.36 1740.75L2228.37 1701.84L2227.65 1681.49L2208.09 1598.46L2203.76 1585.2L2199.5 1575.6L2195.17 1567.91L2190.61 1563.07L2169.41 1530.66L2157.41 1524.48L2155.73 1524.43L2129.41 1523.52L2106.08 1533.68L2100.23 1537.5L2060.8 1565.52L2050.48 1553.25L2028.3 1526.53L2004.19 1497.3L2014.43 1489.38L2003.93 1471.52L1943.69 1375.5L1931.21 1353.48L1925.45 1343.93L1878.8 1294.09L1861.28 1282.14L1799.17 1254.82L1793.55 1253.94L1789.82 1253.12L1748.47 1245.36L1738.6 1263.06L1722.06 1263.81L1653.27 1251.95L1603.5 1243.56L1565.16 1291.26L1558.69 1299.42L1552.28 1307.59L1528.95 1336.76L1508.45 1362.05L1491.97 1384.39L1448.79 1443.76L1443.53 1451.26L1389.3 1531.26L1429.16 1556.55L1444.57 1566.18L1446.76 1567.38L1500.63 1585.28L1498.72 1588.47L1494.99 1590L1484.03 1591.36L1476.29 1590.79L1451.94 1577.48L1427.01 1564.31L1367.97 1527.03L1337.62 1545.15L1317.04 1557.24L1293.18 1569.75L1244.01 1597.34L1238.67 1601.09L1190.86 1629.84L1166.94 1633.85L1147.95 1642.98L1107.27 1662.43L1087.07 1727.63L1090.3 1735.37L1093.53 1742.91L1097.28 1751.04L1096.45 1759.04L1096.37 1767.73L1077.76 1781.11L1060.07 1799.94L1031.12 1831.4L1044.96 1850.12L1072.26 1884.97L1070 1886.45L1122.54 1955.67L1126.29 1961.41L1130.1 1966.55L1189.99 2043.25L1196.38 2038.75L1198.43 2040.18L1199.75 2040.85L1201.53 2042.04L1203.98 2043.53L1205.95 2044.42L1208 2045.13L1209.98 2045.94L1212.39 2046.76L1213.99 2047.39L1216.46 2047.85L1221.3 2048.43L1223.08 2048.47L1242.4 2045.74L1255.11 2044.99L1261.44 2047.65L1272.24 2054.31L1283.56 2063.7L1286.84 2066.73L1323.92 2115.67L1357.88 2094.66L1360.34 2093.36L1368.99 2088.49L1391.44 2074.22L1438.06 2046.75L1454.91 2036.58L1461.24 2034.47L1505.84 2010.47L1518.91 2003.28L1526.63 1998.47L1598 1956.31L1645.79 1921.28L1631.93 1892.94L1622.85 1873.53L1621.41 1848.8L1619.41 1824.82L1620.88 1817.42L1621.76 1811.67L1625.62 1795.17L1651.35 1734.04L1669.02 1689.18L1652.74 1675.29L1635.76 1662.9L1618.78 1649.76L1579.73 1618.84L1573.48 1614.16L1536.84 1593.58L1534.18 1591.7L1509.63 1586.72L1508.28 1585.98L1523.1 1581.85L1529.02 1584.34L1540.83 1578.96L1541.12 1577.29L1545.46 1581.36L1571.59 1603.41L1582.14 1611.53L1601.52 1626.87L1632.67 1651.23L1633.1 1650.79L1640.02 1657.16L1658.55 1675.5L1673.14 1689.84L1685.98 1702.76L1685.72 1703.14L1675.8 1709.11L1659.15 1740.26L1649.46 1759.03L1641.72 1778.54L1637.56 1788.27L1630.86 1804.21L1629.98 1825.23L1624.92 1826.45L1629.6 1845.19L1629.19 1850.01L1627.81 1861.79L1635.44 1882.37L1638.84 1889.69L1653.03 1926.21L1607.23 1957.49L1580.56 1976.15L1541.06 2003.03L1526.03 2014.48L1519.37 2018.36L1512.42 2021.98L1478.18 2038.06L1462.81 2045.41L1440.49 2056.76L1408.76 2074.77L1398.21 2081.3L1395.5 2082.89L1392.32 2084.92L1384.26 2089.87L1377.66 2094.35L1369.89 2099.39L1342.99 2117.52L1341.79 2115.03L1332.73 2119.8L1327.72 2119.79L1320.65 2120.9L1315.44 2123.96L1313.11 2120.99L1267.97 2151.14L1227.88 2079.12L1221.98 2072.91L1200.48 2059.46L1198.65 2063.14L1195 2061.22L1196.71 2058.87L1185.04 2050.77L1121.28 1973.28L1111.52 1960.87L1083.99 1924.9L1081.32 1926.82L1074.75 1918.53L1078 1916.12L1038.5 1865.66L1029.59 1853.08L1002.15 1873.88L977.13 1891.72L959.1 1901.31L902.78 1921.46L860.18 1929.52L845.15 1928.85L778.68 1926.68L754.63 1924.03L722.17 1927.12L619.58 1962.72L652.14 2024.6L666 2050.26L688.4 2094.44L692.02 2102.87L707.48 2153.76L709.03 2160.28L722.24 2203.33L725.52 2220.07L732.7 2255.82L708.51 2255.02L705.05 2234.04L704.76 2217.25L701.58 2194.86L701.02 2192.42L698.04 2181.79L687.72 2146.56L676.04 2108.13L673.43 2099.84L619.62 2009.07L594.75 1974.79L587.61 1965.33L567.64 1938.09L561.2 1929.6L553.45 1919.65L524.19 1884.74L482.77 1915.26L475.78 1920.52L461.33 1929.39L450.7 1940.19L443.29 1955.02L367.69 1998.82L337.17 2020.24L333.19 2023.97L317.17 2033.52L272.25 2066.17L255.7 2084.36L218.59 2126.07L197.87 2164.37L195.54 2167.36L178.61 2201.06L171.04 2237.23L167.26 2237.1L171.79 2217.34L172.09 2215.3L172.67 2212.99L181.91 2169.59L206.17 2127.08L208.07 2124.09L246.64 2081.13L265.12 2060.73L317.54 2024.78L327.07 2018.48L342.53 2008.94L358.37 1998.11L435.84 1944.29L478.3 1911.26L513.71 1884.82L485.44 1839.52L466.36 1804.55L461.28 1794.61L451.99 1772.58L436.97 1735.59L433.44 1727.32L433.53 1723.81L424.53 1701.63L418.24 1687.12L423.46 1672.24L400.95 1603.98L391.11 1582.78L390.2 1578.13L385.81 1571.57L383.74 1572.69L377.95 1564.72L380.13 1563.27L373.28 1554.05L368.36 1557.5L367.99 1556.91L355.76 1539.93L349.51 1532.62L352.46 1529.81L332.5 1508.33L290.65 1471.44L289.58 1472.4L250.87 1439.46L202.2 1387.17L197.63 1386.02L139.03 1309.95L65.8998 1343.78L16.6498 1363L-49.7202 1383.01L-42.1002 1153.34L33.6898 1128.73L50.3498 1129.84L112.79 1103.46L151.02 1086.98L216.88 1064.47L282.2 1035.13L315.95 1021.52L366.45 999.77L395.31 983.56L411.64 973.93L409.44 968.7L430.62 958.27L433.95 964.86L447.93 957.16L445.01 951.19L467.26 940.27L471.68 948.8L544.05 915.38L611.75 881.72L739.91 803.25L815.81 741.51L875.52 690.26L913.19 651.12L941.67 619.34L953.25 619L953.01 614.54L982.45 613.54L1037.35 548.42L1035.33 535.14L1052.69 499.79L1049.64 497.24L1054.43 488.43L1058.81 490.81L1071.81 466.47L1060.83 393.14L1035.95 329.99L999.53 265.05L955.81 209.28L861.22 94.6698L825.08 53.5398L736.55 -33.4202L736.05 -32.7402L718.72 -51.9602L618.05 -135.45L547.92 -196.26L500.8 -134.36L472.16 -158.27L406.9 -222.41L378.47 -247.34L350.36 -270.02L346.8 -265.97L303.91 -308.39L186.73 -410.52L181.23 -414.08L176.22 -418.46L132.7 -455.18L66.4598 -517.59L63.3698 -520.69L59.7698 -523.94L14.8498 -559.94L19.6098 -703.49L211.79 -697.12L241.95 -672.44L261.19 -657.51L308.37 -620.7L344.4 -668.09L362.26 -692.13L373.3 -691.76L369.67 -686.73L353.5 -663.65L305.77 -605.15L381.66 -533.04L402.86 -514.26L460.1 -471.34L524.88 -426.27L529.35 -422.49L533.06 -421.67L557.43 -401.7L590.63 -377.82L584.9 -367.97L633.27 -331.14L637.54 -334.01L668.51 -320.17L677.67 -332.51L711.89 -306.11L755.95 -275.5L759.23 -272.32L768.56 -265.88L799.32 -244.16L816.74 -231.61L873.22 -189.88L897.05 -170.72L943.06 -132.45L948.66 -139.45L981.54 -105.36L1009.05 -125.75L1019.26 -136.12L1050.01 -160.39L1054.43 -157.08L1081.35 -193.28L1100.03 -198.16L1126.55 -200.07L1138.97 -194.38L1193.36 -178.06L1190.79 -171.18L1241.34 -164.5L1245.03 -175.3L1258.66 -173.01L1258.14 -162.13L1292.07 -159.18L1330.32 -162.73L1371.98 -174.89L1414.68 -187.99L1455.72 -203.21L1457.13 -197.15L1497.24 -207.39L1525.58 -214.97L1568.39 -230.03L1600.72 -241.62L1648.6 -259.91L1656.81 -263.12L1663.23 -248.76L1696.18 -266.05L1706.55 -273.19L1709.71 -277.08L1717.17 -286.87L1727.17 -299.56L1732.21 -306.15L1744.63 -326.56L1777.9 -375.66L1789.26 -397.08L1801.55 -419.19L1807.22 -429.87L1816.78 -449.68L1845.3 -505.06L1870.37 -558.97L1873.15 -565.97L1876.05 -572.93L1881.06 -587.01L1879.31 -587.76L1880.79 -591.93L1881.32 -593.91L1881.49 -594.32L1882.06 -595.33L1882.59 -596.72L1883.12 -598.69L1882.79 -600.34L1882.74 -601.15L1882.9 -602.2L1884.97 -611.9L1886.8 -620.11L1888.38 -619.93L1890.93 -632.77L1890.2 -632.92L1892.26 -641.46L1912.88 -640.78L1912.18 -637.51L1911 -637.68L1905.09 -596.6L1896.72 -570L1885.24 -534.6L1885.62 -533.96L1873.25 -500.02L1898.08 -470.48L1920.27 -444.77L1919.94 -444.43L1940.91 -417.08L1941.54 -417.52L1971.92 -361.5L1973.84 -358.41L1985.4 -336.96L1995.37 -318.36L2011.13 -286.81L2013.53 -282.19L2023.15 -263.22L2024.65 -259.89L2017.4 -255.58L2038.81 -212.55L2040.43 -209.46L2055.26 -174.86L2072.81 -134.95L2064.17 -70.2902L2066.9 -52.1702L2070.54 -33.4702L2073.18 -24.4102L2075.2 -18.7302L2076.48 -14.8102L2074.33 -13.4102L2086.21 14.0898L2092.97 27.0798L2103.06 37.0198L2141.27 47.2898L2168 -11.2902L2170.42 -15.6002L2175.19 -27.8302L2183.21 -42.2902L2213.36 -99.9802L2227.63 -127.96L2236.93 -148.05L2240.27 -155.08L2243.08 -161.21L2250.6 -171L2259.3 -183.65L2281.26 -216.04L2280.96 -217.23L2297.13 -243.94L2303.71 -254.34L2320.98 -283.41L2333.69 -303.71L2339.47 -315L2352.7 -343.63L2371.22 -384.43L2371.41 -384.27L2388.36 -415.11L2418.67 -474.17L2419.04 -482.34L2445.21 -534.62L2473.68 -592.13L2490.63 -621.66L2500.97 -621.32L2447.76 -520.19L2434.76 -492.1L2434.07 -491.11L2432 -484.06L2421.07 -461.55L2402.83 -422.83L2402.56 -420.96L2389.2 -398.85L2378.37 -376.75L2379.53 -375.89L2366.25 -350.43L2361.96 -341.93L2334.53 -289.98L2314.3 -254.6L2303.54 -238.67L2302.31 -239.13L2294.2 -227.25L2274.54 -196.48L2263.76 -177.06L2261.46 -173.63L2254 -158.03L2193.92 -45.6802L2186.38 -32.5802L2172.19 3.51978L2163.02 27.5298L2142.05 102.67L2140.96 109.11L2136.76 176.34L2135.53 239.25L2135.89 268.88L2135.07 290.26L2134.51 295.4L2130.33 346.34L2127.24 387.66L2131.13 389.14L2189.42 406.09L2194.96 408.01L2220.99 417.46L2254.84 430.15L2293.98 442.82L2296.84 443.47L2339.21 458.57L2354.9 384.5L2357.55 368.51L2361.98 340.7L2365.63 333.79L2374.32 303.82L2376.89 293.95L2397.62 237.97L2398.83 235.28L2406.49 215.1L2409.43 210.2L2420.38 182.71L2439.01 137.29L2450.59 109.23L2457.43 95.8898L2484.77 35.4598L2497.36 3.90979L2499.14 0.549805L2511.51 -29.6202L2522.3 -56.6402L2536.61 -91.4202L2549.83 -122.27L2568.03 -162.33L2574.04 -178.06L2580.15 -193.6L2585.81 -208.37L2593.29 -226.89L2601.28 -243.69L2603.38 -247.31L2618.95 -283.77L2632.07 -316.73L2632.92 -318.57L2648.17 -354.31L2671.13 -407L2674.05 -411.36L2705.17 -470.59L2706.01 -471.61L2718.76 -496.25L2744.12 -542.76L2777.04 -602.39L2780.32 -609.93L2781.29 -611.96L2833.12 -610.24L2801.29 -550.23L2806.7 -547.05L2760 -461.31L2724.93 -394.18L2657.62 -250.95L2602.64 -134.8L2548.85 -20.8202L2514.94 47.8498L2500.53 80.3698L2506.22 98.5298L2491.69 127.58L2499.8 132.05L2463.03 208.86L2454.79 205.76L2442.43 231.37L2392.1 334.79L2381.7 351.69L2375.19 374.72L2369.07 391.69L2357.99 447.82L2419.48 467.06L2431.94 471.35L2430.28 475.93L2501.55 493.8L2535.08 505.17L2606.78 516.92L2686.91 529.9L2718.92 535.25L2747.38 538.26L2811.94 552L2820.63 554.31L2871.42 563.32L2891.1 567.8L2909.32 570.83L2919.66 572.71L2919.26 584.84L2909.49 582.59L2900.68 580.42L2899.44 584.29L2816.38 564.89L2789.18 559.65L2778.3 590.46L2800.05 606.61L2832.17 627.88L2830.42 630.91L2863.37 653.7L2879.06 663.81L2881.5 660.17L2916.14 679.08L2915.36 702.78L2881.44 683.97L2862 758.84L2860.23 768.79L2858.86 801.49L2853.24 835.08L2849.98 851.72L2847.34 878.33L2844 920.34L2838.56 998.03L2887.6 1107.62L2897.77 1127.88L2901.08 1134.22L2899.11 1193.69L2871.64 1148.77L2864.71 1135.69L2844.99 1090.08L2835.14 1064.71L2796.43 968.99L2696.91 1013.91L2664.85 1030.39L2659.16 1032.5L2618.08 1060.52L2594.05 1091.01L2591.1 1098.71L2590.01 1099.96L2539.34 1155.68L2532.68 1164.15L2513.8 1183.81L2499.46 1203.32L2487.27 1216.46L2445.85 1248.39L2394.49 1271.43L2391.49 1272.93L2364.59 1283.84L2350.53 1284.54L2349.27 1285.37L2331.19 1297.33L2333.74 1307.26L2338.6 1317.21L2365.12 1359.27L2389.1 1396.15L2397.69 1409.74L2412.88 1432.41L2414.63 1434.73L2421.58 1445.36L2451.32 1488.88L2514.55 1463.61L2539.79 1455.69L2545.3 1454.41L2550.37 1454.25L2555.93 1454.87L2560.41 1455.88L2564.72 1457.64L2565.03 1457.8L2563.88 1459.17L2574.15 1465.32L2613.75 1491.95L2634.54 1502.82L2642.77 1506.55L2667.78 1515.79L2698.54 1528.49L2724.19 1540.13L2761.51 1557.66L2763.46 1561.34L2785.49 1574.8L2809.89 1587.14L2840.87 1607.92L2858.77 1622.54L2878.1 1644.2L2881.42 1648.04L2883.97 1651.59L2883.09 1678.09L2865.91 1683.48L2816.56 1726.86L2773.36 1772.57L2768.84 1777.93L2760.77 1780.72L2720.58 1785.36L2715.92 1850.18L2716.69 1915.61L2718.58 1915.67L2719.08 1927.89L2720.98 1970.46L2722.64 2015.05L2723 2037.99L2723.18 2074.69L2723.72 2101.71L2725.31 2128.04L2730.12 2184.03L2731.56 2222.75L2733.16 2273.78L2740.91 2318.48L2741.44 2322.36L2724.38 2321.77ZM560.15 1915.16L596.83 1961.35L671.83 1935.36L689.98 1928.81L716.46 1918.65L756.13 1910.32L828.74 1910.92L834.28 1912.81L861.4 1916.05L897.99 1910.77L900.17 1910.32L910.84 1908.93L942.49 1898.54L948.54 1895.86L955.47 1891.16L952.91 1887.77L954.86 1886.3L956.72 1888.91L962.64 1884.69L964.91 1882.11L965.54 1882.19L968.6 1881.48L971.47 1879.91L974.33 1876.96L993 1832.89L1002.77 1825.73L1018.2 1816.43L1015.86 1812.72L1035.95 1799.24L1070.25 1769.36L1075.1 1760.55L1074.98 1754.74L1079.17 1748.7L1080.06 1742.83L1068.05 1689.41L1066.08 1679.05L1115.75 1648.01L1115.77 1648.03L1175.94 1623.51L1184.27 1620.7L1227.34 1601.58L1241.41 1593.84L1269.9 1577.11L1282.15 1569.24L1320.65 1530.33L1283.48 1509.17L1272.13 1501.55L1219.83 1469.16L1214.02 1468.94L1210.23 1465.41L1149.21 1392.65L1132.03 1372.4L1117.55 1356.59L1108.61 1346.5L1096.17 1332.84L1086.98 1321.1L1082.21 1314.8L1067.3 1297.83L1062.93 1294.81L1045.79 1272.41L1037.13 1260.45L1023.01 1240.35L1014.43 1228.4L1015.29 1227.98L1007.86 1218.98L1004.03 1221.58L997.37 1210.74L991.71 1198.53L903.49 1069.84L834.3 968.59L826.11 974.05L819.07 962.91L739.72 1015.57L662.85 1063.18L557.97 1129.55L399.32 1203.96L395.63 1197.24L312.78 1235.59L261.79 1260.09L256.42 1262.2L248.16 1265.79L185.95 1294.97L158.26 1308.4L194.39 1359.04L196.5 1356.6L289.36 1448.27L322.46 1474.18L336.08 1484.67L360.99 1513.34L363.94 1511.66L364.41 1512.14L361.81 1514.34L373.6 1526.83L385.96 1543.72L389.59 1549.92L410 1598.59L418.03 1616.79L430.71 1648.1L438.89 1660.94L447.24 1684.19L451.75 1682.55L454.99 1691.11L450.95 1692.62L457.44 1710.36L460.92 1722.57L464.17 1732.44L457.1 1735.7L475.45 1780.61L473.98 1781.35L485.65 1809.46L497.77 1828.92L501.5 1830.69L560.15 1915.16ZM1240.57 1467.98L1261.62 1483.31L1267.26 1487.33L1287.37 1502.09L1295.43 1507.45L1307.92 1515.49L1337 1531.51L1359.33 1514.54L1383.48 1492.85L1396.76 1479.2L1400.99 1475.24L1427.71 1441.95L1434.44 1433.95L1437.72 1429.73L1441.21 1424.23L1446.98 1417.79L1456.76 1406.04L1459.31 1408.07L1483.95 1379.05L1491.37 1364.49L1520.5 1326.2L1523.83 1320.94L1543.71 1294.16L1578.22 1247.96L1565.7 1239.71L1539.94 1222.15L1507.74 1201.17L1486.02 1187.28L1489.35 1179.47L1486.76 1177.92L1487.23 1173.88L1483.81 1168.09L1473.7 1163.88L1471.85 1170.67L1466.92 1169.39L1468.58 1162.57L1453.05 1157.08L1463.32 1083.47L1472.63 1003.05L1473.49 1000.9L1480.59 976.98L1482.1 971.3L1487.14 961.69L1505.07 908.66L1521.63 860.59L1529.81 835.07L1535.63 817.57L1539.86 795.56L1542.55 782.29L1551.47 737.83L1553.79 726.74L1554.71 709.06V702.78L1554.64 696.28L1552.48 668.92L1548.34 607.91L1547.88 597.76L1547.53 591.31L1547.18 579.1L1546.92 571.92L1547.27 568.99L1544.63 559.76L1539.12 551.97L1529.7 545.62L1527.97 544.88L1493.03 524.53L1447.91 500.75L1429.73 491.44L1414.23 487.18L1395.17 482.11L1376.4 476.82L1361.99 474.63L1338.75 468.87L1196.62 436.42L1142 613.23L1119.1 616.19L1058.83 685.05L1060.44 707.09L998.67 767.7L971.65 805.3L919.95 875.38L908.84 890.81L903.41 897.82L885.46 913.17L881.66 908.36L852.69 933.05L856.67 937.82L836.77 954.85L845.11 966.66L872.41 1005.13L870.18 1007.01L889.1 1028.4L934.22 1092.69L940.78 1115.39L965.4 1154.19L992.45 1192.87L998.35 1200.53L1085.9 1311.15L1094.43 1322.06L1194.7 1426.98L1207.89 1439.25L1213.17 1443.98L1217.07 1446.68L1240.57 1467.98ZM2066.18 1530.87L2093.33 1519.91L2103.97 1519.62L2113.94 1512.11L2121.72 1503.02L2130.69 1492.87L2138.49 1479.24L2148.51 1471.81L2145.46 1464.95L2161.9 1446.18L2199.91 1401.49L2201.66 1399.18L2203.44 1397.11L2242.99 1346.88L2266.91 1324.15L2276.29 1323.25L2300.74 1304.53L2328.98 1283.45L2323.89 1260.08L2322.46 1255.11L2307.18 1190.21L2302.55 1171.76L2295.66 1142.62L2297.95 1134.23L2294.87 1122.54L2292.04 1110.92L2288.87 1099.43L2281.13 1072.48L2272.47 1052.88L2274.63 1051.58L2266.08 1032.95L2258.79 1018.91L2257.03 1019.84L2251.33 1009.04L2254.08 1007.77L2228.19 960.07L2214.48 940.73L2196.58 917.5L2168.37 881.38L2142.6 850.03L2111.58 813.29L2069.28 777.13L2041.83 807.17L2028.9 818.8L2006.59 809.42L2030 814.74L2048.59 793.03L2052.86 788.16L2054.78 781.89L2064.98 752.27L2068.39 745.05L2081.14 716.84L2084.35 709L2096.2 681.38L2107.94 652.26L2128.99 595.95L2133.8 585.75L2145.44 549.68L2151.69 525.66L2156.09 509.8L2164.19 485.85L2175.15 438.61L2106.83 404.9L2104.4 403.94L2101.39 402.48L2096 398.31L2068.98 385.35L2052.49 378.88L2006.85 363.55L2002.76 360.76L1963.8 348.15L1954.47 344.59L1951.8 353.96L1939.5 350.34L1941.28 342.43L1919.13 335.4L1912.42 355.53L1861.45 327.1L1819.29 307.33L1814.14 307.37L1805.44 311.92L1797.44 318.73L1777.65 336.63L1776.41 338.01L1765.69 349.18L1745.8 364.4L1717.68 385.67L1716.31 387.29L1714.66 388.97L1697.11 407.82L1689.41 419.14L1683.21 427.82L1671.81 444.75L1670.41 444.86L1656.19 446.6L1653.89 450.31L1644.89 461.9L1636.36 473.91L1624.21 466.22L1607.19 486.31L1601.25 491.45L1578 532.04L1571.86 543.97L1557.97 606.43L1591.09 612.76L1631.95 620.15L1640.69 621.89L1653.93 624.63L1653.72 628.99L1710.38 642.22L1716.08 643.67L1736.99 648.42L1738.25 645.61L1757.1 651.77L1778.72 658.62L1800.67 665.09L1834.09 671.01L1844.99 673.84L1844.59 674.9L1841.43 682.78L1836.73 698.8L1826.35 747.5L1863.01 765.63L1898.13 780.79L1916.61 784.02L1931.57 788.72L1947.5 793.53L1961.89 797.55L1991.27 805.9L1987.18 806.13L1967.6 801.32L1939.01 794.63L1927.54 791.15L1894.83 782.24L1890.97 790.53L1884.39 787.19L1874.41 782.27L1871.06 779.69L1865.65 775.6L1844.07 765.75L1815.59 749.4L1812.79 748.38L1812.89 747.99L1814.2 744.28L1823.35 721.08L1832.59 683.39L1792.09 669.19L1755.92 660.43L1733.72 655.33L1724.26 652.84L1693.44 641.94L1665.43 634.86L1656.89 632.63L1652.94 631.18L1650.79 630.21L1580.57 620.24L1574.56 660.72L1569.14 701.61L1566.09 751.27L1558.07 793.01L1557.28 797.59L1556.48 801.42L1551.48 820L1543.71 852.09L1532.5 883.92L1526.28 902.02L1519.7 919.01L1516.14 927.93L1514.1 933.47L1506.05 962.21L1501.55 984.02L1495.87 1014.02L1494.1 1026.54L1491.34 1058.05L1495.61 1111.04L1499.1 1151.79L1504.38 1163.12L1519.79 1188.6L1551.89 1207.51L1575 1219.35L1595.38 1226.75L1614.06 1232.84L1639.73 1239.93L1651.4 1240.22L1700.72 1237.97L1762.56 1237.58L1767.63 1233.67L1769.9 1227.46L1805.11 1241.04L1825.73 1239.25L1829.09 1241.59L1830.95 1242.78L1862.9 1261.81L1899.78 1284.28L1909.15 1290.42L1943.78 1334.15L1978.5 1387.64L1991.64 1409.17L2002.08 1430.93L2000.02 1432.31L2018.15 1464.91L2032.52 1483.67L2066.18 1530.87ZM2346.25 1272.68L2386.28 1258.43L2392 1256.5L2442.74 1238.62L2479.49 1209.9L2507.51 1181.04L2504.29 1177.03L2511.53 1168.81L2535.88 1142.5L2563.16 1110.96L2580.69 1088.76L2588.55 1080.1L2594.9 1073.62L2638.73 1035.75L2659.16 1021.09L2680.58 1006.84L2692.4 1000.22L2707.64 991.48L2749.96 971.67L2793.87 951.62L2829.63 940.4L2832.4 920.7L2833.95 908.58L2834.45 908.75L2835.99 897.11L2840.92 847.66L2841.79 820.64L2845.15 753.89L2848.52 745.06L2872.53 675.33L2867.99 673.94L2864.27 671.87L2856.31 667.31L2846.58 659.31L2821.01 641.83L2822.4 639.08L2794.9 623.54L2794.91 623.37L2795.85 614.79L2781.9 603.05L2767.26 592.01L2752.07 585.6L2747.35 583.47L2748.88 575L2747.49 574.33L2748.03 569.42L2734.31 568.07L2682.06 556.69L2682.08 557.31L2645.59 548.72L2583.77 534.01L2576.61 532.74L2558.8 528.83L2464.77 515.56L2475.14 549.35L2476.76 554.32L2465.61 558.27L2453.64 531.08L2415 556.54L2364.43 623.6L2360.86 635.65L2360.13 642.45L2326.23 689.75L2319.21 701.97L2294.68 728.81L2285.72 739.02L2274.6 752.26L2235.91 801.16L2228.49 810.81L2190.15 853.13L2182.77 863.31L2191.38 875.54L2196.8 883.62L2221.31 917.31L2244.06 948.4L2270.3 983.86L2280.59 1001.74L2302.37 1031.59L2304.65 1029.95L2312.05 1059.12L2307.31 1060.05L2318.76 1118.13L2322.15 1159.69L2322.78 1176.53L2329.97 1212.3L2340.56 1246.04L2341.39 1250.23L2342.9 1254.93L2346.25 1272.68ZM2160.88 845.54L2167.3 847.47L2176.02 840.11L2198.39 822.07L2199.75 821.35L2220.1 803.05L2222.47 800.67L2235.47 782.87L2275.67 728.55L2300.92 693.54L2303.6 688.44L2333.66 647.87L2362.91 601.05L2387.6 559.82L2406.35 528.13L2361.49 506.92L2344.94 499.36L2312.12 482.82L2311.6 483.88L2255.59 462.74L2188.63 431.92L2146.89 554.58L2136.35 587.59L2134.56 598.14L2127.24 618.11L2123.08 629.24L2118.62 638.84L2112.33 650.41L2104.16 668.64L2105.25 669.11L2083.26 716.92L2063.6 759.23L2105.26 793.55L2142.96 832.65L2152.27 841.74L2158.03 844.02L2160.88 845.54ZM1492.6 505.31L1521.05 516.83L1563.57 524.84L1577.97 504.67L1599.38 475.02L1627.49 435.97L1639.11 443.44L1657.58 415.72L1669.61 414.6L1693.88 387.68L1701.34 388.43L1705.14 383.49L1708.34 386L1716.85 376.53L1775.12 315.76L1737.25 276.42L1733.04 272.42L1638.69 208.93L1605.69 187.28L1574.15 166.84L1551.63 152.89L1529.61 140.18L1520.08 134.76L1516.68 132.62L1489.25 116.52L1429.23 87.8198L1386.5 67.2198L1372.41 49.6898L1368.2 46.0398L1369.78 40.6798L1354.32 30.0598L1352.22 36.8498L1339.56 33.9798L1307.33 32.3998L1246.12 33.5098L1207.71 33.4698L1184.71 37.8998L1115.32 54.3198L1123.6 89.0798L1126.14 102.46L1134.8 100.6L1134.93 101.14L1126.12 102.84L1131.88 129.44L1135.13 143.96L1130.42 145.46L1145.36 223.02L1152.18 245.45L1158.29 243L1158.58 243.94L1151.6 245.9L1158.48 269.86L1164.62 321.82L1186.85 319.25L1188.4 334.92L1175.22 336.08L1176.96 354.91L1168.28 419.1L1217.14 426.03L1261.68 432.51L1320.66 448.14L1332.84 450.65L1345.03 452.95L1394.72 463.01L1424.33 469.92L1444.2 476.84L1475.28 487.28L1498.11 491.88L1492.6 505.31ZM2118.84 384.6L2121.6 374.23L2124.08 326.58L2122.29 307.72L2120.45 280.69L2121.01 233.82L2118.49 233.14V230.75L2120.52 231.18L2120.45 174.52L2115.61 164.82L2121.36 138.65L2121.89 134.97L2132.14 78.3298L2129.63 76.1998L2099.8 50.7898L2082.94 37.5998L2083.69 33.7898L2082.36 28.9898L2076.73 15.2698L2075.66 12.4298L2073.09 8.99982L2062.99 -6.43024L2048.68 -29.1802L2020.95 -8.5802L2014.4 -1.90021L2006.2 5.63977L2000.93 9.95978L1991.18 16.8498L1987.91 21.5398L1987.47 21.3098L1980.28 29.0598L1979.39 29.0898L1976.66 30.0498L1974.98 31.0798L1974.27 31.8198L1973.66 31.3098L1967.49 40.3298L1967.71 40.4798L1962.53 48.8598L1962.66 48.9398L1958.1 55.2498L1958.57 55.5798L1953.78 62.4198L1954.13 62.6398L1950.68 67.9098L1950.44 67.7798L1945.59 76.5898L1945.3 76.4698L1939.66 85.7498L1936.24 90.9198L1936.22 90.9098L1935.99 91.2898L1935.11 92.6198L1935.17 92.6498L1931.36 98.9798L1931.31 98.9498L1926 107.88L1926.16 107.99L1921.72 114.16L1922.49 114.81L1922.17 115.31L1921.37 114.95L1916.26 122.98L1923.08 127.69L1913.59 144.51L1912.08 147.1L1903.53 142.49L1872.56 204.23L1861.35 223.82L1839.41 263.25L1824.7 288.03L1906.08 312.22L1959.3 326.93L1975.26 332.44L1994.55 339.43L2007.84 344.59L2044.48 359.76L2106.64 379.39L2118.84 384.6ZM1721.88 252.4L1788.57 307.88L1804.04 288.92L1813.25 277.89L1847.05 239.81L1859.86 220.35L1869.58 199.09L1875.42 187.51L1890.53 156.22L1891.82 151.16L1908.23 120.72L1932.14 81.0498L1939.07 69.9798L1954.15 49.8998L1974.36 23.4298L2004.66 -12.9502L2011.3 -19.0602L2048.95 -51.2302L2051.94 -53.0302L2051.93 -67.5902L2053.26 -97.4802L2054.1 -107.1L2033.8 -180.46L2026.74 -199.65L2015.44 -234.36L2000.2 -269.22L1998.03 -274.58L1994.37 -284.17L1969.74 -341.39L1967.26 -344.64L1935.06 -402.07L1922.17 -423.74L1873.69 -479.45L1854.21 -458.91L1834.48 -425.16L1820.02 -399.52L1810.58 -385.16L1809.52 -381.75L1774.92 -331.66L1741.86 -292.32L1721.43 -264.9L1723.01 -262.97L1694.03 -243.02L1697.29 -236.61L1694.23 -235.19L1691.71 -241.77L1679.33 -240.51L1663.39 -236.7L1630.72 -228.68L1625.47 -227.14L1582.14 -217.94L1563.4 -211.9L1511.2 -196.23L1407.2 -162.11L1387.18 -155.87L1384.13 -154.63L1349.4 -145.6L1331.34 -141.01L1279.95 -135.53L1270.74 -136.13L1213.11 -142.86L1208.76 -143.32L1208.78 -143.43L1210.73 -152.01L1181.11 -163.78L1157.97 -170.94L1142.83 -174.88L1121.77 -177.95L1100.72 -174.57L1088.01 -167.75L1057.88 -151.31L1054.36 -148.54L986.98 -101.17L1010.06 -61.5202L1059.81 17.5498L1072.12 11.7198L1097.67 58.4798L1118.52 48.8698L1196.86 29.8898L1217.97 26.6698L1252.47 21.9598L1289.19 22.5098L1292.84 24.5898L1331.02 25.4698L1342.18 24.9598L1366.67 19.1798L1366.48 19.8398L1383.47 27.0498L1373.96 31.5898L1385.75 50.3798L1387.7 53.1298L1388.65 54.0498L1390.08 55.7898L1392.67 58.6098L1397.16 62.7698L1400.81 65.8798L1408.18 70.8298L1415.67 74.4598L1423.36 78.0698L1431.5 81.2098L1446.54 86.6598L1462.95 92.8098L1477.5 99.0898L1497.55 110.2L1519.17 121.97L1538.84 132.05L1554.82 139.79L1566.44 146.43L1602.56 170.9L1606.64 174.02L1642.69 198.05L1648 203.22L1701 237.49L1701.41 236.83L1720.1 250.77L1721.88 252.4Z" stroke="#8EC1F9" stroke-miterlimit="10"/>
</g>
<mask id="mask2_12_7187" style="mask-type:luminance" maskUnits="userSpaceOnUse" x="0" y="-1" width="2880" height="1621">
<path d="M2880 -0.00012207H0V1620H2880V-0.00012207Z" fill="white"/>
</mask>
<g mask="url(#mask2_12_7187)">
<path d="M2729.01 2316.92L2723.86 2222.26L2723.26 2214.06L2720.45 2165.14L2719.79 2144.99L2717.18 2073.58L2716.53 2024.07L2715.58 2024.06L2716.81 1991.9L2717.68 2015.17L2718.04 2038.05L2718.22 2074.69L2718.76 2101.89L2720.36 2128.44L2725.16 2184.31L2726.6 2222.91L2728.21 2274.26L2735.65 2317.14L2729.01 2316.92ZM2351.12 2304.4L2348.94 2292.71L2353 2292.43L2345.44 2264.14L2337.27 2219.66L2334.03 2205.29L2307.47 2077.81L2281.19 1946.83L2269.03 1887.16L2265.77 1869.42L2262.54 1853.83L2254.42 1810.52L2251.55 1790.52L2248.1 1790.69L2243.78 1770.95L2247.06 1768.38L2243.52 1753.61L2240.28 1739.68L2233.38 1701.25L2232.66 1680.76L2212.93 1597.05L2208.46 1583.35L2203.99 1573.29L2199.24 1564.87L2194.57 1559.91L2172.89 1526.77L2158.71 1519.47L2155.91 1519.38L2128.48 1518.44L2103.72 1529.22L2097.43 1533.33L2061.68 1558.74L2054.33 1550L2032.17 1523.31L2011.35 1498.08L2020.99 1490.62L2008.18 1468.84L1947.99 1372.92L1935.49 1350.88L1929.46 1340.88L1882.07 1290.25L1863.71 1277.72L1800.58 1249.95L1794.46 1248.99L1790.73 1248.18L1760.78 1242.56L1764.22 1242.54L1771.78 1236.72L1772.8 1233.93L1804.34 1246.09L1824.31 1244.36L1826.27 1245.72L1828.35 1247.04L1860.3 1266.07L1897.07 1288.47L1905.7 1294.12L1939.68 1337.04L1974.24 1390.27L1987.22 1411.52L1995.68 1429.15L1993.4 1430.68L2013.94 1467.62L2028.48 1486.6L2064.42 1536.98L2094.39 1524.88L2105.72 1524.57L2117.4 1515.77L2125.53 1506.27L2134.78 1495.8L2142.31 1482.63L2151.65 1475.7L2166.61 1495.74L2196.47 1535.67L2211.59 1566.54L2218.48 1583.74L2224.24 1601.92L2229.98 1625.18L2245.22 1693.98L2253.1 1734.04L2268.06 1808.48L2273.63 1835.22L2281.22 1856.75L2288.22 1888.46L2296.91 1930.77L2296.3 1930.89L2300.43 1959.52L2317.78 2054.31L2333.76 2145.54L2333.21 2145.67L2334.99 2152.59L2336.21 2159.53L2336.75 2159.42L2347.83 2202.42L2351.07 2216.76L2373.77 2295.98L2376.02 2305.22L2351.12 2304.4ZM712.81 2250.11L710.08 2233.54L709.79 2216.81L706.54 2193.9L705.9 2191.14L702.89 2180.4L692.55 2145.11L680.86 2106.63L678.06 2097.74L623.84 2006.27L598.83 1971.8L595.33 1967.16L613.07 1961.01L647.73 2026.88L661.59 2052.53L683.89 2096.52L687.34 2104.54L702.68 2155.02L704.23 2161.54L717.41 2204.49L720.64 2220.98L726.59 2250.56L712.81 2250.11ZM186.68 2171.34L210.5 2129.6L212.11 2127.07L212.76 2126.34L193.7 2161.57L191.32 2164.62L185.74 2175.73L186.68 2171.34ZM1231.94 2076.1L1225.17 2068.97L1198.46 2052.26L1197.83 2053.53L1190.88 2048.71L1196.46 2044.78L1197.2 2045.15L1198.82 2046.23L1201.63 2047.93L1204.09 2049.04L1206.22 2049.77L1208.22 2050.59L1210.67 2051.42L1212.61 2052.18L1215.7 2052.76L1220.95 2053.39L1223.38 2053.45L1242.9 2050.69L1254.25 2050.02L1259.15 2052.08L1269.32 2058.36L1280.27 2067.45L1283.13 2070.08L1318.26 2116.45L1316.68 2117.38L1314.19 2114.21L1269.71 2143.92L1231.94 2076.1ZM1344.38 2108.88L1360.36 2098.99L1362.79 2097.7L1366.46 2095.63L1344.98 2110.1L1344.38 2108.88ZM1440.58 2051.04L1457 2041.13L1463.21 2039.05L1508.19 2014.85L1521.42 2007.57L1529.19 2002.72L1554.85 1987.56L1538.13 1998.94L1523.25 2010.29L1516.96 2013.95L1510.2 2017.46L1476.05 2033.5L1460.54 2040.92L1440.24 2051.24L1440.58 2051.04ZM1125.17 1970.11L1115.44 1957.75L1085.01 1917.98L1082.27 1919.94L1081.86 1919.43L1085.09 1917.04L1042.51 1862.64L1030.68 1845.94L999.18 1869.82L974.5 1887.42L957.08 1896.69L955.31 1897.32L962.63 1892.35L961.89 1891.37L966.03 1888.42L967.38 1886.89L970.41 1886.19L974.55 1883.93L978.59 1879.76L997.09 1836.1L1005.57 1829.89L1025.18 1818.08L1022.71 1814.16L1039.03 1803.21L1074.24 1772.54L1080.16 1761.78L1080.05 1756.25L1083.98 1750.59L1085.18 1742.64L1081.94 1728.23L1085.71 1737.27L1089.01 1744.98L1092.18 1751.87L1091.46 1758.74L1091.4 1765.14L1074.45 1777.33L1056.43 1796.51L1024.65 1831.04L1041.03 1853.19L1064.97 1883.75L1062.78 1885.18L1118.45 1958.53L1122.18 1964.25L1126.16 1969.61L1151.98 2002.68L1125.17 1970.11ZM438.86 1948.25L442.51 1945.41L439.52 1951.39L408.32 1969.47L438.86 1948.25ZM845.38 1923.81L779.04 1921.64L754.67 1918.95L726.58 1921.63L756.62 1915.32L827.89 1915.9L833.16 1917.7L861.46 1921.08L898.85 1915.69L901 1915.25L907.53 1914.4L901.46 1916.57L859.81 1924.45L845.38 1923.81ZM525.03 1877.86L518.4 1882.75L489.81 1836.93L470.83 1802.15L465.87 1792.43L456.65 1770.57L441.66 1733.64L438.52 1726.29L438.61 1722.83L429.17 1699.57L423.65 1686.86L428.79 1672.22L405.66 1602.06L395.95 1581.15L394.97 1576.11L387.5 1564.94L385.27 1566.14L385.11 1565.92L387.33 1564.44L374.44 1547.09L369.62 1550.47L359.74 1536.76L356.44 1532.9L359.54 1529.96L336.05 1504.68L290.68 1464.68L289.55 1465.69L254.39 1435.78L204.91 1382.62L200.59 1381.53L140.62 1303.67L63.9998 1339.11L15.0798 1358.2L-44.4302 1376.14L-37.1502 1156.94L34.3798 1133.71L51.2698 1134.84L114.8 1108L152.88 1091.59L218.79 1069.07L284.24 1039.68L318.01 1026.06L368.75 1004.2L397.93 987.81L418.02 975.96L415.96 971.04L428.47 964.88L431.9 971.68L454.58 959.18L451.76 953.41L465.14 946.84L469.51 955.27L546.35 919.78L614.25 886.02L742.88 807.27L819.14 745.23L879.03 693.82L916.98 654.38L944.02 624.2L958.59 623.78L958.35 619.29L984.91 618.39L1042.7 549.84L1040.58 535.87L1058.98 498.41L1056.06 495.97L1056.51 495.15L1060.92 497.54L1077.07 467.3L1065.76 391.78L1040.55 327.78L1003.71 262.27L959.67 206.1L864.98 91.3699L828.72 50.0999L735.93 -41.0401L735.65 -40.6601L722.19 -55.5801L621.29 -139.26L547.18 -203.52L500 -141.54L475.53 -161.97L410.31 -226.07L381.69 -251.16L349.77 -276.92L346.55 -273.25L307.32 -312.04L189.75 -414.53L184.25 -418.09L179.52 -422.23L136.04 -458.92L69.9598 -521.18L66.8298 -524.32L63.0198 -527.76L19.9298 -562.28L24.4498 -698.32L209.94 -692.17L238.89 -668.48L258.13 -653.55L307.43 -615.09L298.97 -604.72L378.29 -529.36L399.71 -510.38L457.26 -467.23L521.85 -422.3L527.09 -417.88L530.84 -417.05L554.41 -397.73L584.05 -376.41L578.38 -366.67L633.11 -325L638.05 -328.32L670.16 -313.97L678.68 -325.45L708.97 -302.09L752.8 -271.64L756.09 -268.46L765.76 -261.79L796.48 -240.1L813.87 -227.58L870.21 -185.94L893.96 -166.85L943.83 -125.37L949.06 -131.91L981.04 -98.7501L982.14 -99.5601L1005.79 -58.9301L1057.95 23.9599L1070 18.2499L1095.52 64.9699L1111.05 57.8199L1118.74 90.0999L1120.4 98.8299L1120.19 98.8699L1121.95 106.99L1122.22 108.4L1122.26 108.39L1127.04 130.47L1129.3 140.56L1124.72 142.02L1140.55 224.2L1146.04 242.26L1145.46 242.42L1153.62 270.83L1160.29 327.34L1182.43 324.78L1182.98 330.36L1169.83 331.51L1171.98 354.78L1162.71 423.33L1216.49 430.96L1260.73 437.4L1319.57 453L1331.88 455.53L1344.15 457.85L1393.7 467.89L1422.98 474.72L1442.6 481.56L1474.03 492.11L1491.24 495.58L1486.12 508.06L1519.69 521.65L1565.84 530.34L1582.1 507.57L1603.5 477.95L1628.84 442.75L1640.6 450.32L1660.48 420.49L1672.08 419.41L1695.97 392.92L1703.48 393.68L1693.23 404.69L1685.35 416.28L1679.11 425.02L1669.03 439.99L1653.24 441.92L1649.82 447.44L1640.92 458.91L1635.07 467.14L1623.25 459.66L1603.66 482.77L1597.37 488.21L1573.64 529.64L1567.15 542.25L1553.25 604.74L1552.92 597.55L1552.57 591.13L1552.22 578.98L1551.97 572.15L1552.39 568.6L1549.23 557.58L1542.7 548.35L1532.13 541.22L1530.25 540.41L1495.48 520.16L1450.27 496.33L1431.58 486.76L1415.59 482.37L1396.49 477.29L1377.49 471.94L1363.01 469.74L1340 464.04L1193.26 430.53L1138.22 608.7L1116.63 611.49L1053.73 683.35L1055.33 705.16L994.91 764.45L967.64 802.4L915.98 872.42L904.89 887.83L899.83 894.36L886.22 906L882.42 901.2L845.73 932.47L849.72 937.25L830.11 954.03L835.58 961.78L827.67 967.06L820.64 955.93L737.09 1011.38L660.28 1058.95L555.62 1125.18L401.51 1197.46L397.83 1190.76L310.75 1231.07L259.86 1255.52L254.49 1257.63L246.1 1261.28L183.89 1290.46L150.82 1306.5L194.08 1367.14L196.86 1363.93L286.12 1452.05L319.44 1478.13L332.69 1488.34L354.79 1513.78L354.6 1513.94L358.65 1518.23L359.96 1519.73L360.03 1519.69L369.81 1530.05L381.83 1546.48L385.17 1552.17L405.45 1600.53L413.49 1618.74L426.31 1650.4L434.44 1663.15L444.3 1690.6L444.88 1690.39L452.75 1711.91L456.21 1724.05L458.1 1729.78L450.74 1733.18L469.16 1778.25L467.67 1779L481.28 1811.78L494.39 1832.83L498.24 1834.66L543.34 1899.6L525.03 1877.86ZM2712.5 1821.61L2713.19 1809.38L2711.44 1805.72L2713.19 1776.94L2716.65 1778.65L2723.09 1780.03L2715.92 1780.86L2712.38 1830.16L2712.5 1821.61ZM2805.58 1728.86L2808.32 1728.34L2794.48 1742.98L2805.58 1728.86ZM1671.84 1695.59L1678.08 1701.87L1672.04 1705.5L1656.44 1734.7L1671.84 1695.59ZM1072.96 1688.38L1071.65 1681.47L1102 1662.5L1081.8 1727.7L1072.96 1688.38ZM2859.4 1680.23L2878.79 1657.9L2878.25 1674.39L2863.44 1679.04L2850.65 1690.28L2859.4 1680.23ZM1186.09 1625.36L1195.51 1621.18L1189.11 1625.03L1185.07 1625.71L1186.09 1625.36ZM1539.49 1589.33L1536.19 1586.99L1535.51 1586.85L1541.24 1584.24L1542.13 1585.07L1562.43 1602.19L1539.49 1589.33ZM1477.75 1585.84L1464.03 1578.34L1486.87 1585.93L1483.92 1586.3L1477.75 1585.84ZM1326.56 1531.46L1337.44 1537.45L1362.52 1518.39L1386.95 1496.45L1400.27 1482.76L1404.66 1478.65L1431.56 1445.13L1438.31 1437.1L1441.79 1432.62L1445.19 1427.27L1450.8 1421L1457.45 1413.01L1459.96 1415.01L1484.55 1386.05L1444.74 1440.78L1439.43 1448.35L1383.49 1530.88L1368.05 1521.13L1335.06 1540.83L1314.61 1552.84L1295.45 1562.88L1326.56 1531.46ZM2454.56 1493.65L2454.16 1493.15L2467.4 1487.86L2456.08 1493.65H2454.56ZM1221.34 1464.21L1216.06 1464.01L1213.85 1461.95L1161.44 1399.45L1191.16 1430.54L1204.45 1442.91L1210.03 1447.91L1213.92 1450.6L1237.41 1471.86L1258.49 1487.22L1221.34 1464.21ZM2151.31 1465.83L2165.64 1449.46L2203.8 1404.61L2205.53 1402.31L2207.28 1400.27L2246.68 1350.24L2269.08 1328.95L2278.17 1328.08L2303.76 1308.48L2334.53 1285.51L2328.72 1258.83L2327.28 1253.82L2312.03 1189.04L2307.38 1170.52L2300.8 1142.69L2303.11 1134.23L2299.69 1121.24L2296.85 1109.56L2293.68 1098.07L2285.83 1070.74L2278.82 1054.86L2281.03 1053.53L2270.57 1030.73L2260.9 1012.1L2259.11 1013.05L2258.21 1011.35L2261.02 1010.06L2232.45 957.41L2218.51 937.74L2200.55 914.43L2172.24 878.19L2146.47 846.84L2123.8 819.99L2139.49 836.25L2149.52 846.05L2155.97 848.6L2159 850.19L2168.47 853.04L2179.22 843.96L2201.16 826.27L2202.64 825.49L2223.55 806.68L2226.29 803.94L2239.52 785.83L2279.7 731.54L2305.19 696.19L2307.85 691.12L2337.8 650.7L2367.15 603.71L2391.89 562.4L2413.45 525.97L2363.63 502.42L2347.12 494.88L2309.84 476.1L2309.1 477.62L2257.52 458.15L2185.68 425.08L2178.55 446.03L2180.91 435.86L2108.86 400.31L2106.41 399.34L2104.03 398.19L2098.64 394.02L2070.97 380.75L2054.19 374.17L2009.09 359.02L2004.97 356.21L1965.46 343.42L1951.15 337.96L1948.36 347.72L1945.4 346.85L1947.16 339.04L1915.94 329.13L1909.58 348.21L1863.73 322.64L1820.38 302.31L1812.89 302.37L1802.62 307.74L1794.08 315.02L1774.09 333.1L1772.74 334.61L1762.35 345.44L1742.76 360.43L1730.06 370.04L1782.08 315.79L1749.24 281.67L1789.28 314.97L1807.94 292.1L1817.07 281.17L1834.99 260.98L1817.15 291.02L1904.68 317.04L1957.84 331.73L1973.65 337.19L1992.81 344.13L2006.01 349.26L2042.79 364.49L2104.93 384.11L2122.21 391.48L2122.3 391.14L2129.57 393.9L2187.93 410.88L2193.35 412.75L2219.31 422.17L2253.22 434.88L2292.68 447.65L2295.47 448.28L2342.95 465.2L2359.84 385.43L2362.51 369.33L2366.81 342.31L2370.31 335.68L2379.18 305.08L2381.68 295.45L2402.27 239.86L2403.47 237.2L2411.03 217.3L2413.95 212.44L2425.05 184.57L2443.66 139.19L2455.16 111.33L2461.96 98.0599L2489.4 37.4099L2501.94 5.99994L2503.7 2.65991L2516.16 -27.7301L2526.97 -54.7901L2541.26 -89.5201L2554.43 -120.25L2572.67 -160.4L2578.74 -176.27L2584.83 -191.77L2590.5 -206.58L2597.89 -224.88L2605.73 -241.35L2607.88 -245.06L2623.61 -281.92L2636.68 -314.75L2637.53 -316.6L2652.78 -352.34L2675.55 -404.59L2678.37 -408.8L2709.37 -467.8L2710.22 -468.83L2723.18 -493.89L2748.52 -540.36L2781.54 -600.18L2784.44 -606.85L2824.96 -605.51L2794.64 -548.36L2800 -545.2L2755.61 -463.71L2720.45 -396.41L2653.1 -253.09L2598.13 -136.95L2544.34 -22.9601L2510.42 45.7199L2495.23 80.0699L2500.88 98.0999L2485.11 129.64L2493.29 134.15L2460.54 202.57L2452.31 199.47L2437.97 229.2L2387.75 332.39L2377.12 349.67L2370.46 373.2L2364.27 390.36L2352.25 451.26L2417.95 471.81L2425.55 474.42L2423.74 479.42L2500.18 498.59L2533.91 510.03L2606.02 521.84L2686.16 534.83L2718.3 540.2L2746.65 543.19L2810.84 556.85L2819.61 559.18L2870.48 568.2L2890.19 572.69L2908.55 575.74L2914.57 576.83L2914.51 578.58L2910.66 577.69L2897.4 574.42L2896.14 578.34L2817.47 559.97L2785.95 553.9L2773.15 590.14L2769.81 587.62L2754.1 580.99L2753 580.49L2754.51 572.11L2752.88 571.33L2753.59 564.91L2735.12 563.1L2676.91 550.42L2676.92 550.92L2646.76 543.82L2584.81 529.08L2577.61 527.8L2559.72 523.87L2457.72 509.48L2470.39 550.79L2470.53 551.21L2468.35 551.98L2455.86 523.62L2411.55 552.81L2359.91 621.28L2355.96 634.63L2355.32 640.57L2322.04 687.01L2315.16 698.98L2290.94 725.49L2281.91 735.78L2270.7 749.13L2232.01 798.03L2224.67 807.57L2186.28 849.95L2176.64 863.24L2187.28 878.36L2192.72 886.47L2217.28 920.23L2240.04 951.33L2266.12 986.58L2276.41 1004.45L2301.27 1038.52L2301.62 1038.27L2305.92 1055.21L2301.45 1056.09L2313.82 1118.8L2317.18 1159.97L2317.82 1177.1L2325.14 1213.52L2335.73 1247.25L2336.56 1251.46L2338.06 1256.14L2342.43 1279.35L2387.97 1263.13L2393.61 1261.22L2444.19 1243.39L2443.33 1244.05L2392.42 1266.89L2389.5 1268.34L2363.56 1278.86L2348.98 1279.59L2346.59 1281.16L2325.53 1295.1L2327.58 1303.1L2323.82 1297.92L2316.5 1304.59L2313.85 1301.11L2291.43 1321.05L2267.2 1342.89L2257.27 1352.29L2231.81 1382.21L2152.54 1468.52L2151.31 1465.83ZM2549.36 1459.4L2545.46 1459.54L2546.01 1459.41L2550.23 1459.27L2555.16 1459.82L2556.61 1460.15L2556.35 1460.46L2559.08 1462.1L2549.36 1459.4ZM1495.61 1367.17L1524.6 1329.06L1527.94 1323.77L1547.71 1297.14L1585.38 1246.7L1568.43 1235.53L1542.65 1217.95L1510.45 1196.97L1492.26 1185.34L1495.64 1177.41L1492.09 1175.28L1492.38 1172.78L1487.25 1164.11L1470.35 1157.08L1470.15 1157.83L1458.56 1153.73L1468.28 1084.04L1477.51 1004.28L1478.2 1002.54L1485.41 978.27L1486.78 973.13L1491.75 963.66L1509.8 910.25L1526.38 862.1L1534.56 836.58L1540.47 818.82L1544.77 796.49L1547.45 783.27L1556.38 738.8L1558.77 727.37L1559.72 709.17V702.76L1559.65 696.03L1557.48 668.5L1553.55 610.64L1576.28 614.98L1569.6 659.92L1564.14 701.07L1561.1 750.59L1553.14 792.02L1552.35 796.6L1551.59 800.21L1546.6 818.78L1538.89 850.63L1527.77 882.23L1521.56 900.28L1515.02 917.17L1511.43 926.17L1509.32 931.9L1501.17 961L1496.63 982.98L1490.91 1013.18L1489.11 1025.95L1486.3 1058.01L1490.61 1111.42L1494.18 1153.07L1499.95 1165.45L1516.15 1192.24L1549.47 1211.86L1572.99 1223.91L1593.74 1231.45L1612.61 1237.6L1634.85 1243.75L1601.46 1238.12L1561.28 1288.11L1554.79 1296.3L1548.37 1304.5L1525.07 1333.63L1504.52 1358.98L1489.3 1379.61L1495.61 1367.17ZM1654.12 1246.99L1642.04 1244.95L1651.41 1245.18L1700.8 1242.92L1744.23 1242.65L1735.59 1258.15L1722.37 1258.75L1654.12 1246.99ZM2489.58 1206.67L2483.94 1212.75L2482.89 1213.56L2489.58 1206.67ZM2510.82 1177.18L2515.24 1172.17L2539.61 1145.84L2567.02 1114.15L2584.51 1092L2592.19 1083.54L2598.33 1077.27L2599.07 1076.63L2589.71 1088.51L2586.8 1096.09L2586.33 1096.63L2535.57 1152.45L2528.95 1160.87L2511.95 1178.58L2510.82 1177.18ZM2876.02 1146.29L2869.26 1133.53L2849.66 1088.18L2839.85 1062.9L2799.16 962.29L2694.78 1009.4L2662.87 1025.8L2659.34 1027.11L2662.02 1025.19L2683.19 1011.1L2694.84 1004.57L2709.94 995.91L2752.07 976.19L2795.65 956.29L2834.12 944.22L2837.33 921.39L2838.11 915.3L2838.59 915.46L2840.58 900.46L2839.03 919.92L2833.5 998.9L2883.1 1109.74L2893.32 1130.1L2896.06 1135.34L2894.69 1176.81L2876.02 1146.29ZM907.61 1067.01L877.24 1022.57L885.14 1031.5L929.61 1094.88L931.72 1102.2L907.61 1067.01ZM841.39 970.1L865.64 1004.27L865.07 1004.75L841.39 970.1ZM2846.78 820.79L2850.1 754.93L2853.25 746.69L2878.94 672.06L2869.96 669.31L2866.7 667.5L2859.16 663.18L2849.58 655.31L2827.45 640.18L2829.02 637.08L2800.23 620.81L2801.06 613.26L2825.51 629.45L2823.8 632.4L2860.69 657.91L2880.51 670.67L2883.14 666.75L2911.07 682L2910.66 694.45L2878.25 676.47L2857.14 757.78L2855.27 768.25L2853.9 800.97L2848.35 834.19L2845.97 846.33L2846.78 820.79ZM2068.85 770.17L2061.23 778.51L2065.18 767.04L2101.87 797.26L2108.12 803.75L2068.85 770.17ZM1886.62 782.7L1877.04 777.97L1874.53 776.03L1889.21 782.37L1888.59 783.7L1886.62 782.7ZM1819.02 745.59L1824.65 731.33L1821.33 746.92L1819.02 745.59ZM1819.63 673.51L1832.99 675.88L1838.23 677.24L1837.25 679.69L1819.63 673.51ZM1740.91 651.82L1740.95 651.74L1741.83 652.03L1740.91 651.82ZM1706.03 390.55L1706.2 390.68L1704.65 392.35L1706.03 390.55ZM2127.28 307.31L2125.46 280.54L2126.06 229.99L2125.52 229.84L2125.45 173.32L2120.88 164.15L2126.29 139.53L2126.83 135.75L2137.58 76.3599L2132.87 72.3599L2102.96 46.8899L2088.44 35.5299L2088.82 33.5699L2087.1 27.3499L2085.6 23.6799L2088.94 30.0899L2100.53 41.5099L2144.1 53.2299L2167.16 2.68994L2158.28 25.9499L2137.17 101.56L2135.99 108.52L2131.77 176.12L2130.54 239.29L2130.9 268.79L2130.09 289.86L2129.54 294.96L2127.95 314.35L2127.28 307.31ZM1650.47 210.84L1702.55 244.52L1702.77 244.16L1716.91 254.71L1718.68 256.25L1721.82 258.86L1650.47 210.84ZM1641.49 204.79L1608.44 183.11L1576.79 162.6L1554.14 148.57L1532.12 135.86L1522.66 130.48L1519.22 128.32L1505.54 120.29L1516.87 126.45L1536.64 136.58L1552.47 144.25L1563.77 150.71L1599.61 175L1603.7 178.13L1639.5 201.99L1644.34 206.71L1641.49 204.79ZM1904.85 137.53L1911.27 125.62L1916.49 129.22L1910.18 140.4L1904.85 137.53ZM1460.84 97.3899L1461.05 97.4699L1475.26 103.6L1484.26 108.59L1460.84 97.3899ZM1389.69 63.1999L1387.12 59.9999L1389.1 62.1599L1390.8 63.7399L1389.69 63.1999ZM1376.03 46.1999L1373.9 44.3599L1374.58 42.0599L1381.28 52.7399L1376.03 46.1999ZM1357.84 26.4099L1365.07 24.6999L1371.27 27.3299L1366.71 29.5099L1370.01 34.7699L1357.84 26.4099ZM1343.62 29.7699L1349.61 28.3599L1348.81 30.9499L1343.62 29.7699ZM1241.68 28.4899L1252.74 26.9799L1287.8 27.4999L1288.2 27.7299L1246.03 28.4899H1241.68ZM2008.3 -9.51007L2014.62 -15.3301L2051.89 -47.1701L2056.95 -50.2101L2056.94 -67.4901L2058.26 -97.1601L2059.17 -107.58L2038.57 -182.01L2031.47 -201.31L2020.12 -236.16L2004.81 -271.18L2002.68 -276.43L1999 -286.06L1974.08 -343.94L1971.44 -347.4L1939.35 -404.64L1926.23 -426.7L1873.84 -486.9L1850.17 -461.95L1830.14 -427.7L1815.73 -402.14L1806 -387.33L1804.96 -383.98L1770.93 -334.71L1737.93 -295.44L1715.08 -264.77L1715.69 -264.02L1690.53 -246.68L1678.5 -245.46L1662.24 -241.58L1629.43 -233.52L1624.26 -232L1580.86 -222.78L1561.92 -216.67L1509.65 -200.98L1405.64 -166.86L1385.49 -160.58L1382.55 -159.39L1348.14 -150.44L1330.46 -145.94L1279.85 -140.54L1271.19 -141.11L1214.88 -147.68L1216.56 -155.08L1187.7 -166.55L1244.8 -159L1248.44 -169.65L1253.5 -168.8L1252.96 -157.55L1292.13 -154.15L1331.3 -157.79L1373.42 -170.09L1416.32 -183.25L1452.17 -196.55L1453.45 -191.04L1498.51 -202.55L1527.09 -210.2L1570.09 -225.32L1602.55 -236.96L1650.43 -255.25L1654.23 -256.74L1660.88 -241.87L1698.81 -261.77L1710.02 -269.49L1713.73 -274.06L1721.19 -283.85L1731.14 -296.47L1736.39 -303.33L1748.88 -323.86L1782.23 -373.08L1793.71 -394.74L1805.95 -416.76L1811.71 -427.61L1821.28 -447.45L1849.82 -502.86L1875 -556.99L1877.83 -564.12L1880.75 -571.13L1887.38 -589.76L1885.62 -590.51L1886.07 -592.2L1886.63 -593.18L1887.39 -595.16L1888.3 -598.52L1887.81 -600.95L1887.86 -601.28L1889.9 -610.85L1890.74 -614.64L1892.42 -614.45L1896.76 -636.31L1905.74 -636.01L1900.23 -597.71L1891.98 -571.49L1879.82 -533.98L1880.15 -533.43L1867.6 -499L1894.29 -467.24L1913.51 -444.97L1913.36 -444.82L1939.73 -410.43L1967.64 -358.97L1969.56 -355.89L1981.05 -334.58L1990.97 -316.05L2006.7 -284.56L2009.14 -279.87L2018.26 -261.87L2010.9 -257.49L2034.43 -210.21L2035.96 -207.29L2050.71 -172.87L2067.71 -134.2L2059.16 -70.2201L2062.01 -51.2901L2065.71 -32.2601L2068.46 -22.8401L2070.51 -17.0901L2070.58 -16.8801L2068.11 -15.2701L2077.57 6.62994L2077.19 6.12994L2067.18 -9.1701L2050.05 -36.4201L2017.67 -12.3701L2010.94 -5.51007L2002.93 1.84991L1997.91 5.96991L1991.86 10.2399L2008.3 -9.51007ZM1022.64 -132.4L1050.13 -154.09L1051.77 -152.87L1051.37 -152.55L1022.52 -132.27L1022.64 -132.4ZM2241.5 -145.92L2244.81 -152.9L2247.41 -158.57L2250.9 -163.11L2249.55 -160.28L2239.15 -140.82L2241.5 -145.92ZM1084.34 -188.89L1100.88 -193.21L1125.67 -195L1137.24 -189.7L1186.85 -174.82L1184.28 -167.92L1182.78 -168.52L1159.34 -175.77L1143.82 -179.81L1121.73 -183.03L1099.1 -179.39L1085.64 -172.17L1062.53 -159.55L1084.34 -188.89ZM2372.42 -374.89L2373.13 -374.36L2365.84 -360.39L2372.42 -374.89ZM2424.01 -481L2428.65 -490.26L2427.34 -485.81L2423.91 -478.75L2424.01 -481ZM2478.11 -589.72L2485.73 -602.99L2467.99 -569.28L2478.11 -589.72Z" stroke="#8EC1F9" stroke-width="0.75" stroke-miterlimit="10"/>
</g>
<mask id="mask3_12_7187" style="mask-type:luminance" maskUnits="userSpaceOnUse" x="0" y="-1" width="2880" height="1621">
<path d="M2880 -0.00012207H0V1620H2880V-0.00012207Z" fill="white"/>
</mask>
<g mask="url(#mask3_12_7187)">
<path d="M2355.3 2299.53L2354.89 2297.31L2359.4 2297L2350.32 2263.04L2342.17 2218.66L2338.91 2204.19L2312.37 2076.79L2286.09 1945.85L2273.93 1886.17L2270.66 1868.41L2267.43 1852.82L2259.35 1809.7L2255.85 1785.31L2252.08 1785.49L2249.33 1772.95L2252.66 1770.33L2248.37 1752.44L2245.16 1738.67L2238.34 1700.71L2237.73 1683.45L2240.29 1695.02L2248.16 1735L2263.13 1809.46L2268.77 1836.56L2276.37 1858.12L2283.3 1889.53L2290.96 1926.8L2290.64 1926.86L2295.47 1960.32L2312.84 2055.2L2328 2141.74L2327.07 2141.96L2330.08 2153.64L2332.15 2165.44L2333.07 2165.25L2342.95 2203.58L2346.2 2217.98L2368.91 2297.23L2369.58 2299.98L2355.3 2299.53ZM717.07 2245.25L715.06 2233.09L714.79 2217.17L715.73 2221.95L720.44 2245.36L717.07 2245.25ZM1236 2073.11L1228.36 2065.06L1217.01 2057.96L1220.58 2058.39L1223.67 2058.47L1243.4 2055.68L1253.38 2055.09L1256.85 2056.55L1266.4 2062.44L1276.98 2071.22L1279.41 2073.46L1308.57 2111.95L1271.44 2136.75L1236 2073.11ZM628.02 2003.52L603.44 1969.65L610.65 1967.15L643.31 2029.22L643.87 2030.26L628.02 2003.52ZM513.97 1866.2L520.22 1875.2L519.79 1875.52L513.97 1866.2ZM1001.15 1839.32L1008.34 1834.05L1023.41 1824.97L1018.16 1830.67L1026.91 1842.51L996.21 1865.78L987.21 1872.2L1001.15 1839.32ZM1029.51 1815.6L1036.1 1811.18L1030.54 1817.22L1029.51 1815.6ZM1085.17 1763.01L1085.07 1757.76L1086.79 1755.29L1086.46 1758.44L1086.42 1762.54L1084.79 1763.71L1085.17 1763.01ZM443.54 1725.33L443.63 1721.91L433.75 1697.57L429.01 1686.65L433.2 1674.7L441.21 1697L441.81 1696.78L447.9 1713.44L451.33 1725.5L451.85 1727.09L445.52 1730.01L443.54 1725.33ZM1077.86 1687.37L1077.2 1683.9L1093.24 1673.87L1082.57 1708.33L1077.86 1687.37ZM2222.02 1613.87L2225.09 1626.33L2227.23 1636L2222.02 1613.87ZM2203.29 1561.89L2198.5 1556.81L2176.34 1522.93L2159.99 1514.51L2156.06 1514.39L2127.51 1513.41L2125.05 1514.48L2129.3 1509.52L2138.84 1498.72L2146.11 1486.02L2150.61 1482.69L2162.59 1498.74L2192.17 1538.3L2206.61 1567.78L2203.29 1561.89ZM2058.15 1546.78L2036.02 1520.11L2018.5 1498.87L2026.61 1492.6L2062.63 1543.1L2091.45 1531.47L2062.55 1552.01L2058.15 1546.78ZM363.67 1533.67L363.32 1533.26L364.68 1531.97L365.89 1533.26L372.52 1542.33L370.78 1543.55L363.67 1533.67ZM1327.46 1537.66L1329.07 1538.55L1323.11 1542.05L1327.46 1537.66ZM1371.28 1517.24L1390.41 1500.06L1403.77 1486.33L1408.34 1482.06L1422.6 1464.29L1382.08 1524.06L1371.28 1517.24ZM257.85 1432.15L247.44 1420.96L264.51 1437.82L257.85 1432.15ZM1952.3 1370.35L1939.79 1348.29L1933.49 1337.84L1887.03 1288.2L1894.41 1292.7L1902.29 1297.86L1935.62 1339.95L1970.01 1392.93L1982.82 1413.91L1989.29 1427.4L1988.45 1427.96L1952.3 1370.35ZM-32.27 1160.61L35.01 1138.76L52.12 1139.9L116.75 1112.6L154.68 1096.25L220.63 1073.71L286.2 1044.26L319.99 1030.64L370.97 1008.68L400.47 992.1L424.32 978.03L422.39 973.43L426.24 971.54L429.78 978.54L461.17 961.25L458.45 955.69L462.96 953.48L467.27 961.81L548.58 924.25L616.68 890.39L745.79 811.35L822.41 749.02L882.48 697.46L920.72 657.72L946.33 629.14L963.87 628.63L963.62 624.12L987.3 623.32L1047.98 551.34L1045.75 536.68L1061.91 503.78L1062.95 504.34L1082.25 468.2L1070.61 390.48L1045.06 325.63L1007.87 259.49L963.52 202.92L868.73 88.0599L832.34 46.6498L735.29 -48.6702L735.23 -48.5801L725.65 -59.2001L624.51 -143.08L546.41 -210.79L499.17 -148.73L478.87 -165.68L413.7 -229.73L384.9 -254.99L349.16 -283.82L346.28 -280.53L310.71 -315.7L192.77 -418.53L187.27 -422.08L182.81 -425.98L139.36 -462.65L73.43 -524.76L70.2701 -527.94L66.25 -531.57L25 -564.62L29.27 -693.16L208.07 -687.24L235.81 -664.54L255.05 -649.61L300.31 -614.3L292.15 -604.29L374.89 -525.67L396.53 -506.5L454.31 -463.18L518.78 -418.33L524.78 -413.26L528.57 -412.42L551.34 -393.76L577.43 -375L571.82 -365.37L632.91 -318.85L638.53 -322.62L671.77 -307.76L679.64 -318.37L705.99 -298.04L749.59 -267.75L752.88 -264.56L762.89 -257.65L793.56 -235.99L810.91 -223.5L867.12 -181.96L890.79 -162.93L944.53 -118.25L949.39 -124.33L980.47 -92.1102L980.6 -92.2101L1001.53 -56.2601L1056.05 30.3898L1067.84 24.7999L1093.34 71.4799L1107.56 64.9299L1113.81 91.1599L1114.52 94.8898L1114.18 94.9598L1117 108L1118.2 114.33L1118.36 114.3L1122.1 131.56L1123.37 137.21L1118.92 138.62L1135.64 225.42L1139.72 238.84L1139.21 238.98L1148.65 271.83L1155.86 332.89L1164.79 331.86L1166.9 354.69L1157.04 427.6L1187.53 431.93L1134.33 604.16L1114.05 606.78L1048.53 681.64L1050.11 703.23L991.04 761.19L963.52 799.49L911.9 869.46L900.83 884.85L896.13 890.91L886.85 898.84L883.06 894.04L838.66 931.88L842.65 936.66L824.26 952.39L822.07 948.92L734.32 1007.15L657.58 1054.68L553.15 1120.77L403.57 1190.93L399.9 1184.25L308.58 1226.52L257.79 1250.92L252.43 1253.03L243.91 1256.74L181.7 1285.92L146.44 1303.02L142.14 1297.44L62.03 1334.49L13.44 1353.45L-39.21 1369.33L-32.27 1160.61ZM1813.78 1250.29L1822.95 1249.5L1823.51 1249.89L1825.8 1251.34L1853.01 1267.55L1813.78 1250.29ZM1691.48 1248.36L1700.92 1247.93L1735.69 1247.71L1732.58 1253.29L1722.69 1253.74L1691.48 1248.36ZM1571.19 1231.36L1554.98 1220.31L1570.97 1228.5L1592.17 1236.2L1595.65 1237.34L1590.32 1243.98L1571.19 1231.36ZM1498.53 1183.42L1501.19 1177.18L1509.02 1190.13L1498.53 1183.42ZM1497.43 1172.66L1497.54 1171.69L1490.71 1160.14L1467.02 1150.29L1466.74 1151.33L1464.07 1150.39L1473.24 1084.63L1482.39 1005.53L1482.92 1004.2L1490.23 979.57L1491.45 974.97L1494.26 969.61L1491.71 981.97L1485.95 1012.36L1484.11 1025.38L1481.25 1057.99L1485.59 1111.82L1489.23 1154.38L1495.49 1167.8L1499.01 1173.62L1497.43 1172.66ZM2312.24 1169.31L2305.97 1142.78L2308.29 1134.25L2304.52 1119.96L2301.66 1108.22L2298.49 1096.73L2290.54 1069.03L2285.17 1056.86L2287.44 1055.5L2275.06 1028.52L2266.91 1012.83L2267.95 1012.35L2237.67 956.55L2261.91 989.31L2272.19 1007.17L2297.28 1041.56L2299.75 1051.31L2295.55 1052.13L2308.83 1119.48L2312.16 1160.26L2312.54 1170.55L2312.24 1169.31ZM2880.37 1143.81L2873.77 1131.36L2854.28 1086.28L2844.5 1061.09L2803.27 959.14L2831.91 950.16L2828.43 999.82L2878.58 1111.9L2888.85 1132.36L2891.01 1136.51L2890.23 1159.98L2880.37 1143.81ZM2204.51 911.38L2176.1 875.01L2160.31 855.8L2169.62 858.59L2180.44 849.46L2170.48 863.19L2183.14 881.18L2188.61 889.32L2207.13 914.78L2204.51 911.38ZM2312.1 693.78L2313.29 692.17L2311.08 696.01L2310.71 696.42L2312.1 693.78ZM2884.24 674.06L2884.75 673.31L2905.97 684.89L2905.93 686.09L2884.24 674.06ZM1562.45 668.14L1558.97 616.8L1570.63 619.03L1564.66 659.22L1562.84 672.95L1562.45 668.14ZM2758.6 577.48L2760.08 569.27L2758.21 568.37L2759.09 560.44L2735.87 558.16L2671.7 544.19L2671.71 544.58L2647.88 538.97L2585.81 524.2L2578.56 522.91L2569.57 520.94L2605.19 526.77L2685.33 539.76L2717.59 545.15L2745.83 548.13L2780.08 555.42L2770.51 582.51L2758.6 577.48ZM1553.76 555.38L1546.21 544.71L1534.49 536.81L1532.46 535.94L1511.58 523.78L1518.22 526.47L1565.05 535.29L1562.36 540.53L1556.74 565.8L1553.76 555.38ZM2420.55 523.79L2365.77 497.89L2349.3 490.36L2307.56 469.33L2306.6 471.31L2259.46 453.52L2182.75 418.21L2178.97 429.31L2110.9 395.73L2108.43 394.75L2106.69 393.91L2101.29 389.73L2091.9 385.23L2103.16 388.79L2125.52 398.32L2125.67 397.75L2127.95 398.61L2186.39 415.61L2191.69 417.44L2217.58 426.84L2251.55 439.57L2291.34 452.45L2294.05 453.06L2346.63 471.8L2350.02 455.78L2416.36 476.53L2419.08 477.47L2417.11 482.9L2498.72 503.37L2532.65 514.88L2538.52 515.84L2450.58 503.43L2455.08 518.1L2408.03 549.1L2396.5 564.39L2420.55 523.79ZM1452.56 491.91L1442.83 486.93L1472.69 496.95L1484.27 499.28L1481.12 506.96L1452.56 491.91ZM1625.83 455.4L1630.07 449.51L1637.9 454.55L1636.84 455.91L1633.67 460.36L1625.83 455.4ZM1663.26 425.24L1673.5 424.29L1666.09 435.3L1655.71 436.57L1663.26 425.24ZM2371.59 343.88L2374.94 337.53L2383.98 306.31L2386.42 296.93L2406.87 241.73L2408.06 239.09L2415.51 219.47L2418.41 214.64L2429.66 186.4L2448.25 141.07L2459.67 113.41L2466.43 100.22L2493.96 39.3599L2506.44 8.08984L2508.19 4.76984L2520.75 -25.8502L2531.58 -52.9601L2545.85 -87.6401L2558.96 -118.25L2577.25 -158.5L2583.37 -174.51L2589.44 -189.96L2595.13 -204.81L2602.43 -222.88L2610.11 -239.03L2612.32 -242.83L2628.22 -280.09L2641.24 -312.8L2642.1 -314.66L2657.35 -350.4L2679.93 -402.21L2682.64 -406.27L2713.52 -465.05L2714.38 -466.1L2727.56 -491.58L2752.88 -538L2786 -598L2787.64 -601.77L2816.76 -600.8L2787.95 -546.5L2793.26 -543.37L2751.19 -466.12L2715.94 -398.65L2648.54 -255.23L2593.58 -139.1L2539.79 -25.1102L2505.86 43.5898L2489.87 79.7598L2495.48 97.6599L2478.46 131.69L2486.71 136.24L2457.98 196.26L2449.77 193.17L2433.44 227.01L2383.34 329.96L2372.48 347.62L2369.14 359.44L2371.59 343.88ZM1866.01 318.17L1822.8 297.91L1903.22 321.81L1912.27 324.31L1906.74 340.89L1866.01 318.17ZM1811.79 295.24L1812.19 294.76L1820.72 297.3L1811.63 297.37L1808.87 298.81L1811.79 295.24ZM2126.13 163.52L2128.1 154.56L2127.38 166.03L2126.13 163.52ZM2136.1 68.5798L2115 50.5999L2144.03 58.4099L2140.22 72.0698L2136.1 68.5798ZM2052.82 -41.3901L2054.83 -43.1002L2058.11 -45.0701L2060.83 -31.0701L2062.15 -26.5302L2052.82 -41.3901ZM2048.09 -166.33L2062.54 -133.46L2060.8 -120.41L2048.09 -166.33ZM1271.63 -146.1L1220.98 -152.01L1222.11 -156.96L1247.75 -153.57L1247.72 -152.99L1292.13 -149.13L1332.23 -152.86L1374.81 -165.29L1417.92 -178.51L1448.58 -189.88L1449.37 -186.47L1404.07 -171.61L1383.79 -165.29L1380.97 -164.14L1346.87 -155.28L1329.56 -150.88L1279.73 -145.57L1271.63 -146.1ZM1087.3 -184.5L1101.69 -188.26L1124.74 -189.92L1132.06 -186.57L1121.68 -188.09L1097.46 -184.2L1083.26 -176.58L1080.13 -174.87L1087.3 -184.5ZM1651.6 -250.34L1654.11 -244.73L1628.12 -238.35L1623.03 -236.86L1607.87 -233.64L1651.6 -250.34ZM1786.51 -370.49L1798.12 -392.39L1810.31 -414.33L1816.16 -425.35L1825.74 -445.21L1854.3 -500.66L1879.58 -555.01L1882.47 -562.27L1885.41 -569.32L1890.92 -584.8L1887.2 -572.98L1874.35 -533.36L1874.62 -532.91L1861.89 -497.99L1869.21 -489.28L1846.16 -464.98L1825.84 -430.23L1811.47 -404.75L1801.45 -389.5L1800.43 -386.2L1766.97 -337.75L1753.31 -321.49L1786.51 -370.49ZM1891.98 -593.21L1892.13 -593.59L1893.41 -598.33L1892.88 -600.94L1894.63 -609.14L1896.41 -608.94L1897.74 -615.65L1895.32 -598.8L1893.37 -592.61L1891.98 -593.21Z" stroke="#8EC1F9" stroke-width="0.5" stroke-miterlimit="10"/>
</g>
<mask id="mask4_12_7187" style="mask-type:luminance" maskUnits="userSpaceOnUse" x="0" y="-1" width="2880" height="1621">
<path d="M2880 -0.00012207H0V1620H2880V-0.00012207Z" fill="white"/>
</mask>
<g mask="url(#mask4_12_7187)">
<path d="M1240.06 2070.13L1232.59 2062.26L1243.89 2060.66L1252.51 2060.15L1254.55 2061.01L1263.47 2066.51L1273.69 2074.99L1275.69 2076.84L1301.38 2110.75L1273.17 2129.59L1240.06 2070.13ZM1005.21 1842.54L1011.11 1838.22L1015.54 1835.55L1019.95 1841.52L998.87 1857.5L1005.21 1842.54ZM1082.75 1686.33L1084.49 1685.24L1083.34 1688.95L1082.75 1686.33ZM1379.54 1516.55L1383.62 1512.89L1380.66 1517.26L1379.54 1516.55ZM2161.28 1509.56L2156.22 1509.4L2136.68 1508.73L2142.93 1501.65L2149.7 1489.82L2158.59 1501.72L2166.43 1512.2L2161.28 1509.56ZM-27.39 1164.28L35.64 1143.81L52.97 1144.97L118.69 1117.2L156.47 1100.92L222.45 1078.37L288.14 1048.87L321.95 1035.24L373.18 1013.18L403 996.42L426.26 982.7L427.64 985.44L463.61 965.63L465.03 968.37L550.81 928.75L619.1 894.79L748.68 815.46L825.66 752.83L885.91 701.11L924.38 661.13L948.62 634.08L969.14 633.48L968.89 628.94L989.69 628.23L1053.27 552.82L1050.94 537.47L1064.12 510.65L1065 511.13L1087.45 469.09L1075.48 389.17L1049.6 323.47L1012.05 256.7L967.38 199.73L872.49 84.7698L835.98 43.2299L737.66 -53.3401L729.13 -62.8002L627.75 -146.87L545.67 -218.04L498.37 -155.9L482.24 -169.36L417.11 -233.37L388.13 -258.79L348.58 -290.7L346.03 -287.8L314.12 -319.35L195.78 -422.54L190.29 -426.09L186.1 -429.76L142.69 -466.39L76.92 -528.35L73.72 -531.56L69.4901 -535.38L30.08 -566.95L34.1 -688L206.21 -682.3L232.74 -660.59L251.99 -645.65L293.21 -613.49L285.35 -603.85L371.51 -521.98L393.36 -502.62L451.38 -459.12L515.73 -414.35L522.5 -408.64L526.33 -407.8L548.29 -389.8L570.82 -373.6L565.27 -364.07L632.72 -312.71L639.01 -316.93L673.39 -301.57L680.62 -311.31L703.04 -294.02L746.41 -263.89L749.71 -260.69L760.07 -253.55L790.7 -231.92L808.01 -219.45L864.09 -178.01L887.68 -159.04L945.26 -111.15L949.75 -116.76L976.95 -88.5601L997.31 -53.5901L1054.19 36.8099L1065.73 31.3499L1091.2 77.9799L1104.12 72.0198L1108.62 90.9399L1108.22 91.0198L1112.11 108.99L1114.24 120.22L1114.53 120.16L1117.22 132.6L1117.49 133.82L1113.17 135.19L1130.78 226.61L1133.45 235.39L1133.02 235.51L1143.73 272.82L1151.48 338.43L1160.28 337.41L1161.87 354.58L1151.42 431.85L1181.03 436.05L1130.51 599.6L1111.54 602.05L1043.4 679.9L1044.96 701.26L987.23 757.9L959.46 796.55L907.87 866.47L896.82 881.83L892.49 887.42L887.55 891.64L883.76 886.85L831.64 931.27L835.64 936.06L825.4 944.82L823.57 941.92L731.63 1002.94L654.96 1050.43L550.75 1116.38L405.7 1184.41L402.04 1177.75L306.48 1221.99L255.79 1246.35L250.52 1248.43L241.8 1252.23L179.59 1281.41L147.93 1296.76L143.67 1291.24L60.08 1329.9L11.82 1348.74L-33.96 1362.55L-27.39 1164.28ZM1469.74 1146L1478.22 1085.2L1478.36 1084L1480.64 1112.22L1484.04 1151.95L1469.74 1146ZM2884.72 1141.34L2878.29 1129.2L2858.91 1084.38L2849.17 1059.29L2845.38 1049.91L2874.08 1114.05L2884.4 1134.61L2885.99 1137.66L2885.81 1143.13L2884.72 1141.34ZM2291.53 1058.9L2291.77 1058.76L2292.01 1059.99L2291.53 1058.9ZM2279.56 1026.34L2278.5 1024.3L2292.67 1043.72L2293.61 1047.42L2289.68 1048.19L2289.76 1048.59L2279.56 1026.34ZM2809.94 962.29L2826.41 957.12L2823.67 996.25L2809.94 962.29ZM1564.39 622.92L1564.97 623.03L1564.58 625.66L1564.39 622.92ZM2764.23 574.43L2765.68 566.4L2763.57 565.39L2764.47 557.21L2773.47 559.13L2767.57 575.84L2764.23 574.43ZM2736.64 553.21L2727.5 551.22L2745.04 553.07L2753.42 554.85L2736.64 553.21ZM1549.76 541.08L1542.39 536.11L1557.58 538.97L1555.35 548.99L1549.76 541.08ZM2427.64 521.62L2367.9 493.38L2351.46 485.87L2305.27 462.6L2304.09 465.04L2261.39 448.92L2254.8 445.89L2290.02 457.29L2292.66 457.89L2350.34 478.45L2353.78 462.22L2412.64 480.63L2410.54 486.43L2468.22 500.9L2443.51 497.41L2449.22 516.02L2419.3 535.73L2427.64 521.62ZM2153.91 411.38L2177.45 418.23L2176.06 422.31L2153.91 411.38ZM1879.52 319.99L1901.8 326.61L1905.87 327.73L1903.92 333.59L1879.52 319.99ZM2391.2 298.43L2411.5 243.62L2412.68 241L2420.02 221.66L2422.9 216.86L2434.3 188.24L2452.87 142.96L2464.21 115.5L2470.94 102.38L2498.57 41.3099L2510.99 10.1799L2512.73 6.88983L2525.38 -23.9501L2536.22 -51.1002L2550.47 -85.7302L2563.53 -116.22L2581.86 -156.57L2588.04 -172.73L2594.1 -188.14L2599.8 -203.03L2607.01 -220.88L2614.54 -236.71L2616.8 -240.6L2632.87 -278.25L2645.84 -310.84L2646.7 -312.71L2661.95 -348.45L2684.33 -399.81L2686.94 -403.72L2717.71 -462.27L2718.58 -463.33L2731.98 -489.23L2757.27 -535.61L2790.49 -595.79L2790.87 -596.66L2808.59 -596.07L2781.3 -544.62L2786.57 -541.51L2746.81 -468.51L2711.47 -400.87L2644.03 -257.36L2589.07 -141.25L2535.28 -27.2501L2501.34 41.4698L2484.54 79.4598L2490.11 97.2198L2471.84 133.74L2480.17 138.33L2455.46 189.96L2447.26 186.87L2428.95 224.83L2389.04 306.83L2391.2 298.43ZM2135.15 61.1998L2137.86 61.9299L2137.5 63.2098L2135.15 61.1998ZM1857.34 -495.63L1862.51 -489.48L1844.26 -470.24L1857.34 -495.63Z" stroke="#8EC1F9" stroke-width="0.25" stroke-miterlimit="10"/>
</g>
</svg>
