<svg width="360" height="563" viewBox="0 0 360 563" fill="none" xmlns="http://www.w3.org/2000/svg">
<mask id="mask0_64_24668" style="mask-type:luminance" maskUnits="userSpaceOnUse" x="-813" y="-292" width="1520" height="855">
<path d="M707 -292H-813V563H707V-292Z" fill="white"/>
</mask>
<g mask="url(#mask0_64_24668)">
<path d="M672.884 8.7013L718.585 19.3782L718.981 19.4733L719.429 18.2646L719.682 17.473L721.978 18.0377L730.254 19.9429L730.644 8.06264L722.907 6.6588L713.37 5.07547L702.999 2.71632L676.241 -2.02846L671.697 -3.23703L637.423 -10.531L622.344 -12.1249L605.514 -14.9379L563.228 -21.7884L525.603 -27.9529L508.012 -33.922L473.126 -42.6726L473.918 -44.8629L464.771 -48.0085L434.535 -57.4662L439.881 -84.5728L443.074 -93.4237L446.436 -105.32L451.798 -114.039L478.425 -168.748L483.898 -180.09L488.252 -178.449L509.59 -223.025L509.78 -223.421L505.537 -225.759L512.461 -239.602L512.546 -239.771L509.521 -249.424L516.689 -265.638L534.58 -301.87L562.964 -362.02L591.981 -423.327L627.48 -498.868L645.941 -534.208L671.591 -581.307L671.808 -581.697L668.926 -583.391L686.527 -616.568L653.52 -617.66L653.219 -617.671L651.947 -615L650.248 -611.094L632.926 -579.718L619.526 -555.145L612.913 -542.367L612.475 -541.834L595.987 -510.458L594.393 -508.072L582.17 -480.026L574.121 -461.163L573.678 -460.203L566.727 -442.739L558.599 -423.702L557.518 -421.833L553.221 -412.798L549.226 -402.907L546.249 -395.133L543.014 -386.905L539.874 -378.682L530.295 -357.598L523.291 -341.247L515.728 -322.87L510.044 -308.63L503.563 -292.829L502.618 -291.045L495.942 -274.314L481.565 -242.531L477.934 -235.449L471.775 -220.534L461.932 -196.536L456.232 -182.222L454.67 -179.62L450.569 -168.827L449.925 -167.397L438.905 -137.646L437.517 -132.305L433.025 -116.815L431.025 -113.02L428.624 -97.9309L427.236 -89.5498L419.593 -53.4657L399.923 -60.4746L398.377 -60.8229L377.888 -67.4518L360.055 -74.1387L346.28 -79.1368L343.293 -80.1712L312.565 -89.1065L312.454 -89.1487L313.938 -108.972L316.144 -135.857L316.444 -138.586L316.883 -150.033L316.687 -165.735L317.336 -198.795L319.543 -234.082L320.076 -237.206L331.074 -276.61L335.861 -289.145L343.277 -308.018L347.182 -314.795L378.939 -374.18L382.818 -382.292L383.989 -384.039L389.695 -394.315L400.023 -410.486L403.095 -414.983L403.755 -414.74L410.648 -424.947L421.398 -443.747L435.912 -471.212L438.161 -475.667L446.024 -490.751L446.204 -491.099L445.55 -491.59L450.252 -501.185L457.525 -513.213L457.688 -514.342L467.136 -534.387L472.999 -546.463L474.034 -549.983L474.282 -550.342L481.211 -565.315L511.221 -622.357L506.281 -622.521L499.963 -622.727L490.189 -605.695L475.131 -575.279L461.071 -547.186L460.876 -542.885L445.143 -512.226L437.76 -498.794L437.459 -499.042L426.275 -474.405L419.314 -459.343L416.337 -453.532L409.671 -442.892L400.541 -427.523L397.078 -422.05L388.08 -407.177L387.979 -407.013L388.117 -406.465L377.202 -390.362L372.653 -383.744L368.547 -378.392L366.958 -374.919L365.185 -371.188L360.276 -360.585L352.803 -345.934L336.891 -315.486L332.6 -307.76L330.082 -301.31L328.842 -299.099L315.616 -270.113L298.278 -274.773L293.745 -279.238L290.414 -285.64L285.063 -298.022L286.029 -298.65L284.715 -302.672L283.659 -305.633L282.318 -310.224L280.434 -319.92L279.057 -329.061L283.648 -363.419L283.664 -363.546L274.111 -385.264L266.248 -403.62L265.34 -405.346L255.159 -425.813L258.906 -428.04L257.117 -432.004L252.003 -442.09L250.752 -444.491L242.413 -461.185L237.135 -471.038L230.992 -482.428L229.979 -484.058L212.573 -516.158L211.886 -515.678L203.748 -526.286L204.023 -526.56L190.744 -541.945L178.621 -556.369L185.017 -573.923L185.054 -574.023L184.822 -574.414L190.522 -591.984L195.003 -606.228L197.774 -625.503L198.228 -625.434L199.769 -632.659L183.587 -633.198L181.36 -623.962L181.851 -623.856L181.486 -622.014L180.837 -622.088L180.23 -619.966L179.222 -615.433L178.114 -610.239L177.971 -609.326L178.03 -608.434L178.119 -608.002L178.035 -607.696L177.871 -607.273L177.586 -606.772L177.37 -606.244L177.074 -605.136L175.502 -600.697L176.42 -600.307L174.631 -595.282L173.111 -591.635L171.67 -588.009L158.491 -559.673L143.444 -530.466L138.409 -520.026L135.464 -514.48L128.957 -502.763L123.03 -491.585L105.513 -465.734L99.0001 -455.025L96.4457 -451.69L91.1468 -444.961L87.2096 -439.794L85.8321 -438.105L80.8023 -434.643L66.0404 -426.895L62.7681 -434.205L56.1129 -431.603L30.8429 -421.95L13.8432 -415.854L-8.65599 -407.942L-23.4865 -403.973L-42.0432 -399.234L-42.856 -402.728L-67.2552 -393.676L-89.6857 -386.799L-111.43 -380.45L-131.127 -378.619L-146.269 -379.933L-146 -385.48L-157.326 -387.385L-157.711 -387.454L-159.685 -381.68L-180.938 -384.488L-179.756 -387.66L-210.985 -397.028L-217.988 -400.231L-232.903 -399.155L-243.739 -396.326L-243.897 -396.284L-257.076 -378.561L-259.282 -380.213L-260.496 -378.688L-276.862 -365.773L-282.224 -360.326L-294.717 -351.069L-312.55 -369.557L-315.701 -365.615L-337.952 -384.118L-350.572 -394.262L-380.449 -416.339L-389.664 -422.973L-405.925 -434.458L-410.67 -437.73L-412.401 -439.403L-435.776 -455.643L-455.911 -471.175L-461.088 -464.203L-476.832 -471.239L-478.732 -469.961L-500.904 -486.845L-497.843 -492.096L-517.244 -506.051L-530.533 -516.939L-532.475 -517.366L-534.433 -519.018L-568.723 -542.874L-598.77 -565.405L-609.842 -575.216L-648.09 -611.559L-624.388 -640.613L-615.822 -652.847L-611.009 -659.518L-616.999 -659.719L-623.169 -659.924L-633.402 -646.149L-650.798 -623.265L-673.593 -641.051L-683.747 -648.931L-700.119 -662.431L-700.24 -662.532L-793.403 -665.619L-805.199 -666.01L-807.838 -586.526L-807.843 -586.294L-783.165 -566.518L-781.37 -564.898L-779.76 -563.278L-744.721 -530.265L-721.731 -510.869L-718.945 -508.431L-716.036 -506.552L-654.403 -452.819L-629.829 -428.52L-627.776 -430.864L-614.957 -420.519L-600.047 -407.446L-565.578 -373.573L-548.631 -359.429L-548.261 -359.123L-523.424 -391.75L-488.512 -361.482L-435.507 -317.529L-424.313 -305.115L-423.933 -305.633L-379.452 -261.943L-360.441 -240.31L-310.571 -179.884L-287.66 -150.661L-268.597 -116.752L-255.645 -83.8656L-250.025 -46.3248L-255.223 -36.5926L-257.519 -37.8382L-262.338 -28.9715L-260.659 -27.5676L-269.209 -10.1615L-269.273 -10.0295L-268.265 -3.39011L-295.709 29.1633L-312.767 29.7438L-312.64 32.0871L-317.179 32.219L-332.965 49.8363L-352.693 70.3352L-384.112 97.3046L-423.98 129.737L-491.372 170.998L-526.997 188.71L-562.838 205.262L-565.198 200.707L-581.622 208.771L-580.028 212.033L-582.81 213.564L-584.509 210.196L-600.258 217.949L-599.028 220.879L-605.662 224.795L-620.725 233.255L-647.251 244.681L-665.058 251.859L-699.47 267.312L-734.208 279.182L-754.464 287.912L-786.838 301.586L-795.472 301.011H-795.515L-837.446 314.628L-837.753 314.728L-841.938 440.83L-841.959 441.474L-803.31 429.82L-777.143 419.608L-740.383 402.603L-710.284 441.68L-710.189 441.806L-707.645 442.445L-682.385 469.583L-660.393 488.298L-660.087 488.562L-659.554 488.082L-639.329 505.915L-630.663 515.241L-632.146 516.65L-627.296 522.329L-620.957 531.127L-619.337 533.735L-616.556 531.787L-616.128 532.368L-617.252 533.117L-611.463 541.081L-611.225 541.408L-610.212 540.865L-609.52 541.894L-609.082 544.142L-603.82 555.479L-592.273 590.508L-595.075 598.493L-591.344 607.101L-586.826 618.237L-586.879 620.116L-584.805 624.966L-576.862 644.52L-571.922 656.237L-569.182 661.605L-559.06 680.161L-545.385 702.075L-562.168 714.609L-584.52 731.994L-625.333 760.352L-633.645 766.036L-641.789 771.06L-646.892 774.433L-674.817 793.586L-684.781 804.59L-705.286 827.427L-706.436 829.237L-719.478 852.085L-724.444 875.392L-724.761 876.642L-724.924 877.745L-727.885 890.65L-728.007 891.193L-720.596 891.441L-716.221 870.52L-707.56 853.272L-706.357 851.726L-695.464 831.586L-676.1 809.826L-667.544 800.421L-644.153 783.416L-635.556 778.291L-633.387 776.254L-617.527 765.123L-577.326 741.832L-576.914 741.41L-572.967 733.504L-567.879 728.326L-560.421 723.745L-556.653 720.911L-536.793 706.27L-522.938 722.795L-518.933 727.946L-515.56 732.395L-504.999 746.804L-501.263 751.76L-488.205 769.751L-460.027 817.294L-458.75 821.352L-452.591 841.614L-447.155 860.181L-445.598 865.733L-445.339 866.847L-443.703 878.389L-443.55 887.282L-441.402 900.308L-441.339 900.677L-423.078 901.284L-427.522 879.165L-429.279 870.193L-436.267 847.419L-437.085 843.983L-445.308 816.908L-447.313 812.248L-459.188 788.825L-466.508 775.277L-482.263 745.336L-431.316 727.656L-414.77 726.078L-402.246 727.461L-367.091 728.611L-358.852 728.975L-335.868 724.632L-305.768 713.865L-295.931 708.63L-282.552 699.093L-270.217 689.74L-267.056 694.205L-247.84 718.752L-249.571 720.035L-242.847 728.522L-241.475 727.535L-228.481 744.518L-223.308 751.095L-189.631 792.029L-189.415 792.293L-185.171 795.238L-186.28 796.758L-179.265 800.463L-178.389 798.7L-169.792 804.073L-167.142 806.865L-144.131 848.206L-143.888 848.644L-139.862 845.952L-140.827 844.458L-120.587 830.937L-119.447 832.393L-115.14 829.865L-112.111 829.39L-109.214 829.401L-109.166 829.475L-109.024 829.401H-108.675L-108.76 829.258L-106.078 827.849L-105.308 829.448L-88.6196 818.207L-84.4976 815.531L-81.0354 813.182L-76.7921 810.58L-75.1138 809.509L-73.7415 808.701L-68.1893 805.266L-51.5379 795.813L-39.8107 789.855L-31.7727 786.012L-13.654 777.505L-9.87513 775.541L-6.1649 773.383L1.84151 767.281L22.657 753.116L36.7118 743.283L62.4621 725.693L62.784 725.471L62.5095 725.334L54.329 704.286L52.5398 700.438L48.7715 690.268L49.4313 684.637L49.6846 681.65V681.618L47.7529 673.886L49.7743 673.4L50.302 660.792L53.6482 652.828L55.8596 647.661L59.9129 637.453L64.9532 627.7L73.3976 611.898L81.2404 607.185L79.9895 606.647L80.1954 606.346L71.8618 597.965L64.1668 590.402L54.3554 580.691L51.479 578.047L52.7721 576.559L50.2071 574.147L48.4285 575.941L33.846 564.541L23.5859 556.418L18.0654 552.17L4.36959 540.617L-1.43068 535.181L-2.18543 539.498L-6.10157 541.282L-8.93573 540.089L-9.00963 540.057L-18.4991 542.701L-48.4029 532.764L-49.2843 532.283L-57.3382 527.248L-76.0796 515.357L-49.0099 475.42L-46.2602 471.499L-23.4813 440.181L-14.8204 428.443L-4.02737 415.132L8.30151 399.716L11.674 395.415L15.0782 391.124L34.3051 367.2L34.342 367.152L59.0737 371.322L95.6593 377.628L105.888 377.169L106.146 377.159L111.15 368.187L131.11 371.934L133.079 372.367L135.786 372.789L168.028 386.97L176.837 392.976L201.072 418.869L203.97 423.672L210.551 435.283L242.381 486.008L246.709 493.365L240.988 497.793L255.449 515.326L267.166 529.438L273.906 537.45L274.18 537.777L296.933 521.606L299.793 519.738L311.357 514.703L324.657 515.162L324.947 515.173L330.135 517.843L341.065 534.558L343.414 537.049L345.483 540.717L347.626 545.546L349.832 552.307L360.071 595.77L360.445 606.441L364.177 627.23L365.929 634.746L367.011 639.248L366.166 639.913L365.406 640.879L369.196 658.19L369.28 658.57L370.758 658.501L371.608 664.418L375.93 687.487L377.635 695.715L379.356 705.062L385.768 736.538L399.649 805.704L413.682 873.069L415.371 880.553L419.699 904.134L422.09 913.08L420.427 913.196L423.441 929.357L447.154 930.143L447.761 930.164L444.9 918.432L432.93 876.663L431.236 869.158L424.845 844.358L426.681 843.92L426.069 841.16L424.238 841.524L415.434 791.285L406.277 741.257L404.847 731.335L408.473 730.643L407.296 723.275L403.961 723.856L399.791 703.563L396.028 686.516L392.033 675.184L389.178 661.451L381.287 622.185L377.118 600.984L369.048 564.536L365.966 552.043L362.81 542.1L359.031 532.658L350.745 515.743L334.695 494.273L328.061 485.385L368.821 441.009L382.137 425.361L387.172 420.6L399.844 409.184L407.423 402.445L408.864 404.334L412.632 400.903L417.635 407.802L439.67 440.904L456.923 468.1L471.279 490.948L479.792 501.429L479.929 501.598L484.51 501.609L502.233 492.541L515.042 486.757L525.898 483.754L531.841 483.548L537.515 485.132L542.402 487.433L561.143 498.495L571.44 505.219L572.559 505.857L573.683 506.448L597.386 515.241L600.637 516.65L612.158 521.226L621.817 525.126L639.228 533.719L641.92 535.529L668.963 552.333L683.809 562.366L689.129 567.956L701.817 580.158L692.117 591.326L685.831 598.54L678.315 605.977L669.686 614.706L664.762 615.646L647.794 637.232L643.624 641.713L636.99 644.304L632.356 643.676L628.234 642.937L622.503 641.713L616.096 638.546L613.763 643.903L612.654 662.069L613.583 664.011L613.293 669.22L613.029 688.226L613.678 699.335L615.705 755.496L614.713 781.489L615.489 781.494L615.763 802.516L617.141 840.257L617.489 850.961L618.977 876.917L619.283 881.15L622.091 932.687L622.482 935.943L636.895 936.424L636.193 931.23L632.124 907.776L631.285 881.018L630.52 860.524L627.976 830.91L627.147 817.135L626.867 802.965L626.772 783.569L626.577 771.43L625.696 747.854L624.698 725.397L624.334 716.499L623.411 716.467L623.036 684.568L625.332 652.648L644.654 650.421L649.747 648.663L649.868 648.621L652.676 645.291L675.339 621.309L700.878 598.862L710.884 595.722L711.196 595.627L711.745 579.023L711.75 578.87L709.813 576.173L707.955 574.025L697.616 562.435L687.916 554.513L671.327 543.388L658.402 536.849L647.482 530.177L646.38 528.098L625.854 518.461L612.274 512.296L595.956 505.562L582.798 500.701L578.607 498.801L567.83 493.164L546.988 479.152L544.165 477.458L544.935 476.539L541.689 474.924L539.119 473.874L536.401 473.257L533.129 472.892L530.005 472.993L526.748 473.747L513.232 477.985L481.734 490.573L467.231 469.351L463.547 463.714L462.618 462.474L454.643 450.567L450.125 443.421L437.49 423.988L423.567 401.912L421.182 397.03L420.369 393.868L428.339 388.596L428.402 388.553L435.553 388.195L450.257 382.231L451.883 381.418L479.227 369.152L501.505 351.978L508.186 344.774L515.739 334.498L525.671 324.154L529.208 319.652L555.908 290.292L556.81 289.257L558.394 285.135L570.575 269.677L591.654 255.3L594.499 254.245L611.499 245.505L661.458 222.953L680.843 270.891L686.058 284.328L696.524 308.537L700.266 315.604L717.339 343.518L719.413 346.627L720.754 306.13L720.759 306.009L718.711 302.088L713.37 291.448L687.778 234.263L690.602 193.946L692.359 171.822L693.742 157.904L695.447 149.206L698.445 131.283L699.168 114.04L700.054 109.069L709.433 72.9477L728.132 83.3185L728.734 65.1577L728.744 64.8726L707.29 53.1613L706.921 52.9607L705.733 54.7288L699.627 50.7969L684.311 40.2043L685.261 38.5629L666.293 26.0019L656.434 18.6816L660.772 6.39491L672.884 8.7013ZM40.3271 663.647L39.8574 666.724L39.034 670.878L39.0234 670.941L40.1107 683.961L40.8971 697.451L45.9268 708.197L52.2707 721.17L28.9323 738.275L-8.64543 760.473L-12.6882 762.991L-19.5019 766.738L-42.8402 779.299L-46.2443 780.434L-55.3643 785.938L-80.0062 800.458L-91.8285 807.973L-96.3304 810.512L-97.6446 811.208L-113.599 821.083L-131.86 796.98L-133.813 795.18L-139.988 790.06L-146.021 786.34L-150.058 784.64L-150.111 784.619L-157.547 785.057L-167.633 786.482L-168.23 786.466L-170.578 786.181L-171.549 786.002L-172.22 785.738L-173.476 785.31L-174.515 784.883L-175.555 784.524L-176.336 784.17L-177.445 783.495L-178.474 782.809L-179.144 782.471L-180.295 781.669L-181.545 780.735L-184.417 782.756L-214.479 744.255L-216.405 741.658L-218.39 738.613L-244.467 704.254L-243.237 703.452L-259.419 682.795L-265.383 674.725L-251.597 659.747L-242.435 649.999L-231.832 642.372L-231.737 642.304L-231.679 636.503L-231.178 631.685L-233.458 626.734L-235.12 622.839L-236.455 619.636L-226.417 587.241L-205.982 577.472L-196.297 572.811L-183.546 570.674L-157.801 555.194L-155.014 553.241L-129.179 538.743L-116.597 532.146L-105.398 525.565L-91.0315 516.988L-61.1593 535.851L-47.9437 542.833L-34.591 550.133L-29.6774 550.491L-23.2807 549.695L-20.1721 548.417L-19.1957 546.786L-17.1638 547.905L-4.35459 550.502L-3.29375 551.251L16.0123 562.092L19.1737 564.462L39.7518 580.754L48.7451 587.716L57.6487 594.213L64.7315 600.256L56.0971 622.18L42.454 654.596L40.3271 663.647ZM-285.581 669.643L-291.054 673.654L-300.997 697.129L-301.884 698.042L-302.728 698.501L-303.541 698.692L-304.792 698.538L-306.708 700.718L-307.436 701.241L-308.455 699.81L-313.759 703.8L-312.487 705.484L-313.653 706.276L-316.509 707.542L-332.849 712.905L-338.327 713.617L-339.499 713.86L-358.388 716.583L-372.078 714.947L-375.145 713.902L-414.179 713.58L-435.602 718.077L-449.725 723.497L-459.273 726.943L-497.088 740.043L-515.233 717.195L-546.472 672.213L-546.541 672.113L-548.441 671.21L-554.315 661.779L-559.45 649.402L-558.69 649.017L-568.359 625.404L-564.781 623.758L-567.214 616.363L-569.061 609.882L-571.621 602.889L-569.462 602.082L-573.03 592.645L-575.368 593.495L-578.983 583.435L-583.332 576.616L-589.95 560.282L-594.188 550.687L-605.029 524.836L-607.103 521.3L-613.801 512.143L-618.223 507.456L-616.814 506.264L-620.477 502.527L-621.923 503.35L-633.825 489.655L-641.203 483.97L-658.551 470.391L-709.112 420.479L-709.466 420.13L-710.226 421.012L-725.526 399.563L-713.756 393.852L-680.923 378.452L-676.633 376.589L-673.793 375.475L-646.829 362.518L-605.34 343.312L-603.388 346.87L-517.265 306.473L-461.79 271.366L-421.183 246.212L-381.515 219.886L-377.8 225.771L-373.398 222.831L-338.353 274.115L-291.914 341.856L-288.953 348.242L-283.913 356.449L-281.596 354.871L-281.348 355.172L-281.602 355.293L-275.263 364.128L-267.79 374.768L-263.198 381.107L-253.877 393.282L-251.497 394.929L-243.902 403.569L-241.417 406.852L-236.503 413.122L-229.895 420.378L-225.145 425.735L-217.54 434.043L-208.515 444.683L-176.204 483.21L-173.365 485.849L-170.013 485.981L-143.002 502.712L-137.012 506.733L-120.302 516.249L-137.998 534.13L-144.173 538.099L-159.162 546.903L-166.425 550.898L-188.945 560.894L-193.304 562.366L-223.224 574.558L-224.586 572.7L-228.687 574.611L-227.087 576.495L-253.022 592.703L-253.286 592.872L-251.903 600.155L-245.665 627.906L-245.966 629.911L-248.315 633.295L-248.251 636.509L-250.246 640.129L-267.874 655.488L-280.467 663.937L-279.3 665.79L-285.143 669.31L-285.153 669.305L-285.65 669.616L-285.581 669.643ZM-54.4776 458.078L-56.3724 461.06L-57.9926 463.144L-61.534 467.356L-75.5307 484.799L-77.6682 486.799L-84.6613 493.982L-97.2593 505.298L-107.588 513.151L-121.352 505.567L-127.833 501.392L-132.04 498.6L-142.632 490.826L-145.583 488.72L-156.582 480.709L-169.027 469.446L-171.09 468.021L-173.718 465.667L-180.622 459.249L-233.4 404.028L-237.833 398.36L-284.019 340.003L-287.096 336.008L-301.298 315.694L-314.06 295.585L-317.538 283.542L-341.689 249.125L-349.98 239.752L-349.015 238.939L-364.827 216.662L-367.84 212.397L-357.533 203.573L-357.185 203.277L-359.28 200.765L-348.059 191.202L-346.048 193.745L-334.284 183.686L-331.218 179.733L-325.349 171.579L-298.042 134.566L-283.913 114.906L-250.758 82.3738L-250.605 82.226L-251.465 70.4724L-221.039 35.7076L-208.256 34.0557L-179.651 -58.5429L-107.071 -41.9706L-94.689 -38.9043L-87.126 -37.759L-77.341 -35.004L-67.3027 -32.3334L-59.386 -30.159L-50.0601 -25.3826L-26.2943 -12.8584L-7.7588 -2.06538L-6.93015 -1.70646L-2.56542 1.23851L-0.195702 4.58989L0.928467 8.52187L0.780674 9.74629L0.928467 13.7205L1.11318 20.191L1.30317 23.611L1.55121 28.9996L3.7415 61.2574L4.87623 75.6077L4.91315 78.9221V82.1679L4.44349 91.2299L3.25599 96.9035L-1.45182 120.363L-2.87685 127.393L-5.07765 138.835L-8.1018 147.934L-12.4191 161.403L-21.1432 186.737L-30.5376 214.529L-33.2399 219.68L-34.116 222.963L-37.8104 235.398L-38.3488 236.743L-43.2993 279.536L-48.9571 320.085L-49.0099 320.46L-41.0351 323.283L-41.964 327.088L-34.3218 329.078L-33.451 325.875L-31.6935 326.603L-30.7857 328.139L-30.9335 329.421L-31.4454 330.888L-30.2685 331.59L-31.9996 335.654L-18.6785 344.178L-1.68407 355.251L11.8957 364.513L16.1654 367.326L-0.375128 389.472L-10.9255 403.685L-12.6724 406.45L-28.1204 426.754L-31.9996 434.375L-43.1515 447.506L-44.5132 446.419L-51.3005 454.568L-54.4776 458.078ZM-177.624 -368.253L-178.199 -365.33L-173.069 -364.781L-142.585 -361.223L-137.428 -360.886L-109.894 -363.82L-100.167 -366.295L-81.6687 -371.103L-80.001 -371.779L-69.5035 -375.051L-14.6093 -393.059L12.909 -401.319L22.694 -404.475L45.5257 -409.325L48.3387 -410.148L65.5073 -414.365L73.7512 -416.334L78.1001 -416.777L79.7204 -412.55L86.3862 -415.648L84.4704 -419.406L96.4826 -427.676L98.2876 -425.665L101.787 -428.33L98.8734 -431.893L108.379 -444.649L125.859 -465.449L144.421 -492.323L144.991 -494.155L149.815 -501.496L157.467 -515.071L167.727 -532.625L175.802 -541.138L199.325 -514.105L206.007 -502.868L223.06 -472.458L224.284 -470.848L237.135 -440.997L239.056 -435.962L240.228 -433.075L248.234 -414.761L254.177 -396.516L257.882 -386.441L268.443 -348.288L268.037 -343.627L267.329 -327.736L267.335 -321.487L266.849 -321.197L246.773 -304.044L243.104 -300.666L226.97 -281.286L216.256 -267.253L208.229 -256.565L204.487 -250.591L191.836 -229.601L182.991 -213.198L182.294 -210.469L174.451 -194.235L171.343 -188.075L166.276 -176.992L159.732 -167.049L141.993 -147.062L137.09 -141.188L130.609 -133.245L97.459 -160.821L96.4668 -161.686L84.2065 -170.833L83.8951 -170.326L58.414 -186.803L55.6274 -189.521L36.469 -202.294L34.321 -203.935L15.1151 -216.95L8.81344 -220.55L0.300378 -224.677L-10.0282 -229.97L-21.3649 -236.145L-32.0629 -242.072L-39.9215 -245.461L-48.6721 -248.738L-56.6099 -251.615L-60.7688 -253.219L-64.7165 -255.071L-68.5007 -256.908L-72.1107 -259.336L-73.884 -260.84L-76.1324 -262.925L-77.3779 -264.286L-78.1854 -265.268L-78.6182 -265.685L-79.4627 -266.873L-84.0702 -274.219L-78.0482 -277.096L-80.7293 -279.682L-88.646 -283.038L-88.3187 -284.189L-90.9682 -284.759L-105.018 -281.439L-110.57 -281.186L-129.96 -281.635L-131.897 -282.738L-152.153 -283.038L-170.599 -280.521L-181.857 -278.806L-223.562 -268.704L-232.56 -264.556L-246.056 -289.261L-252.685 -286.121L-277.67 -325.831L-288.61 -344.625L-254.97 -368.275L-253.228 -369.647L-237.537 -378.213L-231.22 -381.606L-220.949 -383.258L-210.378 -381.717L-202.583 -379.69L-190.523 -375.964L-177.086 -370.628L-177.624 -368.253ZM-189.425 -102.765L-189.003 -102.792L-189.879 -112.239L-182.907 -112.851L-184.253 -126.452L-196.038 -125.09L-198.994 -150.112L-201.949 -160.409L-198.218 -161.454L-200.012 -167.27L-203.227 -165.983L-205.95 -174.939L-213.365 -213.435L-210.811 -214.248L-213.054 -224.255L-215.524 -235.655L-210.79 -236.568L-212.157 -242.035L-216.585 -241.085L-217.429 -245.545L-221.203 -261.384L-187.208 -269.432L-175.37 -271.712L-155.304 -271.691L-123.089 -272.272L-106.395 -271.454L-97.5548 -269.448L-96.7843 -271.939L-93.1585 -269.448L-93.929 -266.825L-90.6041 -263.943L-82.946 -254.412L-59.8504 -243.276L-28.2735 -228.176L-13.8916 -219.731L-12.113 -218.613L-7.05153 -215.731L4.57015 -209.023L16.3818 -201.703L32.9698 -190.952L50.3601 -179.541L99.9713 -146.154L101.993 -144.238L120.18 -125.344L91.1468 -95.0651L88.2757 -91.8721L86.4337 -93.3182L83.6998 -89.7662L79.8946 -90.1515L66.8796 -75.7168L60.2982 -75.1045L51.289 -61.5882L45.2354 -65.4832L28.9376 -42.8468L17.6274 -27.1876L11.009 -17.9146L-9.51627 -21.7831L-21.8346 -26.7707L-18.7207 -34.3654L-33.7413 -37.3896L-49.9599 -42.8362L-60.5788 -46.5359L-76.3804 -50.2251L-102.674 -55.5504L-109.066 -56.759L-115.42 -58.0679L-146.622 -66.3382L-170.293 -69.7846L-193.484 -73.0779L-189.425 -102.765ZM444.858 2.10936L431.854 23.8274L416.474 48.4482L400.551 69.9394L399.131 72.6416L385.932 90.9449L364.71 119.624L357.965 128.855L356.909 129.916L346.465 139.31L345.81 139.654L333.782 149.354L330.246 152.336L328.473 151.803L327.074 151.069L324.393 150.009L319.859 145.58L299.909 124.892L279.379 107.982L288.9 87.4932L301.434 60.2441L301.635 59.8166L301.039 59.5527L304.221 52.4594L307.536 46.3688L309.969 41.1332L312.206 35.1482L316.154 24.3816L317.104 18.7554L322.593 1.55517L343.678 -60.4112L376.447 -45.3273L407.951 -33.4365L408.346 -33.2834L408.499 -33.6054L423.473 -26.0634L432.223 -22.0629L453.281 -12.109L444.858 2.10936ZM326.673 -36.3129L322.419 -23.7307L320.065 -15.2493L316.788 -2.64592L310.718 16.1535L308.206 21.4841L297.059 51.3088L290.89 66.6143L284.641 81.1757L282.946 85.3135L276.27 100.075L274.412 104.013L268.971 119.825L268.111 122.638L266.211 124.807L257.434 135.051L238.988 130.861L223.149 126.359L215.555 124.237L207.226 121.725L199.167 119.192L189.551 117.513L171.364 109.665L153.915 101.036L158.945 77.4338L161.362 69.1952L162.993 65.126L164.239 61.801L155.551 59.5421L137.955 56.4282L126.513 53.0557L115.176 49.4616L102.974 45.4715L102.225 47.1499L93.3001 45.1232L90.3393 44.3685L62.5465 37.8769L62.6626 35.5177L53.4476 33.6124L48.7873 32.6835L27.2487 28.7885L12.4393 25.9596L19.1104 -4.01813L22.1662 -9.96091L34.1837 -30.9454L37.134 -33.4946L44.7657 -42.5037L51.3523 -38.3342L57.274 -46.6626L62.0768 -52.8481L62.6943 -53.8456L68.8851 -54.6004L70.8379 -54.7534L77.5671 -64.7496L80.8182 -69.299L84.7818 -75.1257L93.907 -84.9265L94.799 -85.8342L95.3954 -86.5415L110.015 -97.5984L120.671 -105.758L126.503 -111.833L127.094 -112.492L137.433 -121.845L141.37 -125.196L145.138 -127.165L146.621 -127.175L168.25 -117.031L197.362 -100.792L197.848 -100.522L201.574 -111.695L208.477 -109.505L207.527 -105.283L218.721 -101.984L218.943 -101.921L220.294 -106.655L222.595 -105.779L242.862 -99.2187L245.01 -97.7515L269.383 -89.5657L277.938 -86.209L291.861 -79.5326L294.7 -77.337L296.621 -76.4081L297.893 -75.9015L331.977 -59.0865L326.673 -36.3129ZM410.494 269.022L404.953 247.172L402.731 248.766L392.861 235.245L387.425 225.803L373.492 206.972L361.49 190.568L348.586 172.83L345.741 168.592L342.258 163.646L344.96 159.92L365.169 137.611L369.127 132.465L389.547 106.662L395.368 99.7377L400.06 94.3913L413.165 80.0463L416.949 73.4596L435.094 48.1368L435.168 48.0366L435.601 43.9938L437.279 38.3255L463.409 3.67684L480.816 -7.79176L486.864 5.94631L497.483 2.18326L495.847 -2.8412L491.593 -16.7059L537.013 -10.2987L546.366 -8.24564L550.123 -7.57535L582.682 0.172393L605.281 5.49237L605.271 5.1071L629.707 10.4271L634.446 10.8916L634.246 12.686L634.853 12.9763L634.035 17.4941L638.436 19.4838L646.174 22.7507L653.584 28.3399L659.811 33.586L659.458 36.8002L659.373 38.5946L673.106 46.3582L672.468 47.6302L687.773 58.096L692.993 62.3816L697.416 64.9202L699.622 66.1499L699.674 66.1657L687.894 100.387L685.994 105.353L684.2 141.047L683.746 155.223L681.155 181.232L680.775 184.098L680.495 184.003L679.271 193.577L678.041 202.322L660.603 207.795L637.259 218.456L614.824 228.959L606.712 233.614L600.389 237.16L588.963 244.766L578.048 252.593L554.741 272.733L551.279 276.269L547.036 280.945L537.763 292.683L523.402 309.287L510.582 323.135L505.278 329.157L506.909 331.184L493.873 344.611L474.957 359.388L448.616 368.672L445.555 369.707L427.336 376.193L426.111 369.691L425.309 367.194L424.876 364.988L419.287 347.176L415.561 328.645L415.239 319.911L413.434 297.77L407.871 269.561L410.494 269.022ZM304.284 -221.188L304.01 -219.293L300.833 -204.827L300.796 -204.669L303.487 -199.27L303.519 -173.24L302.448 -173.466L302.453 -166.933L303.762 -166.579L303.487 -143.784L304.464 -129.376L305.393 -119.58L304.105 -94.9015L303.503 -92.6373L299.746 -94.2365L266.923 -104.602L247.664 -112.577L240.598 -115.321L230.353 -119.031L221.851 -121.971L193.731 -129.74L154.026 -141.541L160.085 -151.743L171.665 -172.559L177.618 -182.966L192.776 -213.182L197.14 -210.828L199.246 -214.433L205.553 -225.606L205.785 -226.017L202.756 -227.638L202.587 -227.374L201.948 -227.812L202.054 -227.981L202.471 -227.796L205.115 -231.923L204.804 -232.187L205.089 -232.583L205.432 -232.425L207.3 -235.623L207.015 -235.818L207.253 -236.219L207.68 -235.982L209.928 -239.692L209.538 -239.977L209.786 -240.394L210.298 -240.083L212.462 -243.777L212.055 -244.009L212.293 -244.373L212.726 -244.046L214.9 -247.64L214.436 -247.809L214.736 -248.305L215.301 -248.057L217.513 -251.979L217.191 -252.216L217.449 -252.686L217.961 -252.417L219.861 -255.441L219.36 -255.694L219.671 -256.169L220.136 -255.948L222.389 -259.478L221.888 -259.8L222.162 -260.191L222.674 -260.033L224.585 -263.152L224.136 -263.468L224.395 -263.822L224.796 -263.563L226.86 -266.767L226.395 -267.057L226.675 -267.511L227.155 -267.342L229.44 -271.185L229.071 -271.427L229.177 -271.58L229.752 -271.095L230.037 -271.633L230.29 -272.404L230.675 -273.174L231.013 -273.523L231.367 -273.739L232.164 -274.019L232.665 -274.035L233.082 -273.961L233.9 -273.596L236.623 -276.731L236.122 -277.069L236.497 -277.476L237.025 -277.201L239.621 -280.178L239.758 -280.331L239.431 -280.7L239.79 -281.218L244.635 -284.643L247.543 -287.028L251.982 -291.103L255.344 -294.528L267.525 -303.574L273.584 -293.942L278.956 -285.73L280.139 -284.152L280.587 -282.965L283.511 -275.84L284.002 -274.061L283.416 -271.068L293.544 -263.146L309.251 -249.767L309.414 -249.625L304.284 -221.188ZM304.786 499.54L300.864 504.121L296.505 507.404L291.259 507.552L278.418 512.734L261.814 489.459L254.32 479.674L246.028 464.759L246.994 464.11L240.439 450.446L233.414 438.94L215 410.572L196.38 387.055L191.039 383.561L171.517 371.665L154.654 361.621L153.783 361.067L151.271 359.315L140.045 360.286L119.525 352.374L117.673 357.457L116.306 358.507L84.5073 358.708L58.5143 359.895L52.7773 359.753L39.604 356.111L29.8032 352.918L19.2846 349.097L7.304 342.959L-8.99906 333.359L-16.7099 320.602L-19.238 315.177L-21.0376 294.15L-23.2754 266.405L-21.8452 250.065L-20.9321 243.583L-17.9554 227.85L-15.5963 216.429L-11.4004 201.451L-10.3607 198.627L-8.49764 193.962L-5.00903 184.953L-1.7157 175.373L4.24293 158.442L8.3754 141.374L11.0143 131.557L11.4629 129.42L11.8799 127.003L16.1443 104.804L17.7593 78.5158L20.604 57.0669L23.3959 38.2938L57.4904 43.1388L58.3665 43.5346L60.657 44.3738L65.3068 45.5877L79.9737 49.2979L96.224 55.0454L101.365 56.4019L113.092 59.0935L132.055 63.6851L151.044 70.3457L146.78 87.7413L141.998 99.8591L141.254 101.96L140.542 104.604L144.078 105.892L159.019 114.468L170.255 119.598L172.857 121.567L174.837 123.092L180.31 125.794L186.221 128.792L188.469 123.957L203.585 128.074L209.649 129.916L224.791 133.457L235.473 136.08L235.505 136.091L240.687 135.801L258.035 143.1L258.305 143.211L266.469 135.869L279.321 121.809L299.54 139.094L315.753 158.295L329.354 174.84L344.195 193.84L353.611 206.064L360.725 216.097L372.97 238.659L371.55 239.314L376.986 249.616L377.091 249.822L378.005 249.336L380.596 254.324L384.095 261.955L382.987 262.626L388.423 274.933L392.45 288.957L394.123 295.021L395.606 301.127L397.052 306.616L395.886 310.896L395.854 311.012L399.654 327.078L402.087 336.778L410.167 371.095L410.917 373.697L413.223 384.289L399.654 394.417L387.346 403.838L382.242 404.329L368.821 417.08L347.863 443.696L346.902 444.809L345.979 446.034L325.992 469.53L316.397 480.487L316.202 480.709L317.637 483.939L313.605 486.926L309.346 494.368L304.786 499.54Z" fill="#CAD3DC"/>
</g>
<mask id="mask1_64_24668" style="mask-type:luminance" maskUnits="userSpaceOnUse" x="-813" y="-292" width="1520" height="855">
<path d="M707 -292H-813V563H707V-292Z" fill="white"/>
</mask>
<g mask="url(#mask1_64_24668)">
<path d="M624.867 933.378L624.756 932.46L621.954 881.007L621.642 876.727L620.154 850.839L619.806 840.167L618.428 802.453L618.117 778.877L617.478 778.871L618.37 755.496L616.333 699.177L615.689 688.162L615.953 669.31L616.28 663.478L615.351 661.541L616.386 644.526L617.425 642.135L621.648 644.219L627.743 645.523L631.966 646.278L637.333 647.006L645.165 643.945L649.82 638.942L666.25 618.047L671.011 617.139L680.215 607.824L687.783 600.34L694.133 593.051L705.48 579.989L691.029 566.087L685.551 560.334L670.43 550.117L643.381 533.307L640.584 531.428L622.925 522.714L613.171 518.777L601.671 514.212L598.394 512.792L574.786 504.031L573.852 503.54L572.844 502.965L562.563 496.252L543.663 485.1L538.464 482.651L532.179 480.899L525.513 481.131L514.16 484.271L501.103 490.166L483.892 498.97L481.201 498.964L473.442 489.412L459.171 466.701L441.876 439.447L419.815 406.302L413.049 396.977L409.233 400.455L407.813 398.592L398.107 407.221L385.377 418.689L380.237 423.55L366.863 439.273L324.656 485.226L332.6 495.866L348.507 517.141L356.64 533.745L360.345 543.007L363.443 552.777L366.499 565.158L374.553 601.538L378.717 622.712L386.612 661.99L389.51 675.913L393.51 687.26L397.236 704.149L401.913 726.912L405.132 726.352L405.48 728.548L401.897 729.229L403.702 741.742L412.859 791.77L421.725 842.4L421.636 842.421L421.926 843.556L422.116 844.654L422.2 844.638L428.681 869.792L430.381 877.328L442.356 919.118L444.378 927.42L425.652 926.802L423.573 915.64L425.478 915.508L422.29 903.569L417.973 880.041L416.273 872.51L402.245 805.186L388.37 736.037L381.952 704.555L380.232 695.203L378.527 686.975L374.22 664.011L373.038 655.778L371.391 655.857L368.277 641.644L369.977 640.309L368.504 634.16L366.773 626.729L363.084 606.193L362.704 595.453L352.381 551.631L350.095 544.633L347.847 539.566L345.562 535.508L343.155 532.953L331.966 515.848L325.633 512.586L324.746 512.56L310.855 512.08L298.542 517.442L295.454 519.458L274.644 534.246L269.198 527.77L257.491 513.668L244.767 498.241L250.171 494.061L244.629 484.635L212.836 433.958L206.25 422.336L203.21 417.296L178.589 390.992L169.342 384.685L136.562 370.266L133.596 369.801L131.627 369.369L109.803 365.273L104.594 374.615L95.8648 375.01L59.559 368.751L33.2915 364.323L13.0565 389.498L9.64179 393.805L6.25871 398.117L-6.05432 413.512L-16.8738 426.859L-25.5716 438.65L-48.361 469.984L-51.1371 473.942L-79.7585 516.165L-58.7213 529.512L-50.5882 534.595L-49.4324 535.228L-21.001 544.675L-22.0091 546.359L-23.9777 547.166L-29.7621 547.884L-33.8471 547.583L-46.6985 540.559L-59.856 533.608L-91.016 513.932L-107.034 523.496L-117.896 529.876L-130.488 536.479L-156.439 551.04L-159.258 553.019L-184.491 568.193L-197.115 570.309L-207.138 575.128L-228.608 585.393L-239.269 619.804L-237.564 623.889L-235.859 627.869L-233.88 632.16L-234.318 636.382L-234.36 640.968L-244.182 648.03L-253.519 657.968L-268.798 674.572L-261.493 684.452L-247.085 702.845L-248.278 703.626L-220.548 740.159L-218.569 743.188L-216.559 745.901L-184.95 786.382L-181.577 784.007L-180.495 784.761L-179.799 785.115L-178.859 785.743L-177.566 786.529L-176.527 786.999L-175.445 787.374L-174.4 787.801L-173.128 788.234L-172.283 788.567L-170.98 788.809L-168.425 789.116L-167.486 789.137L-157.289 787.696L-150.581 787.3L-147.24 788.704L-141.54 792.219L-135.566 797.175L-133.835 798.774L-114.265 824.603L-96.3413 813.515L-95.0429 812.829L-90.4777 810.258L-78.629 802.727L-54.024 788.229L-45.131 782.861L-41.7902 781.748L-18.2513 769.081L-11.3532 765.286L-7.2788 762.748L30.3887 740.497L55.6112 722.009L48.2962 707.051L43.504 696.807L42.744 683.755L41.6884 671.099L42.4643 667.194L42.9287 664.159L44.9659 655.451L58.5456 623.187L67.8715 599.511L59.2792 592.181L50.3176 585.641L41.3559 578.706L20.7462 562.387L17.4476 559.918L-1.89014 549.056L-3.29405 548.064L-16.251 545.435L-16.9635 545.045L-9.14187 542.865L-6.0174 544.179L0.215686 541.34L0.368697 540.458L2.6593 542.606L16.4501 554.244L22.0182 558.529L32.2465 566.626L48.6868 579.482L48.9137 579.25L52.5659 582.612L62.3457 592.291L70.0459 599.86L76.8226 606.679L76.6853 606.879L71.4498 610.03L62.6623 626.47L57.5482 636.377L53.4631 646.674L51.2676 651.809L47.7315 660.222L47.267 671.315L44.5965 671.959L47.0665 681.85L46.8501 684.394L46.1218 690.611L50.1487 701.473L51.9432 705.336L59.4323 724.611L35.2601 741.119L21.1843 750.968L0.337064 765.154L-7.59545 771.197L-11.1105 773.245L-14.7785 775.156L-32.8496 783.642L-40.9615 787.522L-52.7416 793.512L-69.488 803.017L-75.056 806.464L-76.4863 807.303L-78.1646 808.374L-82.4185 810.987L-85.9018 813.351L-90.0027 816.011L-104.2 825.58L-104.833 824.265L-109.615 826.783L-112.259 826.778L-115.99 827.364L-118.74 828.979L-119.97 827.411L-143.794 843.324L-164.952 805.313L-168.066 802.036L-179.414 794.937L-180.379 796.879L-182.306 795.866L-181.403 794.626L-187.562 790.35L-221.213 749.453L-226.365 742.903L-240.894 723.919L-242.303 724.932L-245.771 720.557L-244.056 719.285L-264.903 692.654L-269.605 686.014L-284.088 696.992L-297.293 706.408L-306.809 711.469L-336.533 722.104L-359.016 726.357L-366.949 726.004L-402.03 724.859L-414.723 723.46L-431.855 725.091L-486 743.88L-468.815 776.539L-461.5 790.081L-449.678 813.399L-447.767 817.848L-439.608 844.706L-438.79 848.147L-431.818 870.868L-430.087 879.703L-426.297 898.571L-439.064 898.149L-440.89 887.076L-441.043 878.215L-442.722 866.398L-443.017 865.11L-444.59 859.5L-450.037 840.906L-456.201 820.624L-457.579 816.249L-485.978 768.342L-499.104 750.25L-502.873 745.257L-513.412 730.881L-516.811 726.4L-520.902 721.148L-536.344 702.724L-558.205 718.831L-561.894 721.607L-569.52 726.289L-575.131 731.989L-579.042 739.816L-618.942 762.932L-635.049 774.237L-637.15 776.206L-645.605 781.246L-669.313 798.478L-678.047 808.079L-697.633 830.092L-708.569 850.306L-709.798 851.884L-718.734 869.67L-722.729 888.76L-724.724 888.691L-722.333 878.262L-722.175 877.186L-721.869 875.967L-716.992 853.061L-704.188 830.625L-703.185 829.047L-682.829 806.374L-673.076 795.607L-645.41 776.634L-640.38 773.309L-632.22 768.274L-623.86 762.558L-582.973 734.153L-560.564 716.72L-541.875 702.766L-556.796 678.857L-566.866 660.401L-569.547 655.155L-574.45 643.528L-582.377 624.006L-584.24 619.641L-584.193 617.788L-588.943 606.082L-592.262 598.424L-589.507 590.571L-601.388 554.545L-606.581 543.356L-607.061 540.902L-609.378 537.439L-610.471 538.031L-613.527 533.824L-612.376 533.059L-615.991 528.193L-618.588 530.014L-618.783 529.702L-625.238 520.741L-628.537 516.882L-626.98 515.399L-637.514 504.063L-659.602 484.593L-660.166 485.1L-680.597 467.715L-706.283 440.117L-708.695 439.51L-739.623 399.362L-778.22 417.217L-804.213 427.361L-839.241 437.922L-835.22 316.707L-795.219 303.718L-786.426 304.304L-753.472 290.381L-733.295 281.684L-698.536 269.803L-664.061 254.318L-646.249 247.135L-619.596 235.656L-604.364 227.101L-595.746 222.018L-596.907 219.258L-585.728 213.753L-583.971 217.231L-576.593 213.167L-578.134 210.017L-566.391 204.253L-564.058 208.755L-525.863 191.117L-490.132 173.352L-422.492 131.937L-382.434 99.3522L-350.92 72.3036L-331.039 51.6464L-316.008 34.8736L-309.896 34.6941L-310.023 32.3402L-294.485 31.8124L-265.51 -2.55645L-266.576 -9.56529L-257.414 -28.2223L-259.023 -29.5681L-256.495 -34.2178L-254.184 -32.9617L-247.323 -45.8078L-253.118 -84.5097L-266.249 -117.839L-285.47 -152.113L-308.545 -181.547L-358.467 -242.036L-377.541 -263.743L-424.265 -309.639L-424.529 -309.28L-433.676 -319.424L-486.807 -363.488L-523.82 -395.582L-548.689 -362.912L-563.805 -375.532L-598.247 -409.383L-613.252 -422.541L-628.088 -434.511L-629.967 -432.373L-652.603 -454.762L-714.448 -508.664L-717.351 -510.542L-719.995 -512.854L-742.964 -532.234L-777.924 -565.173L-779.555 -566.809L-781.455 -568.524L-805.163 -587.524L-802.65 -663.287L-701.222 -659.925L-685.304 -646.899L-675.15 -639.019L-650.249 -619.592L-631.233 -644.603L-621.807 -657.291L-615.981 -657.096L-617.897 -654.441L-626.431 -642.26L-651.622 -611.385L-611.568 -573.327L-600.38 -563.415L-570.17 -540.763L-535.98 -516.976L-533.621 -514.981L-531.663 -514.548L-518.801 -504.009L-501.279 -491.405L-504.303 -486.207L-478.774 -466.769L-476.521 -468.283L-460.175 -460.979L-455.341 -467.492L-437.28 -453.558L-414.027 -437.403L-412.295 -435.725L-407.371 -432.326L-391.137 -420.862L-381.943 -414.239L-352.134 -392.215L-339.557 -382.102L-315.274 -361.904L-312.318 -365.599L-294.965 -347.607L-280.446 -358.368L-275.057 -363.841L-258.828 -376.651L-256.495 -374.904L-242.288 -394.009L-232.429 -396.585L-218.432 -397.593L-211.877 -394.59L-183.171 -385.976L-184.528 -382.345L-157.848 -378.82L-155.901 -384.52L-148.707 -383.311L-148.982 -377.569L-131.074 -376.012L-110.887 -377.886L-88.8996 -384.303L-66.3635 -391.217L-44.7035 -399.25L-43.9593 -396.052L-22.7902 -401.456L-7.83292 -405.457L14.7612 -413.405L31.8242 -419.522L57.0942 -429.175L61.4273 -430.869L64.8156 -423.29L82.2059 -432.416L87.679 -436.184L89.3468 -438.237L93.284 -443.404L98.5618 -450.101L101.222 -453.579L107.777 -464.351L125.336 -490.265L131.331 -501.57L137.818 -513.239L140.81 -518.876L145.856 -529.331L160.908 -558.56L174.14 -587.012L175.607 -590.707L177.137 -594.38L179.781 -601.811L178.858 -602.207L179.639 -604.408L179.919 -605.453L180.008 -605.669L180.309 -606.202L180.589 -606.936L180.869 -607.976L180.695 -608.846L180.668 -609.274L180.753 -609.828L181.845 -614.947L182.811 -619.281L183.645 -619.186L184.991 -625.962L184.605 -626.041L185.693 -630.549L196.575 -630.19L196.206 -628.464L195.583 -628.554L192.464 -606.872L188.046 -592.834L181.988 -574.15L182.188 -573.812L175.66 -555.9L188.764 -540.309L200.476 -526.74L200.301 -526.561L211.369 -512.126L211.701 -512.358L227.735 -482.792L228.749 -481.161L234.85 -469.84L240.112 -460.024L248.43 -443.372L249.696 -440.934L254.773 -430.922L255.565 -429.164L251.739 -426.89L263.038 -404.179L263.893 -402.549L271.72 -384.287L280.983 -363.224L276.423 -329.098L277.864 -319.534L279.785 -309.665L281.178 -304.883L282.244 -301.886L282.92 -299.817L281.785 -299.078L288.055 -284.564L291.623 -277.708L296.948 -272.462L317.115 -267.042L331.222 -297.959L332.499 -300.234L335.017 -306.688L339.249 -314.32L355.162 -344.767L362.693 -359.535L367.602 -370.138L369.365 -373.848L370.848 -377.083L374.816 -382.25L379.408 -388.927L390.998 -406.021L390.84 -406.649L399.374 -420.746L402.847 -426.235L411.961 -441.578L418.669 -452.292L421.72 -458.25L428.703 -473.361L438.477 -494.894L438.577 -494.809L447.523 -511.086L463.52 -542.257L463.715 -546.569L477.527 -574.161L492.553 -604.513L501.499 -620.099L506.956 -619.919L478.873 -566.545L472.012 -551.72L471.648 -551.197L470.555 -547.476L464.787 -535.596L455.16 -515.161L455.018 -514.174L447.966 -502.504L442.251 -490.841L442.863 -490.387L435.854 -476.949L433.59 -472.463L419.113 -445.045L408.436 -426.372L402.757 -417.965L402.108 -418.208L397.828 -411.938L387.451 -395.698L381.762 -385.449L380.548 -383.638L376.611 -375.405L344.902 -316.109L340.923 -309.195L333.433 -290.142L328.594 -277.471L317.526 -237.813L316.951 -234.414L314.734 -198.932L314.085 -165.729L314.275 -150.091L313.842 -138.808L313.547 -136.095L311.341 -109.21L309.71 -87.4019L311.763 -86.6208L342.527 -77.675L345.451 -76.6617L359.189 -71.6742L377.054 -64.9767L397.711 -58.2898L399.221 -57.9467L421.583 -49.9773L429.864 -89.0697L431.262 -97.5089L433.6 -112.186L435.527 -115.833L440.113 -131.651L441.47 -136.86L452.41 -166.405L453.049 -167.825L457.092 -178.475L458.643 -181.061L464.423 -195.57L474.255 -219.542L480.367 -234.351L483.977 -241.392L498.406 -273.285L505.051 -289.937L505.99 -291.71L512.519 -307.633L518.214 -321.894L525.766 -340.25L532.743 -356.532L542.349 -377.674L545.521 -385.976L548.746 -394.178L551.733 -401.973L555.681 -411.748L559.898 -420.614L561.006 -422.525L569.223 -441.768L576.148 -459.163L576.596 -460.134L584.645 -478.997L596.763 -506.806L598.304 -509.107L614.728 -540.367L615.172 -540.906L621.901 -553.91L635.285 -578.457L652.66 -609.928L654.391 -613.908L654.903 -614.979L682.258 -614.071L665.458 -582.399L668.314 -580.721L643.666 -535.469L625.157 -500.04L589.633 -424.446L560.615 -363.145L532.226 -302.989L514.329 -266.746L506.724 -249.583L509.727 -239.998L502.058 -224.666L506.339 -222.307L486.932 -181.769L482.583 -183.405L476.06 -169.888L449.497 -115.306L444.008 -106.386L440.572 -94.2314L437.342 -85.275L431.494 -55.6509L463.948 -45.4964L470.524 -43.2322L469.648 -40.8151L507.262 -31.3837L524.959 -25.3828L562.8 -19.1814L605.091 -12.3308L621.985 -9.50724L637.006 -7.91862L671.079 -0.666962L675.666 0.552171L702.471 5.30745L712.858 7.67189L722.474 9.27107L727.931 10.2633L727.72 16.6652L722.564 15.4777L717.914 14.3324L717.26 16.3749L673.423 6.1361L659.067 3.37055L653.325 19.6313L664.804 28.155L681.756 39.3808L680.832 40.98L698.223 53.008L706.504 58.3438L707.791 56.4227L726.074 66.403L725.662 78.9114L707.76 68.9838L697.5 108.499L696.566 113.75L695.843 131.008L692.876 148.736L691.156 157.519L689.763 171.563L688 193.735L685.129 234.738L711.011 292.577L716.378 303.27L718.125 306.616L717.086 338.003L702.588 314.295L698.93 307.392L688.522 283.32L683.324 269.93L662.893 219.411L610.369 243.119L593.448 251.817L590.445 252.93L568.764 267.719L556.082 283.811L554.525 287.874L553.949 288.534L527.207 317.942L523.692 322.412L513.728 332.788L506.159 343.085L499.726 350.02L477.865 366.872L450.758 379.032L449.175 379.824L434.978 385.582L427.557 385.951L426.892 386.389L417.35 392.702L418.696 397.942L421.261 403.194L435.258 425.392L447.914 444.857L452.447 452.029L460.464 463.994L461.388 465.218L465.056 470.829L480.752 493.798L514.123 480.461L527.445 476.281L530.353 475.605L533.028 475.52L535.963 475.848L538.327 476.381L540.602 477.31L540.766 477.394L540.159 478.117L545.579 481.363L566.479 495.418L577.451 501.155L581.795 503.123L594.995 508L611.229 514.703L624.767 520.846L644.463 530.098L645.493 532.04L657.119 539.144L669.997 545.657L686.348 556.624L695.795 564.34L705.997 575.772L707.749 577.799L709.095 579.672L708.631 593.658L699.563 596.503L673.518 619.398L650.718 643.523L648.332 646.352L644.073 647.824L622.861 650.273L620.402 684.484L620.808 719.016L621.806 719.048L622.07 725.497L623.073 747.965L623.949 771.498L624.139 783.605L624.234 802.975L624.519 817.236L625.358 831.132L627.896 860.682L628.656 881.118L629.501 908.05L633.591 931.642L633.871 933.69L624.867 933.378ZM-517.365 718.779L-498.007 743.157L-458.423 729.44L-448.844 725.983L-434.868 720.621L-413.932 716.224L-375.61 716.541L-372.686 717.538L-358.372 719.248L-339.061 716.462L-337.91 716.224L-332.279 715.491L-315.575 710.007L-312.382 708.592L-308.724 706.112L-310.075 704.323L-309.046 703.547L-308.065 704.924L-304.94 702.697L-303.742 701.336L-303.41 701.378L-301.795 701.003L-300.28 700.174L-298.77 698.618L-288.917 675.358L-283.76 671.579L-275.617 666.671L-276.852 664.713L-266.249 657.599L-248.146 641.829L-245.586 637.179L-245.65 634.112L-243.438 630.925L-242.968 627.827L-249.307 599.633L-250.347 594.165L-224.132 577.783L-224.122 577.793L-192.365 564.852L-187.969 563.369L-165.237 553.278L-157.812 549.193L-142.775 540.363L-136.31 536.21L-115.99 515.674L-135.608 504.506L-141.598 500.484L-169.201 483.39L-172.267 483.274L-174.268 481.411L-206.473 443.009L-215.54 432.322L-223.182 423.978L-227.9 418.652L-234.466 411.443L-239.316 405.247L-241.834 401.922L-249.703 392.965L-252.009 391.372L-261.055 379.549L-265.626 373.237L-273.078 362.629L-277.607 356.322L-277.153 356.1L-281.074 351.35L-283.095 352.722L-286.61 347.001L-289.598 340.557L-336.158 272.637L-372.675 219.2L-376.998 222.082L-380.713 216.202L-422.592 243.995L-463.163 269.122L-518.516 304.151L-602.248 343.423L-604.195 339.876L-647.922 360.117L-674.833 373.047L-677.667 374.161L-682.027 376.055L-714.86 391.456L-729.474 398.544L-710.405 425.271L-709.292 423.983L-660.282 472.364L-642.813 486.039L-635.625 491.576L-622.478 506.707L-620.921 505.82L-620.673 506.074L-622.045 507.235L-615.822 513.827L-609.299 522.741L-607.383 526.013L-596.611 551.7L-592.373 561.306L-585.681 577.83L-581.364 584.607L-576.957 596.878L-574.577 596.012L-572.867 600.53L-574.999 601.327L-571.573 610.69L-569.737 617.134L-568.022 622.343L-571.753 624.064L-562.068 647.766L-562.844 648.157L-556.685 662.993L-550.288 673.263L-548.32 674.197L-517.365 718.779ZM-158.255 482.767L-147.145 490.858L-144.169 492.979L-133.555 500.769L-129.301 503.598L-122.709 507.842L-107.361 516.297L-95.576 507.34L-82.8302 495.893L-75.8213 488.689L-73.5888 486.599L-59.4865 469.029L-55.9346 464.807L-54.2035 462.579L-52.3615 459.677L-49.3163 456.278L-44.1546 450.076L-42.8088 451.148L-29.8043 435.832L-25.8882 428.147L-10.5141 407.939L-8.75654 405.162L1.73569 391.029L19.9492 366.645L13.3415 362.291L-0.254044 353.023L-17.2485 341.95L-28.7118 334.62L-26.9544 330.498L-28.3213 329.68L-28.0733 327.547L-29.8782 324.492L-35.214 322.27L-36.1905 325.853L-38.7924 325.178L-37.9163 321.578L-46.1127 318.681L-40.6924 279.831L-35.7788 237.387L-35.3249 236.252L-31.5776 223.628L-30.7808 220.63L-28.1207 215.558L-18.6577 187.57L-9.91769 162.2L-5.60044 148.731L-2.5288 139.495L-0.296308 127.879L1.12345 120.875L5.83118 97.41L7.05566 91.5569L7.54124 82.2258V78.9114L7.50426 75.4808L6.36424 61.0408L4.1793 28.8411L3.93648 23.4842L3.75177 20.0799L3.56706 13.6358L3.42983 9.84633L3.61454 8.29998L2.2212 3.4286L-0.686858 -0.682811L-5.65848 -4.03419L-6.57159 -4.42474L-25.0121 -15.165L-48.8254 -27.7156L-58.4205 -32.6292L-66.601 -34.8776L-76.6604 -37.5534L-86.5668 -40.3453L-94.1721 -41.5011L-106.438 -44.5411L-181.451 -61.6676L-210.278 31.6489L-222.364 33.2111L-254.173 69.5538L-253.323 81.1861L-285.924 113.175L-300.185 133.019L-327.471 170.006L-333.335 178.149L-336.2 181.849L-345.674 189.95L-347.68 187.412L-362.969 200.443L-360.869 202.96L-371.372 211.948L-366.97 218.181L-352.562 238.485L-353.738 239.477L-343.753 250.766L-319.94 284.697L-316.477 296.678L-303.483 317.155L-289.207 337.57L-286.093 341.613L-239.886 399.996L-235.384 405.754L-182.464 461.128L-175.503 467.604L-172.716 470.1L-170.658 471.525L-158.255 482.767ZM277.484 515.959L291.813 510.174L297.428 510.021L302.69 506.058L306.796 501.26L311.531 495.903L315.647 488.71L320.936 484.788L319.326 481.168L328.003 471.261L348.063 447.675L348.987 446.456L349.926 445.363L370.8 418.853L383.424 406.857L388.375 406.382L401.279 396.502L416.184 385.376L413.497 373.042L412.743 370.419L404.678 336.166L402.235 326.429L398.598 311.049L399.807 306.621L398.181 300.451L396.688 294.319L395.015 288.254L390.93 274.031L386.359 263.686L387.499 263L382.986 253.168L379.139 245.758L378.21 246.249L375.202 240.549L376.653 239.878L362.989 214.703L355.753 204.496L346.306 192.236L331.417 173.172L317.817 156.627L301.445 137.236L279.12 118.152L264.632 134.006L257.808 140.144L246.033 135.194L258.389 138.001L268.2 126.543L270.454 123.973L271.467 120.664L276.85 105.031L278.65 101.22L285.379 86.3319L287.073 82.1941L293.328 67.6169L299.524 52.248L310.633 22.5288L313.172 17.1455L319.315 -1.89144L322.614 -14.5686L324.936 -22.9392L329.211 -35.5795L334.996 -60.5117L298.938 -78.3031L297.655 -78.8098L296.067 -79.5803L293.222 -81.7812L278.961 -88.6211L270.258 -92.0358L246.171 -100.127L244.012 -101.599L223.45 -108.254L218.526 -110.133L217.116 -105.188L210.625 -107.099L211.564 -111.273L199.874 -114.984L196.333 -104.359L169.432 -119.364L147.181 -129.798L144.463 -129.777L139.871 -127.376L135.649 -123.782L125.204 -114.334L124.55 -113.606L118.892 -107.711L108.394 -99.6781L93.5532 -88.4523L92.8301 -87.5973L91.9593 -86.7106L82.6967 -76.762L78.6329 -70.7875L75.3607 -66.2064L69.344 -57.2711L68.6051 -57.2131L61.1001 -56.2947L59.8862 -54.3367L55.1362 -48.2197L50.6342 -41.8811L44.2218 -45.9398L35.239 -35.3367L32.104 -32.6239L19.8331 -11.2014L16.5926 -4.90503L9.26174 28.0599L26.7418 31.4008L48.3068 35.3011L52.9196 36.2194L59.9073 37.6655L59.7965 39.9666L89.7004 46.9491L92.7087 47.7144L103.745 50.2213L104.41 48.7383L114.358 51.9894L125.769 55.6047L137.353 59.0194L154.992 62.1439L160.745 63.6375L160.533 64.1969L158.866 68.3558L156.385 76.8108L150.907 102.514L170.255 112.082L188.791 120.083L198.544 121.788L206.44 124.269L214.847 126.807L222.442 128.929L237.948 133.336L235.789 133.457L225.455 130.919L210.366 127.388L204.313 125.551L187.049 120.849L185.012 125.224L181.539 123.461L176.272 120.864L174.504 119.503L171.648 117.344L160.259 112.146L145.228 103.516L143.75 102.978L143.803 102.772L144.494 100.814L149.323 88.5697L154.2 68.6778L132.825 61.1833L113.735 56.5599L102.019 53.8683L97.0259 52.5541L80.7598 46.8013L65.9768 43.0647L61.4695 41.8878L59.3848 41.1224L58.2501 40.6105L21.1896 35.3486L18.0176 56.713L15.157 78.2939L13.5474 104.503L9.31457 126.533L8.8976 128.95L8.47536 130.971L5.83647 140.777L1.73569 157.714L-4.18074 174.513L-7.46351 184.066L-10.9363 193.033L-12.8152 197.74L-13.8919 200.664L-18.1404 215.833L-20.5154 227.344L-23.5132 243.177L-24.4474 249.785L-25.904 266.415L-23.6505 294.382L-21.8085 315.889L-19.0219 321.869L-10.8888 335.316L6.05287 345.297L18.2498 351.545L29.0059 355.451L38.8648 358.665L52.4129 362.407L58.572 362.56L84.602 361.373L117.24 361.167L119.916 359.103L121.114 355.826L139.697 362.993L150.58 362.048L152.353 363.283L153.335 363.911L170.197 373.955L189.661 385.814L194.607 389.055L212.884 412.134L231.208 440.365L238.143 451.728L243.653 463.213L242.566 463.941L252.135 481.147L259.719 491.048L277.484 515.959ZM425.298 379.692L446.425 372.171L449.444 371.152L476.224 361.716L495.619 346.558L510.408 331.326L508.708 329.21L512.53 324.872L525.381 310.986L539.779 294.34L549.031 282.623L553.179 278.052L556.53 274.632L579.663 254.646L590.445 246.908L601.75 239.387L607.989 235.894L616.032 231.281L638.368 220.825L661.542 210.244L680.416 204.322L681.878 193.925L682.696 187.528L682.959 187.618L683.772 181.474L686.374 155.376L686.833 141.115L688.607 105.886L690.385 101.226L703.057 64.4238L700.661 63.6902L698.698 62.5978L694.497 60.1911L689.361 55.9688L675.866 46.7433L676.6 45.2919L662.086 37.0902L662.091 37.0005L662.587 32.4722L655.225 26.2761L647.498 20.4494L639.481 17.0664L636.99 15.9422L637.798 11.4719L637.064 11.1183L637.349 8.52688L630.108 7.8144L602.531 1.80828L602.542 2.1355L583.283 -2.39809L550.656 -10.1617L546.877 -10.832L537.478 -12.8956L487.851 -19.8992L493.324 -2.06559L494.179 0.557454L488.294 2.64221L481.977 -11.7081L461.583 1.7291L434.893 37.1219L433.009 43.4817L432.624 47.0705L414.732 72.0344L411.027 78.4838L398.081 92.6494L393.352 98.038L387.483 105.026L367.063 130.834L363.147 135.927L342.912 158.263L339.017 163.635L343.562 170.09L346.422 174.355L359.358 192.135L371.365 208.544L385.214 227.259L390.645 236.696L402.14 252.45L403.343 251.584L407.248 266.98L404.747 267.47L410.79 298.124L412.579 320.058L412.911 328.946L416.706 347.825L422.295 365.632L422.733 367.843L423.53 370.324L425.298 379.692ZM327.464 154.257L330.853 155.276L335.455 151.391L347.261 141.87L347.979 141.49L358.719 131.832L359.97 130.575L366.831 121.181L388.048 92.5122L401.374 74.0347L402.789 71.343L418.654 49.9311L434.091 25.2205L447.122 3.46023L457.018 -13.265L433.342 -24.4592L424.607 -28.4492L407.285 -37.1787L407.011 -36.6192L377.45 -47.7764L342.11 -64.0426L320.081 0.694681L314.518 18.1166L313.573 23.6847L309.71 34.2244L307.514 40.0986L305.16 45.1652L301.841 51.2717L297.529 60.893L298.104 61.1411L286.498 86.3741L276.122 108.704L298.109 126.818L318.006 147.454L322.92 152.251L325.96 153.455L327.464 154.257ZM-25.2391 -25.3089L-10.2238 -19.2289L12.2173 -15.0014L19.8173 -25.6467L31.117 -41.2953L45.9529 -61.905L52.0856 -57.9625L61.8337 -72.5925L68.1829 -73.1836L80.992 -87.3914L84.9293 -86.9956L86.9348 -89.6028L88.6237 -88.2781L93.1151 -93.2761L123.869 -125.349L103.882 -146.112L101.66 -148.223L51.864 -181.732L34.4473 -193.158L17.8012 -203.946L5.91565 -211.308L-5.70603 -218.016L-10.7357 -220.877L-12.5302 -222.006L-27.0071 -230.504L-58.6844 -245.651L-81.2363 -256.523L-88.6727 -265.775L-90.8946 -267.701L-90.0607 -270.53L-98.2201 -276.135L-99.3285 -272.552L-106.01 -274.066L-123.02 -274.9L-155.326 -274.314L-175.598 -274.336L-187.737 -271.997L-224.359 -263.331L-219.989 -244.986L-218.648 -237.924L-214.078 -238.906L-214.009 -238.621L-218.659 -237.724L-215.619 -223.685L-213.904 -216.021L-216.39 -215.23L-208.505 -174.295L-204.905 -162.457L-201.68 -163.75L-201.527 -163.254L-205.211 -162.22L-201.58 -149.574L-198.34 -122.151L-186.607 -123.507L-185.789 -115.237L-192.745 -114.625L-191.827 -104.687L-196.408 -70.8086L-170.621 -67.1511L-147.113 -63.7311L-115.985 -55.4819L-109.557 -54.1572L-103.123 -52.9434L-76.898 -47.6339L-61.2704 -43.987L-50.7835 -40.3348L-34.3802 -34.8247L-22.331 -32.397L-25.2391 -25.3089ZM305.276 -89.017L306.733 -94.49L308.042 -119.639L307.097 -129.592L306.126 -143.858L306.422 -168.595L305.092 -168.954V-170.216L306.163 -169.989L306.126 -199.892L303.572 -205.012L306.607 -218.824L306.886 -220.766L312.296 -250.659L310.971 -251.784L295.228 -265.194L286.329 -272.156L286.725 -274.167L286.023 -276.7L283.052 -283.941L282.487 -285.44L281.131 -287.25L275.8 -295.394L268.248 -307.401L253.612 -296.529L250.155 -293.003L245.828 -289.024L243.046 -286.744L237.9 -283.107L236.174 -280.632L235.942 -280.753L232.148 -276.663L231.678 -276.647L230.237 -276.141L229.35 -275.597L228.976 -275.206L228.654 -275.476L225.397 -270.715L225.513 -270.636L222.78 -266.213L222.848 -266.171L220.441 -262.841L220.69 -262.666L218.161 -259.056L218.346 -258.94L216.525 -256.159L216.399 -256.227L213.839 -251.578L213.686 -251.641L210.709 -246.743L208.904 -244.015L208.894 -244.02L208.772 -243.819L208.308 -243.117L208.34 -243.102L206.329 -239.761L206.302 -239.777L203.5 -235.064L203.584 -235.006L201.241 -231.749L201.647 -231.406L201.478 -231.142L201.056 -231.332L198.359 -227.094L201.959 -224.608L196.95 -215.731L196.153 -214.364L191.641 -216.797L175.295 -184.212L169.379 -173.873L157.8 -153.063L150.036 -139.984L192.987 -127.217L221.075 -119.454L229.498 -116.546L239.679 -112.857L246.693 -110.133L266.031 -102.127L298.838 -91.7667L305.276 -89.017ZM95.7698 -158.789L130.967 -129.508L139.132 -139.515L143.993 -145.336L161.832 -165.434L168.593 -175.704L173.723 -186.925L176.805 -193.037L184.78 -209.551L185.46 -212.221L194.121 -228.287L206.74 -249.224L210.398 -255.066L218.357 -265.664L229.023 -279.634L245.015 -298.835L248.519 -302.06L268.39 -319.038L269.968 -319.988L269.963 -327.673L270.665 -343.448L271.108 -348.525L260.394 -387.243L256.668 -397.371L250.704 -415.69L242.661 -434.089L241.516 -436.917L239.584 -441.979L226.585 -472.178L225.276 -473.894L208.281 -504.204L201.478 -515.641L175.892 -545.043L165.611 -534.203L155.198 -516.39L147.566 -502.858L142.584 -495.279L142.024 -493.479L123.763 -467.043L106.315 -446.28L95.5323 -431.809L96.3662 -430.79L81.0712 -420.261L82.7918 -416.878L81.1767 -416.128L79.8468 -419.601L73.3129 -418.936L64.9001 -416.925L47.6576 -412.692L44.8867 -411.88L22.0182 -407.024L12.1276 -403.836L-15.4224 -395.566L-70.3113 -377.558L-80.8774 -374.265L-82.4871 -373.611L-100.817 -368.845L-110.348 -366.422L-137.471 -363.53L-142.332 -363.847L-172.748 -367.399L-175.044 -367.641L-175.033 -367.699L-174.004 -372.228L-189.637 -378.44L-201.849 -382.219L-209.84 -384.298L-220.955 -385.918L-232.065 -384.134L-238.773 -380.535L-254.675 -371.858L-256.532 -370.396L-292.094 -345.396L-279.913 -324.469L-253.656 -282.738L-247.159 -285.815L-233.674 -261.136L-222.67 -266.208L-181.324 -276.225L-170.183 -277.924L-151.974 -280.41L-132.594 -280.12L-130.668 -279.022L-110.517 -278.558L-104.627 -278.827L-91.7021 -281.877L-91.8024 -281.529L-82.8355 -277.724L-87.8546 -275.328L-81.6321 -265.411L-80.6029 -263.959L-80.1016 -263.474L-79.3468 -262.556L-77.9799 -261.067L-75.6102 -258.872L-73.6838 -257.23L-69.794 -254.618L-65.841 -252.702L-61.7824 -250.797L-57.4863 -249.139L-49.5485 -246.263L-40.8876 -243.017L-33.2085 -239.703L-22.6266 -233.839L-11.216 -227.627L-0.834587 -222.307L7.59929 -218.222L13.7321 -214.718L32.7954 -201.803L34.9487 -200.156L53.9751 -187.474L56.7776 -184.745L84.7498 -166.658L84.9662 -167.007L94.8303 -159.649L95.7698 -158.789Z" stroke="#CAD3DC" stroke-width="0.527778" stroke-miterlimit="10"/>
</g>
<mask id="mask2_64_24668" style="mask-type:luminance" maskUnits="userSpaceOnUse" x="-813" y="-292" width="1520" height="855">
<path d="M707 -292H-813V563H707V-292Z" fill="white"/>
</mask>
<g mask="url(#mask2_64_24668)">
<path d="M627.311 930.819L624.593 880.859L624.276 876.532L622.793 850.713L622.445 840.078L621.067 802.389L620.724 776.259L620.223 776.254L620.872 759.281L621.331 771.562L621.521 783.637L621.616 802.975L621.901 817.331L622.745 831.343L625.279 860.83L626.039 881.203L626.888 908.304L630.815 930.935L627.311 930.819ZM427.869 924.211L426.718 918.041L428.861 917.894L424.871 902.963L420.559 879.487L418.849 871.903L404.831 804.622L390.961 735.494L384.543 704.001L382.823 694.638L381.118 686.41L376.833 663.552L375.318 652.997L373.497 653.086L371.217 642.668L372.948 641.312L371.08 633.516L369.37 626.164L365.728 605.882L365.348 595.068L354.935 550.887L352.576 543.657L350.217 538.347L347.71 533.904L345.245 531.286L333.803 513.795L326.319 509.943L324.841 509.895L310.364 509.399L297.296 515.088L293.977 517.258L275.109 530.668L271.23 526.056L259.534 511.969L248.546 498.653L253.633 494.716L246.873 483.221L215.106 432.597L208.508 420.964L205.326 415.687L180.315 388.965L170.625 382.352L137.306 367.696L134.076 367.189L132.107 366.762L116.3 363.796L118.116 363.785L122.106 360.713L122.644 359.241L139.29 365.659L149.83 364.746L150.865 365.463L151.962 366.16L168.825 376.204L188.231 388.026L192.786 391.008L210.72 413.66L228.96 441.754L235.81 452.969L240.275 462.274L239.072 463.081L249.913 482.577L257.586 492.594L276.555 519.184L292.372 512.798L298.352 512.634L304.517 507.99L308.807 502.976L313.689 497.45L317.663 490.499L322.593 486.842L330.488 497.418L346.248 518.493L354.228 534.785L357.864 543.863L360.904 553.458L363.934 565.734L371.977 602.045L376.136 623.188L384.032 662.475L386.971 676.588L390.977 687.951L394.671 704.687L399.258 727.017L398.936 727.081L401.116 742.191L410.273 792.219L418.706 840.368L418.416 840.437L419.356 844.089L420 847.752L420.285 847.694L426.132 870.388L427.842 877.957L439.823 919.767L441.01 924.644L427.869 924.211ZM-436.795 895.558L-438.236 886.813L-438.389 877.983L-440.104 865.892L-440.442 864.435L-442.03 858.767L-447.488 840.141L-453.657 819.833L-455.135 815.14L-483.751 766.865L-496.951 748.672L-498.798 746.223L-489.435 742.977L-471.143 777.742L-463.828 791.28L-452.058 814.497L-450.237 818.729L-442.141 845.372L-441.323 848.813L-434.367 871.481L-432.662 880.184L-429.522 895.796L-436.795 895.558ZM-714.475 853.985L-701.903 831.956L-701.053 830.62L-700.71 830.235L-710.77 848.829L-712.026 850.438L-714.971 856.302L-714.475 853.985ZM-162.81 803.719L-166.383 799.956L-180.48 791.137L-180.812 791.807L-184.48 789.264L-181.535 787.189L-181.145 787.385L-180.29 787.955L-178.807 788.852L-177.508 789.438L-176.384 789.823L-175.328 790.256L-174.035 790.694L-173.012 791.095L-171.381 791.401L-168.61 791.734L-167.327 791.765L-157.025 790.309L-151.035 789.955L-148.449 791.042L-143.081 794.357L-137.302 799.154L-135.793 800.542L-117.252 825.015L-118.086 825.506L-119.4 823.833L-142.875 839.513L-162.81 803.719ZM-103.466 821.02L-95.0324 815.8L-93.7499 815.119L-91.8129 814.027L-103.15 821.664L-103.466 821.02ZM-52.694 790.493L-44.0279 785.263L-40.7504 784.165L-17.011 771.393L-10.0285 767.551L-5.92763 764.991L7.6151 756.99L-1.20933 762.996L-9.06266 768.986L-12.3823 770.918L-15.9501 772.771L-33.9737 781.236L-42.1596 785.152L-52.8735 790.599L-52.694 790.493ZM-219.16 747.78L-224.296 741.257L-240.356 720.267L-241.802 721.302L-242.018 721.033L-240.314 719.771L-262.787 691.06L-269.03 682.246L-285.655 694.849L-298.681 704.138L-307.875 709.031L-308.809 709.363L-304.945 706.74L-305.336 706.223L-303.151 704.666L-302.438 703.859L-300.839 703.489L-298.654 702.296L-296.522 700.096L-286.758 677.053L-282.283 673.775L-271.933 667.542L-273.236 665.473L-264.623 659.694L-246.04 643.507L-242.916 637.828L-242.974 634.91L-240.9 631.923L-240.266 627.727L-241.976 620.121L-239.986 624.892L-238.245 628.962L-236.572 632.598L-236.952 636.224L-236.983 639.602L-245.929 646.035L-255.44 656.158L-272.213 674.382L-263.568 686.073L-250.933 702.201L-252.088 702.956L-222.707 741.669L-220.738 744.687L-218.638 747.516L-205.011 764.97L-219.16 747.78ZM-581.38 736.243L-579.453 734.744L-581.031 737.9L-597.498 747.443L-581.38 736.243ZM-366.827 723.344L-401.84 722.199L-414.702 720.779L-429.527 722.194L-413.673 718.863L-376.058 719.169L-373.277 720.119L-358.341 721.903L-338.607 719.059L-337.472 718.826L-334.026 718.378L-337.23 719.523L-359.211 723.682L-366.827 723.344ZM-535.901 699.093L-539.4 701.674L-554.489 677.491L-564.506 659.135L-567.124 654.005L-571.99 642.467L-579.902 622.977L-581.559 619.097L-581.511 617.271L-586.494 604.995L-589.407 598.287L-586.694 590.561L-598.902 553.532L-604.026 542.496L-604.544 539.836L-608.486 533.941L-609.663 534.574L-609.748 534.458L-608.576 533.677L-615.379 524.52L-617.923 526.304L-623.137 519.068L-624.879 517.031L-623.243 515.479L-635.64 502.137L-659.586 481.026L-660.182 481.559L-678.739 465.773L-704.853 437.716L-707.133 437.141L-738.784 396.048L-779.222 414.753L-805.041 424.828L-836.449 434.296L-832.607 318.607L-794.855 306.347L-785.941 306.943L-752.411 292.778L-732.313 284.117L-697.528 272.231L-662.985 256.72L-645.161 249.532L-618.382 237.995L-602.981 229.344L-592.378 223.09L-593.466 220.493L-586.863 217.242L-585.053 220.831L-573.083 214.234L-574.571 211.189L-567.51 207.721L-565.203 212.17L-524.649 193.44L-488.813 175.622L-420.925 134.059L-380.676 101.316L-349.068 74.1829L-329.038 53.3674L-314.767 37.439L-307.078 37.2174L-307.204 34.8476L-293.187 34.3726L-262.686 -1.80655L-263.805 -9.17959L-254.094 -28.9501L-255.635 -30.2379L-255.398 -30.6707L-253.07 -29.4093L-244.546 -45.3693L-250.516 -85.2271L-263.821 -119.005L-283.264 -153.58L-306.508 -183.225L-356.483 -243.777L-375.62 -265.558L-424.593 -313.66L-424.74 -313.459L-431.844 -321.334L-485.097 -365.498L-524.211 -399.413L-549.111 -366.702L-562.026 -377.484L-596.448 -411.315L-611.553 -424.557L-628.399 -438.152L-630.099 -436.215L-650.803 -456.688L-712.854 -510.78L-715.757 -512.658L-718.253 -514.843L-741.201 -534.208L-776.077 -567.067L-777.729 -568.724L-779.739 -570.54L-802.481 -588.759L-800.096 -660.558L-702.198 -657.312L-686.919 -644.809L-676.765 -636.929L-650.745 -616.631L-655.21 -611.158L-613.347 -571.384L-602.042 -561.367L-571.668 -538.593L-537.579 -514.88L-534.814 -512.548L-532.835 -512.11L-520.395 -501.913L-504.751 -490.661L-507.744 -485.52L-478.859 -463.528L-476.251 -465.28L-459.305 -457.706L-454.808 -463.765L-438.821 -451.436L-415.689 -435.365L-413.953 -433.687L-408.849 -430.167L-392.636 -418.719L-383.458 -412.112L-353.723 -390.135L-341.188 -380.06L-314.868 -358.167L-312.107 -361.619L-295.229 -344.118L-294.648 -344.545L-282.167 -323.102L-254.638 -279.354L-248.278 -282.368L-234.809 -257.71L-226.613 -261.484L-222.554 -244.447L-221.678 -239.84L-221.789 -239.818L-220.86 -235.533L-220.717 -234.789L-220.696 -234.794L-218.173 -223.141L-216.981 -217.815L-219.398 -217.045L-211.043 -173.672L-208.146 -164.14L-208.452 -164.056L-204.145 -149.062L-200.625 -119.237L-188.94 -120.588L-188.65 -117.643L-195.59 -117.036L-194.455 -104.755L-199.348 -68.5757L-170.964 -64.5488L-147.615 -61.1498L-116.56 -52.9165L-110.063 -51.5812L-103.588 -50.3568L-77.4362 -45.0579L-61.9829 -41.4532L-51.6279 -37.8432L-35.0399 -32.2751L-25.9568 -30.4438L-28.6591 -23.8571L-10.9415 -16.6846L13.4154 -12.0982L21.997 -24.1157L33.2915 -39.7485L46.6654 -58.3262L52.872 -54.331L63.3643 -70.0746L69.4865 -70.6446L82.0951 -84.6255L86.0587 -84.2243L80.649 -78.4135L76.4901 -72.2965L73.1968 -67.6837L67.8768 -59.7829L59.5432 -58.7643L57.7382 -55.851L53.041 -49.7973L49.9535 -45.4537L43.7151 -49.4015L33.376 -37.2046L30.0562 -34.3335L17.5321 -12.4676L14.1068 -5.81236L6.77067 27.1685L6.59653 23.3737L6.41182 19.9854L6.22704 13.5729L6.0951 9.96821L6.31679 8.09457L4.64899 2.27845L1.20265 -2.59293L-4.37599 -6.35599L-5.36822 -6.78345L-23.7191 -17.471L-47.5799 -30.0479L-57.444 -35.0987L-65.8832 -37.4157L-75.9638 -40.0968L-85.9915 -42.9204L-93.6338 -44.0815L-105.778 -47.0899L-183.224 -64.7757L-212.273 29.2584L-223.668 30.731L-256.865 68.6571L-256.02 80.1679L-287.909 111.46L-302.301 131.489L-329.566 168.444L-335.419 176.577L-338.09 180.023L-345.273 186.167L-347.278 183.633L-366.643 200.137L-364.537 202.66L-374.886 211.516L-372 215.606L-376.174 218.393L-379.885 212.519L-423.98 241.784L-464.519 266.89L-519.756 301.845L-601.092 339.993L-603.034 336.457L-648.993 357.731L-675.852 370.636L-678.686 371.749L-683.114 373.676L-715.947 389.076L-733.401 397.542L-710.569 429.546L-709.102 427.852L-661.992 474.36L-644.407 488.124L-637.414 493.513L-625.75 506.939L-625.85 507.024L-623.713 509.288L-623.021 510.08L-622.984 510.059L-617.823 515.526L-611.479 524.198L-609.716 527.201L-599.013 552.724L-594.769 562.335L-588.003 579.044L-583.712 585.774L-578.508 600.261L-578.202 600.15L-574.049 611.508L-572.223 617.915L-571.225 620.939L-575.11 622.734L-565.388 646.521L-566.174 646.917L-558.991 664.217L-552.072 675.327L-550.04 676.293L-526.237 710.567L-535.901 699.093ZM618.597 669.405L618.961 662.951L618.038 661.019L618.961 645.829L620.787 646.732L624.186 647.46L620.402 647.898L618.534 673.918L618.597 669.405ZM667.723 620.454L669.169 620.179L661.864 627.906L667.723 620.454ZM69.3599 602.895L72.6532 606.209L69.4654 608.125L61.2321 623.536L69.3599 602.895ZM-246.716 599.089L-247.407 595.443L-231.389 585.431L-242.05 619.842L-246.716 599.089ZM696.128 594.788L706.361 583.003L706.076 591.706L698.26 594.16L691.51 600.092L696.128 594.788ZM-187.008 565.829L-182.037 563.623L-185.414 565.655L-187.546 566.014L-187.008 565.829ZM-0.491556 546.813L-2.23318 545.578L-2.5921 545.504L0.432055 544.127L0.901785 544.565L11.6157 553.6L-0.491556 546.813ZM-33.0765 544.971L-40.3176 541.013L-28.2632 545.019L-29.8201 545.214L-33.0765 544.971ZM-112.871 516.271L-107.129 519.432L-93.8924 509.373L-80.9987 497.793L-73.9688 490.568L-71.6518 488.399L-57.4546 470.708L-53.8921 466.469L-52.0554 464.105L-50.261 461.281L-47.3001 457.972L-43.7904 453.755L-42.4657 454.811L-29.4876 439.526L-50.4985 468.412L-53.301 472.407L-82.8249 515.964L-90.9737 510.819L-108.385 521.216L-119.178 527.554L-129.29 532.853L-112.871 516.271ZM482.462 496.315L482.251 496.051L489.239 493.259L483.264 496.315H482.462ZM-168.404 480.778L-171.191 480.672L-172.357 479.585L-200.018 446.599L-184.332 463.007L-177.318 469.536L-174.373 472.175L-172.32 473.594L-159.923 484.815L-148.797 492.922L-168.404 480.778ZM322.413 481.633L329.977 472.993L350.117 449.322L351.03 448.108L351.953 447.031L372.748 420.627L384.57 409.39L389.367 408.931L402.873 398.587L419.113 386.464L416.046 372.383L415.286 369.738L407.238 335.549L404.784 325.775L401.311 311.086L402.53 306.621L400.725 299.766L399.226 293.601L397.553 287.537L393.41 273.113L389.71 264.732L390.877 264.03L385.356 251.996L380.253 242.164L379.308 242.665L378.833 241.768L380.316 241.087L365.237 213.3L357.88 202.918L348.401 190.616L333.46 171.489L319.859 154.943L307.894 140.773L316.175 149.354L321.469 154.526L324.873 155.872L326.472 156.711L331.47 158.216L337.144 153.423L348.723 144.087L349.504 143.675L360.54 133.748L361.986 132.302L368.969 122.744L390.175 94.0906L403.628 75.4337L405.032 72.7579L420.839 51.4251L436.329 26.6248L449.386 4.82237L460.765 -14.4046L434.471 -26.8338L425.758 -30.8132L406.082 -40.7249L405.692 -39.9226L378.469 -50.1985L340.553 -67.6521L336.79 -56.5951L338.036 -61.9626L300.009 -80.7252L298.716 -81.2371L297.46 -81.8441L294.615 -84.0448L280.012 -91.0485L271.156 -94.5213L247.353 -102.517L245.178 -104L224.326 -110.75L216.773 -113.632L215.301 -108.481L213.739 -108.94L214.668 -113.062L198.19 -118.292L194.834 -108.222L170.635 -121.718L147.756 -132.447L143.803 -132.416L138.383 -129.582L133.875 -125.739L123.325 -116.197L122.613 -115.4L117.129 -109.684L106.79 -101.773L100.087 -96.701L127.542 -125.333L110.21 -143.341L131.342 -125.766L141.19 -137.836L146.009 -143.605L155.467 -154.26L146.051 -138.406L192.248 -124.673L220.304 -116.92L228.649 -114.038L238.761 -110.376L245.727 -107.668L265.139 -99.6301L297.935 -89.2751L307.055 -85.3854L307.103 -85.5648L310.94 -84.1082L341.741 -75.1465L344.601 -74.1596L358.302 -69.188L376.199 -62.4799L397.025 -55.7401L398.498 -55.4076L423.557 -46.4777L432.471 -88.5785L433.88 -97.0757L436.15 -111.336L437.997 -114.835L442.678 -130.985L443.998 -136.068L454.865 -165.407L455.498 -166.811L459.488 -177.314L461.029 -179.879L466.887 -194.588L476.709 -218.538L482.779 -233.242L486.368 -240.246L500.85 -272.256L507.468 -288.833L508.397 -290.596L514.973 -306.635L520.678 -320.917L528.22 -339.247L535.171 -355.465L544.798 -376.655L548.001 -385.031L551.216 -393.212L554.208 -401.028L558.108 -410.687L562.246 -419.379L563.381 -421.337L571.683 -440.791L578.581 -458.118L579.03 -459.094L587.078 -477.957L599.096 -505.533L600.584 -507.755L616.945 -538.894L617.394 -539.438L624.234 -552.664L637.608 -577.19L655.035 -608.762L656.565 -612.282L677.951 -611.575L661.949 -581.412L664.778 -579.744L641.35 -536.736L622.793 -501.216L587.247 -425.575L558.235 -364.279L529.846 -304.118L511.944 -267.87L503.927 -249.741L506.909 -240.225L498.586 -223.579L502.903 -221.199L485.618 -185.088L481.275 -186.724L473.706 -171.033L447.201 -116.572L441.591 -107.452L438.076 -95.0332L434.809 -85.9765L428.465 -53.8349L463.14 -42.9891L467.151 -41.6116L466.196 -38.9727L506.539 -28.8552L524.341 -22.8173L562.399 -16.5843L604.695 -9.72849L621.658 -6.89433L636.621 -5.31628L670.499 1.89318L675.127 3.12288L701.975 7.88345L712.378 10.2532L722.068 11.8629L725.245 12.4382L725.213 13.3618L723.181 12.8921L716.183 11.1662L715.518 13.2351L673.998 3.53985L657.362 0.336263L650.607 19.4629L648.844 18.1329L640.553 14.6337L639.972 14.3699L640.769 9.94707L639.909 9.53539L640.283 6.1471L630.535 5.19179L599.813 -1.50046L599.819 -1.23657L583.901 -4.98378L551.205 -12.7632L547.405 -13.4388L537.963 -15.5129L484.13 -23.1076L490.817 -1.30518L490.891 -1.08349L489.74 -0.677094L483.148 -15.6449L459.762 -0.239062L432.508 35.8979L430.423 42.9437L430.085 46.0787L412.521 70.5887L408.89 76.9062L396.107 90.8976L391.341 96.3285L385.425 103.374L365.005 129.183L361.131 134.218L340.87 156.585L335.782 163.599L341.398 171.579L344.269 175.859L357.231 193.677L369.243 210.091L383.008 228.695L388.438 238.126L401.559 256.108L401.744 255.976L404.013 264.916L401.654 265.381L408.183 298.478L409.956 320.206L410.294 329.247L414.157 348.469L419.746 366.271L420.184 368.493L420.976 370.963L423.282 383.213L447.317 374.652L450.294 373.644L476.989 364.234L476.535 364.582L449.666 376.637L448.125 377.402L434.434 382.954L426.739 383.339L425.478 384.168L414.363 391.525L415.445 395.747L413.46 393.013L409.597 396.534L408.198 394.697L396.366 405.221L383.578 416.748L378.337 421.709L364.9 437.5L323.063 483.052L322.413 481.633ZM532.495 478.239L530.437 478.313L530.727 478.244L532.955 478.17L535.556 478.461L536.322 478.635L536.185 478.798L537.625 479.664L532.495 478.239ZM-23.6504 429.562L-8.35017 409.448L-6.58735 406.657L3.84683 392.602L23.7282 365.981L14.7824 360.085L1.17624 350.807L-15.8182 339.734L-25.4185 333.596L-23.6346 329.411L-25.5082 328.287L-25.3552 326.967L-28.0627 322.391L-36.9821 318.681L-37.0876 319.077L-43.2046 316.913L-38.0746 280.132L-33.2032 238.037L-32.839 237.118L-29.0338 224.309L-28.3107 221.597L-25.6877 216.598L-16.1612 188.41L-7.41071 162.997L-3.09346 149.528L0.0256562 140.155L2.29513 128.37L3.7096 121.393L8.42262 97.9223L9.68401 91.8899L10.1854 82.2843V78.9012L10.1485 75.3493L9.00316 60.8196L6.92903 30.2824L18.9254 32.5729L15.3998 56.2912L12.5182 78.0093L10.9137 104.145L6.71262 126.011L6.29566 128.428L5.89461 130.333L3.26094 140.134L-0.808209 156.944L-6.6771 173.622L-9.95457 183.148L-13.4063 192.062L-15.301 196.812L-16.4146 199.836L-20.716 215.195L-23.1121 226.795L-26.131 242.734L-27.081 249.474L-28.564 266.394L-26.2893 294.583L-24.4051 316.565L-21.3598 323.099L-12.8099 337.238L4.77566 347.593L17.189 353.953L28.1404 357.932L38.0995 361.178L49.8373 364.424L32.2149 361.452L11.0087 387.836L7.58347 392.158L4.19511 396.486L-8.10207 411.86L-18.9479 425.239L-26.9807 436.128L-23.6504 429.562ZM60.0076 366.134L53.6321 365.057L58.5774 365.178L84.6443 363.986L107.566 363.843L103.006 372.024L96.0284 372.34L60.0076 366.134ZM500.945 344.854L497.968 348.063L497.414 348.49L500.945 344.854ZM512.155 329.29L514.488 326.645L527.35 312.749L541.816 296.024L551.047 284.333L555.1 279.868L558.341 276.559L558.731 276.222L553.791 282.492L552.255 286.492L552.007 286.777L525.217 316.238L521.723 320.681L512.751 330.028L512.155 329.29ZM704.899 312.986L701.331 306.252L690.987 282.317L685.81 268.975L664.334 215.875L609.245 240.739L592.403 249.395L590.54 250.086L591.955 249.073L603.128 241.636L609.276 238.19L617.246 233.619L639.481 223.211L662.482 212.709L682.785 206.338L684.48 194.289L684.891 191.075L685.145 191.16L686.195 183.243L685.377 193.513L682.458 235.197L708.636 293.696L714.03 304.442L715.476 307.207L714.753 329.094L704.899 312.986ZM-333.984 271.144L-350.012 247.69L-345.843 252.403L-322.373 285.853L-321.259 289.717L-333.984 271.144ZM-368.933 219.997L-356.135 238.032L-356.435 238.285L-368.933 219.997ZM689.467 141.195L691.219 106.435L692.882 102.086L706.44 62.6984L701.701 61.247L699.98 60.2918L696.001 58.0118L690.945 53.8582L679.265 45.8729L680.094 44.2368L664.899 35.6498L665.337 31.6651L678.241 40.2098L677.339 41.7668L696.808 55.2304L707.269 61.9648L708.657 59.896L723.398 67.9446L723.181 74.5154L706.076 65.026L694.935 107.94L693.948 113.465L693.225 130.734L690.296 148.267L689.039 154.674L689.467 141.195ZM278.893 114.479L274.871 118.88L276.956 112.827L296.32 128.776L299.619 132.202L278.893 114.479ZM182.716 121.092L177.66 118.595L176.335 117.572L184.083 120.918L183.756 121.62L182.716 121.092ZM147.038 101.506L150.01 93.9798L148.257 102.208L147.038 101.506ZM147.36 63.4637L154.411 64.7146L157.177 65.4323L156.66 66.7254L147.36 63.4637ZM105.813 52.0162L105.835 51.974L106.299 52.1271L105.813 52.0162ZM87.4046 -85.8763L87.4943 -85.8077L86.6762 -84.9263L87.4046 -85.8763ZM309.731 -129.808L308.77 -143.937L309.087 -170.616L308.802 -170.695L308.765 -200.525L306.353 -205.365L309.208 -218.359L309.493 -220.354L315.167 -251.699L312.681 -253.81L296.895 -267.252L289.232 -273.248L289.433 -274.282L288.525 -277.565L287.733 -279.502L289.496 -276.119L295.613 -270.092L318.608 -263.906L330.779 -290.58L326.092 -278.304L314.951 -238.399L314.328 -234.725L312.101 -199.048L311.451 -165.708L311.642 -150.139L311.214 -139.018L310.924 -136.327L310.085 -126.093L309.731 -129.808ZM58.0812 -180.723L85.5679 -162.948L85.684 -163.138L93.1468 -157.57L94.081 -156.757L95.7382 -155.379L58.0812 -180.723ZM53.3418 -183.916L35.8988 -195.358L19.1946 -206.183L7.2404 -213.588L-4.38127 -220.296L-9.37403 -223.135L-11.1896 -224.275L-18.4096 -228.513L-12.4299 -225.262L-1.99571 -219.916L6.35899 -215.868L12.3229 -212.459L31.2384 -199.639L33.3971 -197.987L52.2915 -185.394L54.846 -182.903L53.3418 -183.916ZM192.337 -219.415L195.726 -225.7L198.481 -223.8L195.15 -217.9L192.337 -219.415ZM-42.0012 -240.6L-41.8904 -240.557L-34.3907 -237.322L-29.6407 -234.689L-42.0012 -240.6ZM-79.5526 -258.644L-80.909 -260.333L-79.8641 -259.193L-78.9668 -258.359L-79.5526 -258.644ZM-86.7621 -267.617L-87.8863 -268.588L-87.5273 -269.802L-83.9912 -264.165L-86.7621 -267.617ZM-96.3623 -278.061L-92.5465 -278.964L-89.2743 -277.576L-91.6809 -276.425L-89.9393 -273.649L-96.3623 -278.061ZM-103.867 -276.288L-100.706 -277.032L-101.128 -275.665L-103.867 -276.288ZM-157.669 -276.963L-151.832 -277.76L-133.328 -277.486L-133.117 -277.365L-155.373 -276.963H-157.669ZM246.936 -297.019L250.272 -300.091L269.942 -316.895L272.612 -318.5L272.607 -327.62L273.304 -343.279L273.784 -348.778L262.912 -388.061L259.165 -398.247L253.174 -416.64L245.094 -435.123L243.97 -437.893L242.028 -442.976L228.875 -473.524L227.482 -475.35L210.546 -505.56L203.621 -517.203L175.971 -548.975L163.478 -535.807L152.907 -517.73L145.302 -504.24L140.166 -496.424L139.618 -494.656L121.657 -468.652L104.241 -447.927L92.181 -431.74L92.5029 -431.344L79.224 -422.192L72.8748 -421.548L64.2932 -419.5L46.9768 -415.247L44.2482 -414.444L21.3426 -409.578L11.3465 -406.353L-16.2404 -398.073L-71.1346 -380.065L-81.7693 -376.75L-83.321 -376.122L-101.482 -371.399L-110.813 -369.024L-137.524 -366.174L-142.094 -366.475L-171.813 -369.942L-170.927 -373.848L-186.158 -379.901L-156.022 -375.917L-154.101 -381.537L-151.431 -381.089L-151.716 -375.151L-131.043 -373.357L-110.37 -375.278L-88.1396 -381.77L-65.4979 -388.715L-46.5771 -395.735L-45.9015 -392.827L-22.1199 -398.901L-7.03595 -402.939L15.6585 -410.919L32.7901 -417.062L58.0601 -426.715L60.0657 -427.502L63.5754 -419.653L83.594 -430.156L89.5104 -434.231L91.4684 -436.643L95.4057 -441.81L100.657 -448.47L103.428 -452.091L110.02 -462.926L127.621 -488.903L133.68 -500.335L140.14 -511.957L143.18 -517.683L148.231 -528.154L163.294 -557.398L176.583 -585.967L178.077 -589.73L179.618 -593.43L183.117 -603.262L182.188 -603.658L182.426 -604.55L182.721 -605.067L183.122 -606.112L183.603 -607.885L183.344 -609.168L183.37 -609.342L184.447 -614.393L184.89 -616.393L185.777 -616.293L188.068 -627.83L192.807 -627.672L189.899 -607.458L185.545 -593.62L179.127 -573.823L179.301 -573.532L172.678 -555.361L186.764 -538.599L196.908 -526.845L196.829 -526.766L210.746 -508.616L225.476 -481.456L226.49 -479.831L232.554 -468.584L237.79 -458.804L246.091 -442.184L247.379 -439.709L252.193 -430.209L248.308 -427.897L260.727 -402.944L261.534 -401.403L269.319 -383.237L278.291 -362.828L273.779 -329.06L275.283 -319.07L277.236 -309.026L278.687 -304.054L279.769 -301.02L279.806 -300.909L278.502 -300.059L283.495 -288.501L283.295 -288.765L278.011 -296.84L268.971 -311.222L251.881 -298.528L248.329 -294.908L244.102 -291.023L241.452 -288.849L238.259 -286.595L246.936 -297.019ZM-273.273 -361.878L-258.765 -373.325L-257.899 -372.681L-258.11 -372.512L-273.337 -361.809L-273.273 -361.878ZM370.014 -369.013L371.761 -372.697L373.133 -375.69L374.975 -378.086L374.262 -376.592L368.773 -366.322L370.014 -369.013ZM-240.71 -391.692L-231.98 -393.972L-218.897 -394.917L-212.79 -392.119L-186.607 -384.266L-187.963 -380.624L-188.755 -380.941L-201.126 -384.767L-209.317 -386.9L-220.976 -388.599L-232.92 -386.678L-240.023 -382.867L-252.22 -376.207L-240.71 -391.692ZM439.11 -489.858L439.485 -489.579L435.638 -482.206L439.11 -489.858ZM466.338 -545.861L468.787 -550.748L468.096 -548.4L466.286 -544.673L466.338 -545.861ZM494.891 -603.241L498.913 -610.245L489.55 -592.453L494.891 -603.241Z" stroke="#CAD3DC" stroke-width="0.395833" stroke-miterlimit="10"/>
</g>
<mask id="mask3_64_24668" style="mask-type:luminance" maskUnits="userSpaceOnUse" x="-813" y="-292" width="1520" height="855">
<path d="M707 -292H-813V563H707V-292Z" fill="white"/>
</mask>
<g mask="url(#mask3_64_24668)">
<path d="M430.075 921.641L429.858 920.469L432.239 920.305L427.446 902.382L423.145 878.959L421.424 871.322L407.417 804.083L393.547 734.976L387.129 703.479L385.404 694.105L383.699 685.877L379.434 663.119L377.587 650.247L375.598 650.342L374.146 643.724L375.904 642.341L373.639 632.899L371.945 625.631L368.346 605.597L368.024 596.487L369.375 602.594L373.529 623.694L381.429 662.993L384.406 677.295L388.417 688.674L392.075 705.252L396.117 724.922L395.949 724.954L398.498 742.613L407.665 792.689L415.666 838.363L415.176 838.479L416.764 844.643L417.857 850.871L418.342 850.771L423.557 871L425.272 878.6L437.258 920.427L437.611 921.878L430.075 921.641ZM-434.547 892.993L-435.607 886.575L-435.75 878.173L-435.254 880.696L-432.768 893.051L-434.547 892.993ZM-160.667 802.141L-164.699 797.893L-170.689 794.145L-168.805 794.372L-167.174 794.415L-156.761 792.942L-151.494 792.631L-149.663 793.401L-144.622 796.51L-139.039 801.144L-137.756 802.326L-122.366 822.64L-141.962 835.729L-160.667 802.141ZM-481.545 765.413L-494.518 747.537L-490.713 746.218L-473.475 778.977L-473.18 779.526L-481.545 765.413ZM-541.738 692.939L-538.44 697.689L-538.667 697.858L-541.738 692.939ZM-284.616 678.752L-280.821 675.971L-272.867 671.179L-275.638 674.187L-271.02 680.436L-287.223 692.717L-291.973 696.105L-284.616 678.752ZM-269.648 666.233L-266.17 663.9L-269.104 667.088L-269.648 666.233ZM-240.272 638.477L-240.324 635.706L-239.417 634.403L-239.591 636.065L-239.612 638.229L-240.472 638.847L-240.272 638.477ZM-578.91 618.591L-578.862 616.786L-584.077 603.94L-586.578 598.176L-584.367 591.869L-580.139 603.639L-579.823 603.523L-576.609 612.315L-574.798 618.68L-574.524 619.52L-577.865 621.061L-578.91 618.591ZM-244.13 598.556L-244.478 596.725L-236.012 591.431L-241.644 609.618L-244.13 598.556ZM359.732 559.765L361.353 566.341L362.482 571.444L359.732 559.765ZM349.847 532.331L347.319 529.65L335.624 511.769L326.994 507.325L324.92 507.261L309.852 506.744L308.554 507.309L310.797 504.691L315.832 498.991L319.669 492.288L322.044 490.531L328.367 499.001L343.978 519.88L351.599 535.439L349.847 532.331ZM273.246 524.356L261.566 510.28L252.319 499.07L256.599 495.761L275.61 522.414L290.821 516.276L275.568 527.116L273.246 524.356ZM-621.063 517.437L-621.248 517.22L-620.53 516.54L-619.892 517.22L-616.392 522.007L-617.311 522.651L-621.063 517.437ZM-112.396 519.543L-111.547 520.012L-114.692 521.86L-112.396 519.543ZM-89.2691 508.765L-79.1727 499.698L-72.1216 492.452L-69.7097 490.198L-62.1836 480.82L-83.5691 512.365L-89.2691 508.765ZM-676.913 463.857L-682.407 457.951L-673.398 466.849L-676.913 463.857ZM217.38 431.24L210.778 419.597L207.453 414.082L182.932 387.883L186.827 390.258L190.986 392.982L208.577 415.196L226.727 443.157L233.488 454.23L236.903 461.35L236.459 461.645L217.38 431.24ZM-830.032 320.544L-794.523 309.012L-785.492 309.614L-751.382 295.205L-731.364 286.576L-696.557 274.68L-661.95 259.137L-644.117 251.949L-617.21 240.359L-601.641 231.608L-589.054 224.182L-590.072 221.755L-588.04 220.757L-586.172 224.452L-569.605 215.326L-571.04 212.392L-568.66 211.225L-566.385 215.622L-523.472 195.799L-487.53 177.928L-419.389 136.212L-378.95 103.316L-347.247 76.1038L-327.065 55.1299L-313.548 40.046L-304.291 39.7769L-304.423 37.3966L-291.925 36.9743L-259.9 -1.01509L-261.077 -8.75233L-252.548 -26.1162L-251.999 -25.8206L-241.813 -44.8945L-247.956 -85.9134L-261.441 -120.14L-281.069 -155.047L-304.476 -184.903L-354.504 -245.524L-373.71 -267.379L-424.93 -317.687L-424.962 -317.639L-430.018 -323.244L-483.398 -367.514L-524.617 -403.25L-549.549 -370.496L-560.263 -379.442L-594.659 -413.246L-609.859 -426.578L-628.721 -441.794L-630.241 -440.058L-649.014 -458.619L-711.26 -512.891L-714.163 -514.764L-716.517 -516.823L-739.449 -536.176L-774.245 -568.957L-775.913 -570.635L-778.035 -572.551L-799.806 -589.994L-797.552 -657.834L-703.185 -654.71L-688.545 -642.729L-678.39 -634.85L-654.503 -616.214L-658.81 -610.931L-615.142 -569.437L-603.72 -559.319L-573.225 -536.456L-539.2 -512.785L-536.033 -510.109L-534.033 -509.666L-522.015 -499.818L-508.245 -489.917L-511.206 -484.834L-478.964 -460.282L-475.998 -462.272L-458.455 -454.429L-454.301 -460.029L-440.394 -449.299L-417.383 -433.313L-415.647 -431.629L-410.364 -427.982L-394.177 -416.55L-385.02 -409.958L-355.354 -388.034L-342.861 -377.991L-314.498 -354.41L-311.933 -357.619L-295.53 -340.614L-295.461 -340.666L-284.415 -321.693L-255.64 -275.961L-249.418 -278.911L-235.96 -254.275L-228.455 -257.731L-225.156 -243.888L-224.781 -241.919L-224.961 -241.882L-223.472 -235L-222.839 -231.659L-222.755 -231.675L-220.781 -222.566L-220.111 -219.584L-222.459 -218.839L-213.635 -173.028L-211.481 -165.946L-211.75 -165.872L-206.768 -148.534L-202.963 -116.308L-198.25 -116.852L-197.136 -104.803L-202.34 -66.3223L-186.248 -64.037L-214.326 26.8622L-225.029 28.2449L-259.609 67.7544L-258.776 79.1491L-289.951 109.739L-304.476 129.953L-331.72 166.882L-337.562 175.004L-340.043 178.202L-344.94 182.388L-346.941 179.854L-370.374 199.825L-368.268 202.348L-377.974 210.65L-379.13 208.819L-425.442 239.551L-465.944 264.637L-521.06 299.517L-600.005 336.546L-601.942 333.021L-650.139 355.33L-676.944 368.208L-679.773 369.321L-684.27 371.279L-717.103 386.68L-735.712 395.705L-737.982 392.76L-780.262 412.314L-805.907 422.321L-833.694 430.702L-830.032 320.544ZM144.273 367.875L149.112 367.458L149.408 367.664L150.616 368.429L164.977 376.985L144.273 367.875ZM79.7253 366.857L84.7075 366.63L103.058 366.513L101.417 369.458L96.1973 369.696L79.7253 366.857ZM16.2389 357.884L7.68361 352.052L16.1228 356.375L27.3117 360.439L29.1484 361.04L26.3353 364.545L16.2389 357.884ZM-22.1094 332.583L-20.7055 329.289L-16.573 336.124L-22.1094 332.583ZM-22.69 326.904L-22.6319 326.392L-26.2366 320.296L-38.7397 315.097L-38.8875 315.646L-40.2966 315.15L-35.4569 280.444L-30.6278 238.696L-30.348 237.994L-26.49 224.995L-25.8461 222.567L-24.363 219.739L-25.7088 226.262L-28.7488 242.301L-29.72 249.173L-31.2294 266.384L-28.9388 294.794L-27.0178 317.256L-23.7139 324.339L-21.8561 327.41L-22.69 326.904ZM407.349 325.136L404.039 311.134L405.264 306.632L403.274 299.09L401.765 292.894L400.092 286.83L395.896 272.21L393.062 265.787L394.26 265.069L387.726 250.83L383.424 242.549L383.973 242.296L367.992 212.846L380.785 230.136L386.211 239.562L399.453 257.712L400.757 262.858L398.54 263.291L405.549 298.837L407.306 320.359L407.507 325.79L407.349 325.136ZM707.195 311.677L703.712 305.107L693.425 281.314L688.264 268.02L666.503 214.213L681.619 209.473L679.782 235.683L706.25 294.836L711.671 305.634L712.811 307.825L712.399 320.212L707.195 311.677ZM350.491 189.006L335.497 169.811L327.163 159.672L332.077 161.145L337.787 156.326L332.531 163.572L339.213 173.067L342.099 177.363L351.874 190.8L350.491 189.006ZM407.275 74.1616L407.903 73.3118L406.736 75.3385L406.541 75.5549L407.275 74.1616ZM709.237 63.7538L709.507 63.3579L720.706 69.4697L720.685 70.103L709.237 63.7538ZM11.6262 60.6294L9.78944 33.5332L15.9433 34.7102L12.7925 55.9216L11.832 63.168L11.6262 60.6294ZM642.928 12.781L643.709 8.448L642.722 7.97298L643.186 3.78768L630.931 2.58439L597.064 -4.78871L597.069 -4.58287L584.492 -7.54369L551.733 -15.339L547.906 -16.0198L543.162 -17.0595L561.961 -13.9826L604.257 -7.12673L621.283 -4.282L636.188 -2.70923L654.264 1.13822L649.213 15.4358L642.928 12.781ZM7.03974 1.11716L3.05506 -4.51425L-3.13055 -8.68371L-4.20189 -9.14288L-15.2219 -15.5606L-11.7175 -14.1409L12.9984 -9.48594L11.5786 -6.72033L8.61251 6.61656L7.03974 1.11716ZM464.512 -15.5554L435.601 -29.2248L426.908 -33.199L404.879 -44.2981L404.372 -43.2532L379.492 -52.6423L339.007 -71.2781L337.012 -65.4198L301.086 -83.1426L299.782 -83.6598L298.864 -84.1031L296.014 -86.3092L291.058 -88.6842L297.001 -86.8054L308.802 -81.7756L308.881 -82.0764L310.084 -81.6226L340.928 -72.6503L343.725 -71.6845L357.389 -66.7234L375.318 -60.0048L396.318 -53.207L397.748 -52.8851L425.499 -42.9945L427.288 -51.4495L462.301 -40.4981L463.736 -40.002L462.697 -37.1362L505.769 -26.3326L523.676 -20.2578L526.774 -19.7512L480.361 -26.3009L482.736 -18.5584L457.904 -2.1973L451.819 5.87244L464.512 -15.5554ZM-46.3713 -32.3809L-51.5066 -35.0093L-35.7472 -29.7209L-29.6355 -28.4912L-31.298 -24.4379L-46.3713 -32.3809ZM45.0767 -51.6501L47.3145 -54.7587L51.447 -52.0987L50.8876 -51.3809L49.2145 -49.0323L45.0767 -51.6501ZM64.8314 -67.5678L70.2358 -68.0693L66.3251 -62.2584L60.8467 -61.5881L64.8314 -67.5678ZM438.672 -110.508L440.44 -113.859L445.211 -130.336L446.499 -135.287L457.292 -164.42L457.92 -165.814L461.852 -176.169L463.383 -178.718L469.32 -193.622L479.132 -217.546L485.159 -232.145L488.727 -239.106L503.256 -271.227L509.843 -287.73L510.767 -289.483L517.396 -305.643L523.111 -319.951L530.643 -338.254L537.562 -354.41L547.215 -375.653L550.445 -384.103L553.649 -392.257L556.652 -400.094L560.504 -409.631L564.558 -418.155L565.724 -420.16L574.116 -439.825L580.987 -457.089L581.441 -458.071L589.49 -476.933L601.407 -504.278L602.838 -506.42L619.135 -537.443L619.589 -537.997L626.545 -551.445L639.909 -575.944L657.389 -607.611L658.254 -609.601L673.623 -609.089L658.418 -580.431L661.22 -578.779L639.017 -538.008L620.412 -502.399L584.84 -426.705L555.834 -365.414L527.444 -305.253L509.537 -268.994L501.098 -249.905L504.059 -240.457L495.076 -222.497L499.43 -220.096L484.267 -188.418L479.934 -190.049L471.315 -172.189L444.874 -117.855L439.142 -108.534L437.379 -102.296L438.672 -110.508ZM171.838 -124.077L149.033 -134.77L191.477 -122.156L196.253 -120.836L193.335 -112.086L171.838 -124.077ZM143.222 -136.179L143.433 -136.432L147.935 -135.092L143.138 -135.055L141.681 -134.295L143.222 -136.179ZM309.124 -205.698L310.164 -210.427L309.784 -204.373L309.124 -205.698ZM314.386 -255.805L303.25 -265.295L318.571 -261.173L316.56 -253.963L314.386 -255.805ZM270.433 -313.845L271.493 -314.747L273.224 -315.787L274.66 -308.398L275.357 -306.002L270.433 -313.845ZM267.936 -379.785L275.563 -362.437L274.644 -355.55L267.936 -379.785ZM-141.862 -369.108L-168.594 -372.228L-167.998 -374.84L-154.466 -373.051L-154.481 -372.745L-131.043 -370.708L-109.879 -372.676L-87.4061 -379.236L-64.6536 -386.214L-48.4719 -392.214L-48.055 -390.415L-71.9633 -382.572L-82.6666 -379.236L-84.155 -378.629L-102.152 -373.953L-111.288 -371.631L-137.587 -368.829L-141.862 -369.108ZM-239.147 -389.375L-231.553 -391.359L-219.387 -392.236L-215.524 -390.468L-221.002 -391.27L-233.785 -389.217L-241.28 -385.195L-242.932 -384.293L-239.147 -389.375ZM58.6775 -424.124L60.0022 -421.163L46.2853 -417.796L43.5989 -417.009L35.5978 -415.31L58.6775 -424.124ZM129.88 -487.536L136.008 -499.095L142.441 -510.674L145.529 -516.49L150.585 -526.972L165.658 -556.237L179 -584.922L180.526 -588.754L182.077 -592.474L184.985 -600.644L183.022 -594.406L176.24 -573.496L176.382 -573.258L169.664 -554.828L173.527 -550.231L161.362 -537.406L150.638 -519.066L143.053 -505.618L137.765 -497.569L137.227 -495.828L119.567 -470.257L112.358 -461.675L129.88 -487.536ZM185.545 -605.083L185.624 -605.284L186.299 -607.785L186.02 -609.163L186.943 -613.491L187.883 -613.385L188.585 -616.926L187.308 -608.033L186.278 -604.766L185.545 -605.083Z" stroke="#CAD3DC" stroke-width="0.263889" stroke-miterlimit="10"/>
</g>
<mask id="mask4_64_24668" style="mask-type:luminance" maskUnits="userSpaceOnUse" x="-813" y="-292" width="1520" height="855">
<path d="M707 -292H-813V563H707V-292Z" fill="white"/>
</mask>
<g mask="url(#mask4_64_24668)">
<path d="M-158.524 800.568L-162.466 796.415L-156.503 795.57L-151.953 795.301L-150.876 795.755L-146.169 798.658L-140.775 803.133L-139.719 804.11L-126.161 822.007L-141.049 831.95L-158.524 800.568ZM-282.473 680.451L-279.359 678.171L-277.021 676.762L-274.693 679.913L-285.819 688.347L-282.473 680.451ZM-241.549 598.007L-240.63 597.432L-241.237 599.39L-241.549 598.007ZM-84.9095 508.401L-82.7562 506.469L-84.3184 508.776L-84.9095 508.401ZM327.675 504.712L325.005 504.628L314.692 504.274L317.991 500.537L321.564 494.294L326.256 500.574L330.393 506.105L327.675 504.712ZM-827.456 322.481L-794.19 311.677L-785.044 312.289L-750.358 297.633L-730.419 289.041L-695.596 277.139L-660.926 261.57L-643.082 254.376L-616.044 242.734L-600.306 233.888L-588.029 226.647L-587.301 228.093L-568.317 217.638L-567.568 219.084L-522.295 198.173L-486.253 180.25L-417.863 138.381L-377.235 105.327L-345.436 78.03L-325.133 56.9294L-312.34 42.653L-301.51 42.3364L-301.641 39.9402L-290.664 39.5655L-257.108 -0.234192L-258.337 -8.33557L-251.381 -22.4905L-250.917 -22.2372L-239.068 -44.425L-245.386 -86.605L-259.045 -121.28L-278.863 -156.52L-302.438 -186.587L-352.519 -247.261L-371.788 -269.184L-423.679 -320.152L-428.181 -325.145L-481.688 -369.515L-525.008 -407.077L-549.971 -374.281L-558.484 -381.385L-592.859 -415.168L-608.154 -428.584L-629.027 -445.425L-630.373 -443.895L-647.214 -460.546L-709.672 -515.007L-712.569 -516.881L-714.781 -518.818L-737.691 -538.151L-772.403 -570.852L-774.092 -572.546L-776.325 -574.562L-797.124 -591.224L-795.003 -655.111L-704.167 -652.103L-690.165 -640.645L-680.005 -632.76L-658.25 -615.787L-662.399 -610.699L-616.925 -567.49L-605.393 -557.272L-574.772 -534.314L-540.809 -510.685L-537.236 -507.671L-535.215 -507.228L-523.625 -497.728L-511.734 -489.178L-514.663 -484.148L-479.064 -457.042L-475.745 -459.269L-457.6 -451.162L-453.784 -456.303L-441.951 -447.177L-419.061 -431.276L-417.32 -429.587L-411.852 -425.818L-395.686 -414.402L-386.55 -407.821L-356.953 -385.95L-344.502 -375.938L-314.113 -350.663L-311.743 -353.624L-297.388 -338.74L-286.642 -320.284L-256.622 -272.573L-250.531 -275.454L-237.089 -250.844L-230.27 -253.99L-227.895 -244.004L-228.106 -243.962L-226.053 -234.478L-224.929 -228.551L-224.776 -228.582L-223.356 -222.017L-223.214 -221.373L-225.494 -220.65L-216.2 -172.401L-214.79 -167.767L-215.017 -167.703L-209.365 -148.012L-205.275 -113.384L-200.63 -113.923L-199.791 -104.861L-205.306 -64.0794L-189.679 -61.8628L-216.342 24.4553L-226.354 25.7483L-262.317 66.8358L-261.493 78.1092L-291.962 108.003L-306.618 128.401L-333.846 165.303L-339.678 173.41L-341.964 176.36L-344.571 178.587L-346.571 176.059L-374.079 199.503L-371.968 202.031L-377.372 206.655L-378.338 205.124L-426.862 237.329L-467.327 262.393L-522.326 297.2L-598.881 333.105L-600.812 329.59L-651.247 352.939L-678 365.796L-680.781 366.893L-685.383 368.899L-718.216 384.299L-734.926 392.401L-737.174 389.487L-781.291 409.891L-806.762 419.835L-830.923 427.123L-827.456 322.481ZM-37.304 312.833L-32.8284 280.744L-32.7545 280.111L-31.5512 295.005L-29.7567 315.973L-37.304 312.833ZM709.491 310.374L706.097 303.966L695.869 280.311L690.728 267.069L688.728 262.119L703.875 295.97L709.322 306.822L710.161 308.431L710.066 311.318L709.491 310.374ZM396.418 266.864L396.545 266.79L396.672 267.439L396.418 266.864ZM390.101 249.679L389.542 248.602L397.02 258.852L397.516 260.805L395.442 261.211L395.484 261.422L390.101 249.679ZM670.024 215.875L678.716 213.146L677.27 233.798L670.024 215.875ZM12.6502 36.763L12.9563 36.8211L12.7505 38.2092L12.6502 36.763ZM645.899 11.1711L646.664 6.93307L645.551 6.40001L646.026 2.08276L650.776 3.09612L647.662 11.9153L645.899 11.1711ZM631.338 -0.0283507L626.514 -1.07862L635.771 -0.102247L640.194 0.837212L631.338 -0.0283507ZM4.92879 -6.4303L1.03907 -9.05334L9.05605 -7.5439L7.87905 -2.25556L4.92879 -6.4303ZM468.254 -16.7008L436.725 -31.6053L428.048 -35.5689L403.67 -47.8503L403.047 -46.5625L380.511 -55.0703L377.033 -56.6694L395.622 -50.6528L397.015 -50.3361L427.457 -39.485L429.273 -48.0508L460.338 -38.3344L459.229 -35.2734L489.672 -27.6364L476.63 -29.4783L479.644 -19.6564L463.853 -9.2539L468.254 -16.7008ZM323.786 -74.883L336.21 -71.2678L335.476 -69.1145L323.786 -74.883ZM178.969 -123.117L190.728 -119.623L192.876 -119.032L191.847 -115.939L178.969 -123.117ZM449.022 -134.496L459.736 -163.423L460.359 -164.806L464.233 -175.013L465.753 -177.546L471.769 -192.651L481.57 -216.549L487.555 -231.042L491.107 -237.966L505.69 -270.198L512.245 -286.627L513.163 -288.364L519.839 -304.641L525.56 -318.97L533.081 -337.247L539.974 -353.339L549.648 -374.634L552.91 -383.163L556.108 -391.296L559.117 -399.155L562.922 -408.576L566.896 -416.931L568.089 -418.984L576.57 -438.854L583.415 -456.055L583.869 -457.042L591.918 -475.904L603.73 -503.011L605.107 -505.075L621.347 -535.976L621.806 -536.535L628.878 -550.205L642.226 -574.683L659.758 -606.445L659.959 -606.904L669.311 -606.593L654.908 -579.439L657.69 -577.797L636.705 -539.269L618.053 -503.571L582.46 -427.829L553.453 -366.549L525.064 -306.382L507.152 -270.113L498.285 -250.063L501.225 -240.69L491.582 -221.415L495.978 -218.993L482.937 -191.744L478.609 -193.374L468.946 -173.34L447.882 -130.062L449.022 -134.496ZM313.885 -259.7L315.315 -259.315L315.125 -258.639L313.885 -259.7ZM167.263 -553.583L169.991 -550.337L160.359 -540.182L167.263 -553.583Z" stroke="#CAD3DC" stroke-width="0.131944" stroke-miterlimit="10"/>
</g>
</svg>
